<?xml version="1.0" encoding="utf-8"?>
<!-- Generator: Adobe Illustrator 16.0.0, SVG Export Plug-In . SVG Version: 6.00 Build 0)  -->
<!DOCTYPE svg PUBLIC "-//W3C//DTD SVG 1.1//EN" "http://www.w3.org/Graphics/SVG/1.1/DTD/svg11.dtd">
<svg version="1.1" id="Layer_1" xmlns="http://www.w3.org/2000/svg" xmlns:xlink="http://www.w3.org/1999/xlink" x="0px" y="0px"
	 width="96px" height="96px" viewBox="0 0 96 96" enable-background="new 0 0 96 96" xml:space="preserve">
<path d="M85.796,4.5v15.153H44.36v-3.507c0-3.306-2.681-5.987-5.987-5.987c-3.308,0-5.988,2.681-5.988,5.987v3.507h-6.743v-3.507
	c0-3.306-2.681-5.987-5.988-5.987c-3.307,0-5.987,2.681-5.987,5.987v3.507h-3.462V4.5H1.646v87h8.558V76.347h3.462v3.573
	c0,3.306,2.681,5.987,5.987,5.987c3.308,0,5.988-2.681,5.988-5.987v-3.573h6.743v3.573c0,3.306,2.681,5.987,5.988,5.987
	c3.307,0,5.987-2.681,5.987-5.987v-3.573h41.436V91.5h8.558v-87H85.796z M85.796,70.998H44.36v-3.574
	c0-3.306-2.681-5.986-5.987-5.986c-3.308,0-5.988,2.68-5.988,5.986v3.574h-6.743v-3.574c0-3.306-2.681-5.986-5.988-5.986
	c-3.307,0-5.987,2.68-5.987,5.986v3.574h-3.462V50.674h41.97v3.573c0,3.306,2.681,5.987,5.988,5.987
	c3.307,0,5.987-2.681,5.987-5.987v-3.573h6.744v3.573c0,3.306,2.681,5.987,5.987,5.987c3.308,0,5.988-2.681,5.988-5.987v-3.573
	h2.927V70.998z M85.796,45.326h-2.927v-3.574c0-3.306-2.681-5.986-5.988-5.986c-3.307,0-5.987,2.681-5.987,5.986v3.574h-6.744
	v-3.574c0-3.306-2.681-5.986-5.987-5.986c-3.308,0-5.988,2.681-5.988,5.986v3.574h-41.97V25.002h3.462v3.64
	c0,3.306,2.681,5.986,5.987,5.986c3.308,0,5.988-2.68,5.988-5.986v-3.64h6.743v3.64c0,3.306,2.681,5.986,5.988,5.986
	c3.307,0,5.987-2.68,5.987-5.986v-3.64h41.436V45.326z"/>
</svg>
