<?xml version="1.0" encoding="utf-8"?>
<!-- Generator: Adobe Illustrator 16.0.0, SVG Export Plug-In . SVG Version: 6.00 Build 0)  -->
<!DOCTYPE svg PUBLIC "-//W3C//DTD SVG 1.1//EN" "http://www.w3.org/Graphics/SVG/1.1/DTD/svg11.dtd">
<svg version="1.1" id="Layer_1" xmlns="http://www.w3.org/2000/svg" xmlns:xlink="http://www.w3.org/1999/xlink" x="0px" y="0px"
	 width="96px" height="96px" viewBox="0 0 96 96" enable-background="new 0 0 96 96" xml:space="preserve">
<g>
	<path d="M69.689,2.522H26.311v43.379h43.379V2.522z M64.331,40.543H31.669V7.881h32.661V40.543z"/>
	<path d="M50.578,50.099v43.379h43.379V50.099H50.578z M88.598,88.119H55.937V55.457h32.661V88.119z"/>
	<path d="M2.043,93.478h43.379V50.099H2.043V93.478z M7.402,55.457h32.661v32.662H7.402V55.457z"/>
	<path d="M42.833,30.221h10.241l2.674,7.438h4.653L50.381,10.765h-4.763L35.597,37.659h4.617L42.833,30.221z M46.534,19.467
		c0.635-1.783,1.118-3.426,1.447-4.928c0.122,0.489,0.345,1.258,0.669,2.309c0.323,1.05,0.577,1.82,0.76,2.308l2.51,7.292h-7.804
		L46.534,19.467z"/>
	<path d="M27.854,71.147v-0.183c1.514-0.269,2.676-0.922,3.48-1.96c0.807-1.038,1.209-2.338,1.209-3.902
		c0-2.32-0.82-4.018-2.463-5.093c-1.643-1.075-4.309-1.612-7.998-1.612h-7.95V85.18h9.673c2.992,0,5.328-0.681,7.008-2.042
		s2.52-3.246,2.52-5.652c0-1.783-0.443-3.197-1.328-4.241C31.118,72.2,29.735,71.501,27.854,71.147z M18.511,62.06h3.792
		c1.979,0,3.422,0.281,4.332,0.843c0.91,0.562,1.365,1.472,1.365,2.73c0,1.392-0.422,2.378-1.264,2.958
		c-0.844,0.58-2.18,0.87-4.012,0.87h-4.214V62.06z M27.313,80.444c-0.934,0.703-2.316,1.054-4.148,1.054h-4.654v-8.482h4.433
		c1.943,0,3.391,0.336,4.342,1.008c0.953,0.672,1.43,1.704,1.43,3.096C28.715,78.634,28.249,79.742,27.313,80.444z"/>
	<path d="M74.283,85.931c2.662,0,5.044-0.396,7.145-1.19v-3.756c-1.147,0.354-2.253,0.645-3.315,0.87
		c-1.063,0.226-2.162,0.339-3.298,0.339c-2.626,0-4.632-0.842-6.018-2.528c-1.387-1.686-2.08-4.171-2.08-7.457
		c0-3.139,0.721-5.6,2.162-7.383s3.42-2.675,5.936-2.675c1.111,0,2.171,0.162,3.179,0.485c1.008,0.324,1.963,0.7,2.867,1.127
		l1.575-3.646c-2.32-1.147-4.849-1.722-7.584-1.722c-2.602,0-4.867,0.556-6.797,1.667s-3.405,2.711-4.425,4.8
		s-1.529,4.525-1.529,7.31c0,4.421,1.05,7.82,3.151,10.195C67.352,84.743,70.363,85.931,74.283,85.931z"/>
</g>
</svg>
