<?xml version="1.0" encoding="utf-8"?>
<!-- Generator: Adobe Illustrator 16.0.0, SVG Export Plug-In . SVG Version: 6.00 Build 0)  -->
<!DOCTYPE svg PUBLIC "-//W3C//DTD SVG 1.1//EN" "http://www.w3.org/Graphics/SVG/1.1/DTD/svg11.dtd">
<svg version="1.1" id="Layer_1" xmlns="http://www.w3.org/2000/svg" xmlns:xlink="http://www.w3.org/1999/xlink" x="0px" y="0px"
	 width="96px" height="96px" viewBox="0 0 96 96" enable-background="new 0 0 96 96" xml:space="preserve">
<path d="M50.968,21.518C48.796,8.072,46.579,1.057,46.579,1.057h-8.867c4.202,8.439,6.647,15.281,8.025,20.709
	C34.59,17.771-13.154,4.208,10.262,74.947c0,0,9.96,29.483,37.738,16.848c27.778,12.636,37.738-16.848,37.738-16.848
	C108.69,5.607,63.272,17.268,50.968,21.518z M80.209,66.282c0,0-1.016,3.003-3.341,6.292c11.853-36.879,0.891-46.646-11.535-47.89
	C77.646,23.52,92.681,28.609,80.209,66.282z"/>
</svg>
