<?xml version="1.0" encoding="utf-8"?>
<!-- Generator: Adobe Illustrator 16.0.0, SVG Export Plug-In . SVG Version: 6.00 Build 0)  -->
<!DOCTYPE svg PUBLIC "-//W3C//DTD SVG 1.1//EN" "http://www.w3.org/Graphics/SVG/1.1/DTD/svg11.dtd">
<svg version="1.1" id="Layer_1" xmlns="http://www.w3.org/2000/svg" xmlns:xlink="http://www.w3.org/1999/xlink" x="0px" y="0px"
	 width="96px" height="96px" viewBox="0 0 96 96" enable-background="new 0 0 96 96" xml:space="preserve">
<path d="M94.961,48c0-6.002-5.172-10.724-12.979-14.07c3.363-8.501,3.107-15.253-0.777-19.135c-2.051-2.053-5.006-3.137-8.545-3.137
	c-3.105,0-6.701,0.833-10.584,2.372C58.73,6.217,54.006,1.039,48,1.039s-10.729,5.178-14.076,12.99
	c-3.881-1.539-7.479-2.372-10.584-2.372c-3.537,0-6.494,1.084-8.545,3.137c-4.246,4.245-3.926,11.244-0.77,19.132
	C6.217,37.273,1.039,41.997,1.039,48s5.178,10.727,12.986,14.074c-3.156,7.888-3.477,14.887,0.77,19.132
	c2.08,2.081,4.955,3.137,8.545,3.137c0.002,0,0.002,0,0.002,0c3.105,0,6.701-0.833,10.582-2.372
	c3.348,7.812,8.07,12.99,14.076,12.99s10.73-5.178,14.076-12.99c3.883,1.539,7.479,2.372,10.584,2.372
	c3.539,0,6.494-1.084,8.545-3.137c3.885-3.882,4.141-10.634,0.777-19.135C89.789,58.724,94.961,54.002,94.961,48z M7.193,48
	c0-2.922,3.496-5.997,9.441-8.505c1.496,2.806,3.279,5.666,5.279,8.505c-2,2.84-3.783,5.699-5.279,8.505
	C10.689,53.997,7.193,50.922,7.193,48z M23.342,78.19c0,0,0,0-0.002,0c-1.898,0-3.311-0.45-4.195-1.334
	c-2.066-2.066-1.768-6.713,0.662-12.69c3.043,0.926,6.326,1.688,9.748,2.281c0.594,3.423,1.354,6.705,2.281,9.748
	C28.477,77.535,25.58,78.19,23.342,78.19z M25.809,53.164c0.811,1.008,1.643,2.007,2.496,2.994c0.094,1.301,0.213,2.596,0.352,3.882
	c-2.184-0.432-4.236-0.93-6.145-1.481C23.471,56.818,24.57,55.014,25.809,53.164z M22.512,37.442
	c1.908-0.551,3.961-1.05,6.145-1.481c-0.139,1.286-0.258,2.581-0.352,3.882c-0.854,0.987-1.686,1.986-2.496,2.994
	C24.57,40.986,23.471,39.182,22.512,37.442z M29.555,29.554c-3.422,0.593-6.705,1.354-9.748,2.281
	c-2.43-5.978-2.729-10.625-0.662-12.69c0.885-0.885,2.297-1.334,4.195-1.334c2.238,0,5.135,0.655,8.496,1.997
	C30.908,22.849,30.148,26.131,29.555,29.554z M48,7.192c2.922,0,5.994,3.495,8.504,9.437c-2.768,1.467-5.621,3.237-8.504,5.267
	c-2.881-2.03-5.736-3.8-8.502-5.267C42.006,10.687,45.08,7.192,48,7.192z M56.889,48c0,4.909-3.979,8.888-8.889,8.888
	c-4.908,0-8.887-3.979-8.887-8.888s3.979-8.888,8.887-8.888C52.91,39.112,56.889,43.091,56.889,48z M37.449,22.485
	c1.732,0.948,3.537,2.043,5.406,3.295c-1.01,0.813-2.014,1.653-3.018,2.523c-1.301,0.095-2.594,0.213-3.877,0.353
	C36.395,26.462,36.895,24.401,37.449,22.485z M35.961,67.343c1.283,0.14,2.576,0.258,3.877,0.353c1.004,0.871,2.01,1.71,3.018,2.523
	c-1.869,1.253-3.674,2.348-5.404,3.296C36.895,71.6,36.395,69.538,35.961,67.343z M48,88.808c-2.92,0-5.994-3.495-8.502-9.437
	c2.768-1.467,5.621-3.237,8.502-5.267c2.883,2.03,5.736,3.8,8.504,5.267C53.994,85.313,50.922,88.808,48,88.808z M58.551,73.515
	c-1.732-0.948-3.537-2.042-5.404-3.295c1.008-0.813,2.014-1.653,3.018-2.523c1.299-0.095,2.592-0.213,3.877-0.353
	C59.605,69.538,59.105,71.6,58.551,73.515z M56.164,28.304c-1.004-0.871-2.012-1.71-3.018-2.523
	c1.867-1.252,3.672-2.347,5.404-3.295c0.555,1.916,1.055,3.978,1.49,6.172C58.756,28.517,57.463,28.398,56.164,28.304z M72.66,17.81
	c1.898,0,3.311,0.449,4.195,1.334c2.01,2.01,1.746,6.698-0.662,12.69c-3.041-0.926-6.324-1.687-9.746-2.281
	c-0.594-3.423-1.355-6.705-2.281-9.748C67.525,18.465,70.422,17.81,72.66,17.81z M70.219,42.833
	c-0.814-1.008-1.654-2.012-2.523-3.012c-0.094-1.294-0.213-2.582-0.352-3.861c2.191,0.434,4.25,0.934,6.166,1.487
	C72.537,39.218,71.436,41.019,70.219,42.833z M73.51,58.552c-1.916,0.554-3.975,1.054-6.166,1.487
	c0.139-1.279,0.258-2.566,0.352-3.861c0.869-1,1.709-2.004,2.523-3.012C71.436,54.981,72.537,56.782,73.51,58.552z M76.855,76.855
	c-0.885,0.885-2.297,1.334-4.195,1.334c-2.238,0-5.135-0.655-8.494-1.997c0.926-3.042,1.688-6.325,2.281-9.748
	c3.422-0.594,6.705-1.355,9.746-2.281C78.602,70.157,78.865,74.845,76.855,76.855z M79.387,56.497
	c-1.475-2.784-3.242-5.634-5.262-8.497c2.02-2.863,3.787-5.713,5.262-8.497c5.934,2.507,9.422,5.579,9.422,8.497
	S85.32,53.99,79.387,56.497z"/>
</svg>
