<?xml version="1.0" encoding="utf-8"?>
<!-- Generator: Adobe Illustrator 16.0.0, SVG Export Plug-In . SVG Version: 6.00 Build 0)  -->
<!DOCTYPE svg PUBLIC "-//W3C//DTD SVG 1.1//EN" "http://www.w3.org/Graphics/SVG/1.1/DTD/svg11.dtd">
<svg version="1.1" id="Layer_1" xmlns="http://www.w3.org/2000/svg" xmlns:xlink="http://www.w3.org/1999/xlink" x="0px" y="0px"
	 width="96px" height="96px" viewBox="0 0 96 96" enable-background="new 0 0 96 96" xml:space="preserve">
<path d="M93.583,44.202C91.954,19.147,81.812,0.376,70.167,1.147C66.006,1.417,62.37,4.088,59.48,8.543H38.098
	c-2.89-4.455-6.526-7.125-10.688-7.396c-11.645-0.771-21.787,18-23.415,43.055C3.254,55.613,4.44,66.513,7.337,74.896
	c3.215,9.302,8.294,14.64,14.303,15.03c0.147,0.009,0.295,0.011,0.443,0.014c2.579,3.017,6.405,4.937,10.686,4.937h32.038
	c4.281,0,8.107-1.919,10.686-4.937c0.148-0.003,0.296-0.005,0.443-0.014c6.009-0.39,11.088-5.728,14.303-15.03
	C93.137,66.513,94.324,55.613,93.583,44.202z M52.233,59.25h-6.888V48.662h1.779v3.048h3.33v-3.048h1.779V59.25z M52.233,44.318
	h-1.779v-3.739h-3.33v3.739h-1.779V33.73h6.888V44.318z M84.082,72.767c-1.445,4.18-3.294,7.314-5.265,9.069l-3.112-61.948
	c0-4.576-2.196-8.629-5.581-11.196v12.577c0,5.997-4.862,10.859-10.859,10.859H38.313c-5.998,0-10.859-4.862-10.859-10.859V8.692
	c-3.385,2.567-5.581,6.62-5.581,11.196l-3.112,61.948c-1.971-1.755-3.82-4.889-5.265-9.069c-2.62-7.582-3.685-17.576-2.999-28.143
	c1.417-21.795,9.686-36.984,16.221-36.984c0.09,0,0.18,0.002,0.27,0.008c1.21,0.079,2.411,0.706,3.557,1.802v8.072
	c0,5.998,4.862,10.859,10.859,10.859h7.34h0.089h7.34c5.998,0,10.859-4.862,10.859-10.859V9.451
	c1.146-1.096,2.347-1.724,3.557-1.802c0.09-0.006,0.18-0.008,0.27-0.008c6.535,0,14.804,15.188,16.221,36.984
	C87.767,55.191,86.702,65.186,84.082,72.767z"/>
</svg>
