<?xml version="1.0" encoding="utf-8"?>
<!-- Generator: Adobe Illustrator 16.0.0, SVG Export Plug-In . SVG Version: 6.00 Build 0)  -->
<!DOCTYPE svg PUBLIC "-//W3C//DTD SVG 1.1//EN" "http://www.w3.org/Graphics/SVG/1.1/DTD/svg11.dtd">
<svg version="1.1" id="Layer_1" xmlns="http://www.w3.org/2000/svg" xmlns:xlink="http://www.w3.org/1999/xlink" x="0px" y="0px"
	 width="96px" height="96px" viewBox="0 0 96 96" enable-background="new 0 0 96 96" xml:space="preserve">
<g>
	<path d="M48,2.174C22.73,2.174,2.174,22.731,2.174,48S22.73,93.826,48,93.826c25.268,0,45.826-20.558,45.826-45.826
		S73.268,2.174,48,2.174z M48,71.698c-13.088,0-23.697-10.61-23.697-23.698S34.912,24.302,48,24.302S71.697,34.912,71.697,48
		S61.088,71.698,48,71.698z"/>
	<path d="M54.465,46.739c4.123-2.547,4.781-6.093,4.781-8.096c0-4.507-3.411-9.359-10.901-9.359c-6.686,0-11.538,4.227-11.538,10.05
		c0,3.184,1.67,5.967,4.636,7.811c-3.91,2.098-5.965,5.309-5.965,9.36c0,5.073,4.274,10.209,12.442,10.209
		c7.302,0,12.603-4.584,12.603-10.901C60.522,51.911,58.385,48.734,54.465,46.739z M48.08,34.341c3.683,0,4.994,2.47,4.994,4.781
		c0,3.311-2.935,4.822-4.442,5.379c-3.891-1.09-5.706-2.837-5.706-5.485C42.926,36.689,44.52,34.341,48.08,34.341z M48.026,61.606
		c-1.879,0-3.521-0.636-4.626-1.791c-0.99-1.037-1.5-2.425-1.432-3.947c0-2.91,1.954-5.171,5.371-6.234
		c4.786,1.404,6.744,3.344,6.744,6.659C54.084,59.471,51.649,61.606,48.026,61.606z"/>
</g>
</svg>
