<?xml version="1.0" encoding="utf-8"?>
<!-- Generator: Adobe Illustrator 16.0.0, SVG Export Plug-In . SVG Version: 6.00 Build 0)  -->
<!DOCTYPE svg PUBLIC "-//W3C//DTD SVG 1.1//EN" "http://www.w3.org/Graphics/SVG/1.1/DTD/svg11.dtd">
<svg version="1.1" id="Layer_1" xmlns="http://www.w3.org/2000/svg" xmlns:xlink="http://www.w3.org/1999/xlink" x="0px" y="0px"
	 width="96px" height="96px" viewBox="0 0 96 96" enable-background="new 0 0 96 96" xml:space="preserve">
<g>
	<path d="M17.965,83.692c6.691,5.639,14.985,9.433,24.102,10.603V74.934c0-4.347-1.328-8.39-3.6-11.743L17.965,83.692z"/>
	<path d="M44.194,57.462c3.683,4.863,5.872,10.916,5.871,17.471l0.001,19.705c10.688-0.451,20.443-4.492,28.102-10.946
		L48.066,53.591L44.194,57.462z"/>
	<path d="M21.066,53.934H1.705c1.17,9.116,4.964,17.41,10.603,24.102L32.81,57.533C29.456,55.262,25.413,53.934,21.066,53.934z"/>
	<path d="M1.361,45.934l19.705,0c6.556,0,12.608,2.189,17.471,5.872l3.871-3.872L12.308,17.833
		C5.854,25.49,1.813,35.246,1.361,45.934z"/>
	<path d="M74.934,42.066h19.361c-1.17-9.116-4.964-17.41-10.603-24.102L63.19,38.467C66.544,40.738,70.587,42.066,74.934,42.066z"/>
	<path d="M74.934,50.066c-6.556,0-12.608-2.189-17.471-5.872l-3.871,3.872l30.101,30.102c6.454-7.658,10.495-17.414,10.946-28.101
		L74.934,50.066z"/>
	<path d="M78.035,12.308C71.344,6.669,63.05,2.875,53.934,1.705v19.361c0,4.347,1.328,8.39,3.6,11.743L78.035,12.308z"/>
	<path d="M51.806,38.538c-3.683-4.863-5.872-10.916-5.872-17.471V1.361C35.246,1.813,25.49,5.854,17.832,12.307l30.102,30.102
		L51.806,38.538z"/>
</g>
</svg>
