<?xml version="1.0" encoding="utf-8"?>
<!-- Generator: Adobe Illustrator 16.0.0, SVG Export Plug-In . SVG Version: 6.00 Build 0)  -->
<!DOCTYPE svg PUBLIC "-//W3C//DTD SVG 1.1//EN" "http://www.w3.org/Graphics/SVG/1.1/DTD/svg11.dtd">
<svg version="1.1" id="Layer_1" xmlns="http://www.w3.org/2000/svg" xmlns:xlink="http://www.w3.org/1999/xlink" x="0px" y="0px"
	 width="96px" height="96px" viewBox="0 0 96 96" enable-background="new 0 0 96 96" xml:space="preserve">
<path d="M80.723,76.069c-20.579-14.191,2.894-48.225-28.734-51.722V1.967h-7.978v22.381c-31.628,3.497-8.155,37.53-28.734,51.722
	c0,2.802,0.15,5.55,0.433,8.234h23.066c-0.021,0.247-0.04,0.494-0.04,0.749c0,4.96,4.021,8.98,8.982,8.98h0.562
	c4.961,0,8.983-4.021,8.983-8.98c0-0.253-0.015-0.504-0.036-0.749H80.29C80.572,81.619,80.723,78.871,80.723,76.069z"/>
</svg>
