<?xml version="1.0" encoding="utf-8"?>
<!-- Generator: Adobe Illustrator 16.0.0, SVG Export Plug-In . SVG Version: 6.00 Build 0)  -->
<!DOCTYPE svg PUBLIC "-//W3C//DTD SVG 1.1//EN" "http://www.w3.org/Graphics/SVG/1.1/DTD/svg11.dtd">
<svg version="1.1" id="Layer_1" xmlns="http://www.w3.org/2000/svg" xmlns:xlink="http://www.w3.org/1999/xlink" x="0px" y="0px"
	 width="96px" height="96px" viewBox="0 0 96 96" enable-background="new 0 0 96 96" xml:space="preserve">
<path d="M77.208,26.353c1.042-2.503,0.526-5.495-1.536-7.5c-2.099-2.041-5.171-2.451-7.668-1.268
	C62.328,5.846,52.687-2.288,38.256,2.091c-2.334,0.708-2.098,3.764,0.062,4.487c1.979,0.662,3.867,1.455,5.701,2.351
	c-2.661,0.685-5.191,1.884-7.434,3.581c-1.445,1.091-1.628,3.875,0.617,4.252c2.349,0.397,4.789,0.872,7.234,1.464
	c-4.923,1.063-9.6,3.532-13.366,7.406l-0.162,0.181c-4.105,5.071-16.554,18.422-24.75,19.284c-2.011,0.211-3.501,1.303-4.086,2.997
	c-2.125,6.139,10.352,19.496,17.981,26.917l0.483,0.469c0,0,0,0,0.002,0.001c1.407,1.371,3.795,3.631,6.624,6.077
	c-2.957,3.202-2.845,8.21,0.299,11.267c3.194,3.107,8.32,3.035,11.426-0.16c0.568-0.582,0.947-1.157,1.208-1.723
	c3.199,1.699,6.09,2.549,8.069,1.738c0.785-0.322,2.613-1.384,2.675-4.285C51.01,80.2,64.281,67.501,69.382,63.3l0.214-0.199
	c3.863-3.972,6.224-8.857,7.102-13.944c0.736,2.634,1.337,5.269,1.835,7.802c0.441,2.233,3.219,1.972,4.271,0.497
	c1.632-2.288,2.761-4.851,3.372-7.529c0.946,1.808,1.793,3.675,2.509,5.632c0.782,2.14,3.844,2.29,4.485-0.062
	C97.106,41.097,88.912,31.729,77.208,26.353z M51.2,12.959c2.611,0.362,3.935-2.792,1.674-4.286
	c-1.655-1.094-3.339-2.093-5.061-3.004c8.008,0.926,13.329,7.447,16.79,15.523c-0.075,0.186-0.141,0.374-0.196,0.563
	c-5.714-4.073-12.768-6.591-19.717-8.219C46.787,12.892,48.997,12.654,51.2,12.959z M36.61,90.451
	c-1.884,1.938-4.994,1.981-6.932,0.097c-1.938-1.884-1.98-4.993-0.096-6.932c0.002-0.003,0.005-0.005,0.008-0.008
	c2.469,2.031,5.134,4.053,7.72,5.701C37.248,89.716,36.987,90.063,36.61,90.451z M86.183,41.067
	c-1.558-2.218-4.673-0.808-4.236,1.793c0.364,2.191,0.19,4.409-0.396,6.524c-1.787-6.774-4.44-13.62-8.54-19.165
	c0.281-0.09,0.553-0.203,0.821-0.329c7.944,3.243,14.37,8.333,15.493,16.153C88.367,44.346,87.323,42.691,86.183,41.067z"/>
</svg>
