<?xml version="1.0" encoding="utf-8"?>
<!-- Generator: Adobe Illustrator 16.0.0, SVG Export Plug-In . SVG Version: 6.00 Build 0)  -->
<!DOCTYPE svg PUBLIC "-//W3C//DTD SVG 1.1//EN" "http://www.w3.org/Graphics/SVG/1.1/DTD/svg11.dtd">
<svg version="1.1" id="Layer_1" xmlns="http://www.w3.org/2000/svg" xmlns:xlink="http://www.w3.org/1999/xlink" x="0px" y="0px"
	 width="96px" height="96px" viewBox="0 0 96 96" enable-background="new 0 0 96 96" xml:space="preserve">
<path d="M48,2.174C22.73,2.174,2.174,22.731,2.174,48S22.73,93.826,48,93.826c25.268,0,45.826-20.558,45.826-45.826
	S73.268,2.174,48,2.174z M30.078,28.045c-3.076,1.23-6.285,0.443-7.166-1.759c-0.882-2.203,0.898-4.986,3.975-6.217
	c3.076-1.23,6.285-0.443,7.166,1.759C34.935,24.03,33.154,26.814,30.078,28.045z M46.828,35.795
	c-3.076,1.23-6.285,0.443-7.166-1.759c-0.882-2.203,0.898-4.986,3.975-6.217c3.076-1.23,6.285-0.443,7.166,1.759
	C51.685,31.78,49.904,34.564,46.828,35.795z M48,19.761c-3.313,0-6-1.923-6-4.295s2.687-4.295,6-4.295s6,1.923,6,4.295
	S51.313,19.761,48,19.761z"/>
</svg>
