<?xml version="1.0" encoding="utf-8"?>
<!-- Generator: Adobe Illustrator 16.0.0, SVG Export Plug-In . SVG Version: 6.00 Build 0)  -->
<!DOCTYPE svg PUBLIC "-//W3C//DTD SVG 1.1//EN" "http://www.w3.org/Graphics/SVG/1.1/DTD/svg11.dtd">
<svg version="1.1" id="Layer_1" xmlns="http://www.w3.org/2000/svg" xmlns:xlink="http://www.w3.org/1999/xlink" x="0px" y="0px"
	 width="96px" height="96px" viewBox="0 0 96 96" enable-background="new 0 0 96 96" xml:space="preserve">
<g>
	<path d="M22.749,89.31c-0.739,0-1.428-0.41-1.774-1.079c-0.386-0.744-0.268-1.649,0.298-2.269
		c0.067-0.074,5.672-6.236,9.545-11.563h-2.149c-14.807,0-26.854-12.047-26.854-26.854S13.861,20.69,28.668,20.69
		c0.412,0,0.831,0.01,1.255,0.03C34.594,12.154,43.71,6.69,53.521,6.69c10.857,0,20.458,6.371,24.694,16.304
		c9.73,4.31,15.97,13.854,15.97,24.55c0,14.808-12.047,26.854-26.854,26.854H50.403C34.875,87.75,23.656,89.211,23.001,89.294
		C22.917,89.305,22.833,89.31,22.749,89.31z"/>
</g>
</svg>
