<?xml version="1.0" encoding="utf-8"?>
<!-- Generator: Adobe Illustrator 16.0.4, SVG Export Plug-In . SVG Version: 6.00 Build 0)  -->
<!DOCTYPE svg PUBLIC "-//W3C//DTD SVG 1.1//EN" "http://www.w3.org/Graphics/SVG/1.1/DTD/svg11.dtd">
<svg version="1.1" id="Layer_1" xmlns="http://www.w3.org/2000/svg" xmlns:xlink="http://www.w3.org/1999/xlink" x="0px" y="0px"
	 width="96px" height="96px" viewBox="0 0 96 96" enable-background="new 0 0 96 96" xml:space="preserve">
<path d="M18.348,46.907H12.64V24.344h5.708V46.907z M39.319,46.907h5.708V24.344h-5.708V46.907z M94.098,78.887l-25.461,5.697
	L55.764,27.063v57.494H29.086h-0.505H1.903V12.519h26.678h0.505h26.678v4.097l23.234-5.2L94.098,78.887z M25.009,16.597H5.98v63.881
	h19.029V16.597z M51.686,80.479V16.597H32.658v63.881H51.686z M71.602,79.91l17.822-3.988L76.033,16.09l-17.822,3.988L71.602,79.91z
	 M71.416,24.738l-5.347,1.197l4.731,21.131l5.348-1.197L71.416,24.738z"/>
</svg>
