<?xml version="1.0" encoding="utf-8"?>
<!-- Generator: Adobe Illustrator 16.0.0, SVG Export Plug-In . SVG Version: 6.00 Build 0)  -->
<!DOCTYPE svg PUBLIC "-//W3C//DTD SVG 1.1//EN" "http://www.w3.org/Graphics/SVG/1.1/DTD/svg11.dtd">
<svg version="1.1" id="Layer_1" xmlns="http://www.w3.org/2000/svg" xmlns:xlink="http://www.w3.org/1999/xlink" x="0px" y="0px"
	 width="96px" height="96px" viewBox="0 0 96 96" enable-background="new 0 0 96 96" xml:space="preserve">
<g>
	<path d="M37.342,15.677l-28.575-3.08c-17.11-1.681-0.455,16.641,0.449,17.546C9.215,30.144-9.421,48.273,8.767,46.789l28.575-3.079
		c-1.177-1.679-1.872-3.718-1.872-5.919V21.595C35.47,19.394,36.165,17.355,37.342,15.677z"/>
	<path d="M86.784,30.143c0.904-0.905,17.528-19.227,0.449-17.546l-28.575,3.08c1.177,1.679,1.872,3.717,1.872,5.918v16.196
		c0,2.201-0.695,4.24-1.872,5.919l28.575,3.079C105.421,48.273,86.785,30.144,86.784,30.143z"/>
	<path d="M50.183,13.946h-2.182h-2.184c-4.217,0-7.648,3.432-7.648,7.648v16.196c0,0.048,0.006,0.093,0.007,0.14v45.582L48,71.015
		l9.824,12.498V37.931c0.001-0.047,0.007-0.092,0.007-0.14V21.595C57.831,17.378,54.399,13.946,50.183,13.946z"/>
</g>
</svg>
