<?xml version="1.0" encoding="utf-8"?>
<!-- Generator: Adobe Illustrator 16.0.0, SVG Export Plug-In . SVG Version: 6.00 Build 0)  -->
<!DOCTYPE svg PUBLIC "-//W3C//DTD SVG 1.1//EN" "http://www.w3.org/Graphics/SVG/1.1/DTD/svg11.dtd">
<svg version="1.1" id="Layer_1" xmlns="http://www.w3.org/2000/svg" xmlns:xlink="http://www.w3.org/1999/xlink" x="0px" y="0px"
	 width="96px" height="96px" viewBox="0 0 96 96" enable-background="new 0 0 96 96" xml:space="preserve">
<g>
	<path d="M1.333,1.333v93.334h93.334V1.333H1.333z M44,86.667H9.333V52H44V86.667z M44,44H9.333V9.333H44V44z M86.667,86.667H52V52
		h34.667V86.667z M86.667,44H52V9.333h34.667V44z"/>
	<polygon points="23.784,40.018 29.618,40.018 29.618,29.601 40.035,29.601 40.035,23.767 29.618,23.767 29.618,13.351 
		23.784,13.351 23.784,23.767 13.368,23.767 13.368,29.601 23.784,29.601 	"/>
	<polygon points="19.284,80.799 26.649,73.434 34.015,80.799 38.14,76.674 30.774,69.309 38.14,61.943 34.015,57.818 26.649,65.183 
		19.284,57.818 15.159,61.943 22.524,69.309 15.159,76.674 	"/>
	<rect x="56.03" y="23.767" width="26.667" height="5.834"/>
	<rect x="55.98" y="59.722" width="26.667" height="5.834"/>
	<rect x="55.98" y="73.433" width="26.667" height="5.834"/>
</g>
</svg>
