<?xml version="1.0" encoding="utf-8"?>
<!-- Generator: Adobe Illustrator 16.0.0, SVG Export Plug-In . SVG Version: 6.00 Build 0)  -->
<!DOCTYPE svg PUBLIC "-//W3C//DTD SVG 1.1//EN" "http://www.w3.org/Graphics/SVG/1.1/DTD/svg11.dtd">
<svg version="1.1" id="Layer_1" xmlns="http://www.w3.org/2000/svg" xmlns:xlink="http://www.w3.org/1999/xlink" x="0px" y="0px"
	 width="96px" height="96px" viewBox="0 0 96 96" enable-background="new 0 0 96 96" xml:space="preserve">
<g>
	<path d="M80.53,9.851V2.544h-8.486v7.307H61.672V2.544h-8.486v7.307H42.814V2.544h-8.486v7.307H23.956V2.544H15.47v7.307H2v83.605
		h92V9.851H80.53z M86.849,86.189H9.151V27.65h77.698V86.189z"/>
	<rect x="34.398" y="34.648" width="9.739" height="9.739"/>
	<rect x="51.862" y="34.648" width="9.739" height="9.739"/>
	<rect x="69.327" y="34.648" width="9.739" height="9.739"/>
	<rect x="34.398" y="52.112" width="9.739" height="9.739"/>
	<rect x="51.862" y="52.112" width="9.739" height="9.739"/>
	<rect x="69.327" y="52.112" width="9.739" height="9.739"/>
	<rect x="34.398" y="69.577" width="9.739" height="9.739"/>
	<rect x="16.935" y="69.577" width="9.739" height="9.739"/>
	<rect x="16.935" y="52.112" width="9.739" height="9.739"/>
	<rect x="51.862" y="69.577" width="9.739" height="9.739"/>
	<rect x="69.327" y="69.577" width="9.739" height="9.739"/>
</g>
</svg>
