<?xml version="1.0" encoding="utf-8"?>
<!-- Generator: Adobe Illustrator 16.0.0, SVG Export Plug-In . SVG Version: 6.00 Build 0)  -->
<!DOCTYPE svg PUBLIC "-//W3C//DTD SVG 1.1//EN" "http://www.w3.org/Graphics/SVG/1.1/DTD/svg11.dtd">
<svg version="1.1" id="Layer_1" xmlns="http://www.w3.org/2000/svg" xmlns:xlink="http://www.w3.org/1999/xlink" x="0px" y="0px"
	 width="96px" height="96px" viewBox="0 0 96 96" enable-background="new 0 0 96 96" xml:space="preserve">
<path d="M95.281,61.57c-1.442-4.578-5.671-7.507-10.229-7.507c-0.726,0-1.459,0.105-2.191,0.255L52.299,11.377l-0.215,0.151v-0.144
	l-8.383-0.008l0,0l0,0h-0.2L43.5,11.658L13.156,54.295C7.817,53.17,2.393,56.259,0.719,61.57c-1.78,5.651,1.358,11.677,7.01,13.458
	c5.651,1.78,11.676-1.358,13.457-7.009c0.959-3.049,0.479-6.197-1.043-8.738l23.341-32.796l-0.041,37.568
	c-4.992,2.165-7.63,7.802-5.94,13.098c1.455,4.563,5.675,7.472,10.219,7.472c1.08,0,2.18-0.166,3.263-0.511
	c5.645-1.8,8.762-7.838,6.96-13.483c-0.974-3.053-3.198-5.34-5.918-6.533l0.042-38.24l23.79,33.426
	c-1.522,2.541-2.002,5.689-1.043,8.738c1.443,4.578,5.672,7.505,10.231,7.505c1.066,0,2.153-0.159,3.226-0.496
	C93.923,73.247,97.062,67.222,95.281,61.57z M54.439,71.748c0.572,1.795,0.412,3.703-0.451,5.378
	c-0.865,1.673-2.328,2.909-4.123,3.481c-0.7,0.225-1.421,0.337-2.145,0.337c-3.079,0-5.778-1.972-6.715-4.911
	c-1.181-3.703,0.871-7.677,4.573-8.859c0.7-0.222,1.423-0.335,2.147-0.335C50.806,66.839,53.503,68.811,54.439,71.748z
	 M87.167,71.519c-0.692,0.218-1.406,0.329-2.121,0.329c-3.091,0-5.793-1.984-6.722-4.933c-0.566-1.797-0.398-3.705,0.471-5.378
	c0.87-1.669,2.339-2.899,4.135-3.468c0.692-0.218,1.406-0.327,2.122-0.327c3.09,0,5.79,1.982,6.722,4.936
	C92.94,66.385,90.874,70.351,87.167,71.519z"/>
</svg>
