<?xml version="1.0" encoding="utf-8"?>
<!-- Generator: Adobe Illustrator 16.0.0, SVG Export Plug-In . SVG Version: 6.00 Build 0)  -->
<!DOCTYPE svg PUBLIC "-//W3C//DTD SVG 1.1//EN" "http://www.w3.org/Graphics/SVG/1.1/DTD/svg11.dtd">
<svg version="1.1" id="Layer_1" xmlns="http://www.w3.org/2000/svg" xmlns:xlink="http://www.w3.org/1999/xlink" x="0px" y="0px"
	 width="96px" height="96px" viewBox="0 0 96 96" enable-background="new 0 0 96 96" xml:space="preserve">
<g>
	<path d="M92.559,46.137c0-8.262-2.268-16-6.202-22.64c0.322-0.141,0.635-0.306,0.926-0.517c2.904-2.107,2.969-6.972,0.144-10.869
		c-2.826-3.896-7.47-5.348-10.375-3.242c-0.756,0.548-1.314,1.286-1.685,2.142C67.808,5.108,58.312,1.578,48,1.578
		c-10.311,0-19.808,3.53-27.366,9.432c-0.37-0.856-0.929-1.593-1.685-2.142c-2.905-2.106-7.551-0.654-10.376,3.242
		c-2.825,3.896-2.759,8.762,0.146,10.869c0.291,0.211,0.603,0.376,0.925,0.517c-3.935,6.64-6.203,14.379-6.203,22.641
		c0,12.077,4.837,23.04,12.666,31.074L5.966,87.351l7.071,7.071l10.846-10.846c6.958,4.497,15.234,7.12,24.116,7.12
		c8.883,0,17.159-2.623,24.116-7.12l10.846,10.846l7.071-7.071l-10.14-10.14C87.723,69.177,92.559,58.213,92.559,46.137z
		 M10.441,46.137C10.441,25.427,27.29,8.578,48,8.578s37.559,16.849,37.559,37.559S68.71,83.696,48,83.696
		S10.441,66.847,10.441,46.137z"/>
	<polygon points="66.163,28.996 47.973,45.802 26.978,22.307 21.14,28.145 47.984,57.466 72,34.833 	"/>
</g>
</svg>
