<?xml version="1.0" encoding="utf-8"?>
<!-- Generator: Adobe Illustrator 16.0.0, SVG Export Plug-In . SVG Version: 6.00 Build 0)  -->
<!DOCTYPE svg PUBLIC "-//W3C//DTD SVG 1.1//EN" "http://www.w3.org/Graphics/SVG/1.1/DTD/svg11.dtd">
<svg version="1.1" id="Layer_1" xmlns="http://www.w3.org/2000/svg" xmlns:xlink="http://www.w3.org/1999/xlink" x="0px" y="0px"
	 width="96px" height="96px" viewBox="0 0 96 96" enable-background="new 0 0 96 96" xml:space="preserve">
<g>
	<path d="M48,2.403C22.858,2.403,2.403,22.858,2.403,48S22.858,93.597,48,93.597h37.08V74.448
		c2.022-3.495,8.517-15.569,8.517-26.448C93.597,22.858,73.142,2.403,48,2.403z M77.919,71.344l-0.582,0.938v13.573H48
		c-20.873,0-37.854-16.981-37.854-37.854S27.127,10.146,48,10.146S85.854,27.127,85.854,48
		C85.854,58.387,77.997,71.218,77.919,71.344z"/>
	<rect x="25.833" y="34.25" width="44.333" height="7.5"/>
	<rect x="25.833" y="54.25" width="44.333" height="7.5"/>
</g>
</svg>
