<?xml version="1.0" encoding="utf-8"?>
<!-- Generator: Adobe Illustrator 16.0.0, SVG Export Plug-In . SVG Version: 6.00 Build 0)  -->
<!DOCTYPE svg PUBLIC "-//W3C//DTD SVG 1.1//EN" "http://www.w3.org/Graphics/SVG/1.1/DTD/svg11.dtd">
<svg version="1.1" id="Layer_1" xmlns="http://www.w3.org/2000/svg" xmlns:xlink="http://www.w3.org/1999/xlink" x="0px" y="0px"
	 width="96px" height="96px" viewBox="0 0 96 96" enable-background="new 0 0 96 96" xml:space="preserve">
<path d="M75.549,61.295v-3.463H66.55c-0.507-1.154-1.389-2.092-2.483-2.705c-2.168-8.523-4.021-15.684-4.021-15.684v-9.691
	c0-3.162-2.547-5.723-5.7-5.762l-2.272,0.004l0.022-22.221H48h-4.039l0.036,22.207l-2.344,0.01c-3.154,0.039-5.7,2.6-5.7,5.762
	v9.691c0,0-1.812,7.004-3.95,15.404c-1.338,0.578-2.412,1.65-2.998,2.984h-8.556v3.463h8.183c0.182,0.893,0.589,1.695,1.133,2.389
	c-2.16,8.588-4.147,16.688-4.537,18.912c-1.367,7.547,1.814,11.631,1.814,11.631l9.872-28.98c1.526-0.789,2.67-2.219,3.023-3.951
	h15.678c0.393,1.93,1.757,3.5,3.553,4.207l9.785,28.725c0,0,3.181-4.084,1.814-11.631c-0.396-2.264-2.446-10.605-4.649-19.357
	c0.376-0.586,0.658-1.238,0.802-1.943H75.549z M55.99,57.832H39.567c-0.022-0.049-0.054-0.092-0.077-0.141l3.621-10.631h9.779
	l3.45,10.129C56.214,57.398,56.088,57.607,55.99,57.832z"/>
</svg>
