<?xml version="1.0" encoding="utf-8"?>
<!-- Generator: Adobe Illustrator 16.0.0, SVG Export Plug-In . SVG Version: 6.00 Build 0)  -->
<!DOCTYPE svg PUBLIC "-//W3C//DTD SVG 1.1//EN" "http://www.w3.org/Graphics/SVG/1.1/DTD/svg11.dtd">
<svg version="1.1" id="Layer_1" xmlns="http://www.w3.org/2000/svg" xmlns:xlink="http://www.w3.org/1999/xlink" x="0px" y="0px"
	 width="96px" height="96px" viewBox="0 0 96 96" enable-background="new 0 0 96 96" xml:space="preserve">
<path d="M76.356,82.254l2.178-1.073L68.352,60.5h6.2v-3h-7.677l-9.384-19.06c2.253-2.377,3.646-5.578,3.646-9.104
	c0-6.384-4.537-11.726-10.554-12.977V1.254H48h-2.583V16.36c-6.018,1.251-10.554,6.593-10.554,12.977
	c0,3.526,1.393,6.727,3.646,9.104L29.125,57.5h-7.677v3h6.2L17.466,81.182l2.178,1.073l-5.445,12.491h3.708L24,84.4l2.178,1.071
	L38.473,60.5h7.929v4.375H48h1.599V60.5h7.929l12.294,24.971L72,84.4l6.094,10.346h3.708L76.356,82.254z M49.599,57.5v-4.375H48
	h-1.599V57.5H39.95l7.405-15c0,0,0.299,0.081,0.646,0.085c0.347-0.004,0.646-0.085,0.646-0.085l7.405,15H49.599z"/>
</svg>
