<?xml version="1.0" encoding="utf-8"?>
<!-- Generator: Adobe Illustrator 16.0.0, SVG Export Plug-In . SVG Version: 6.00 Build 0)  -->
<!DOCTYPE svg PUBLIC "-//W3C//DTD SVG 1.1//EN" "http://www.w3.org/Graphics/SVG/1.1/DTD/svg11.dtd">
<svg version="1.1" id="Layer_1" xmlns="http://www.w3.org/2000/svg" xmlns:xlink="http://www.w3.org/1999/xlink" x="0px" y="0px"
	 width="96px" height="96px" viewBox="0 0 96 96" enable-background="new 0 0 96 96" xml:space="preserve">
<g>
	<path d="M70.438,21.564h-37.53v73.374h53.525V43.324L65.948,31.787L70.438,21.564z M49.812,79.16h-7.619v-5.739h7.619V79.16z
		 M49.812,63.496h-7.619v-5.737h7.619V63.496z M49.812,48.366h-7.619v-5.738h7.619V48.366z M77.321,79.09H54.192v-5.739h23.129
		V79.09z M77.321,63.427H54.192v-5.739h23.129V63.427z M77.321,42.558v5.739H54.192v-5.739H77.321z"/>
	<polygon points="73.837,21.784 70.496,29.567 86.607,39.499 	"/>
	<path d="M42.435,11.286l4.489-10.223H9.393v73.374h18.972V17.585H53.62L42.435,11.286z M26.298,58.659h-7.619v-5.738h7.619V58.659z
		 M26.298,42.995h-7.619v-5.739h7.619V42.995z M26.298,27.865h-7.619v-5.738h7.619V27.865z"/>
	<polygon points="62.075,17.585 50.323,1.282 46.982,9.066 60.802,17.585 	"/>
</g>
</svg>
