<?xml version="1.0" encoding="utf-8"?>
<!-- Generator: Adobe Illustrator 16.0.0, SVG Export Plug-In . SVG Version: 6.00 Build 0)  -->
<!DOCTYPE svg PUBLIC "-//W3C//DTD SVG 1.1//EN" "http://www.w3.org/Graphics/SVG/1.1/DTD/svg11.dtd">
<svg version="1.1" id="Layer_1" xmlns="http://www.w3.org/2000/svg" xmlns:xlink="http://www.w3.org/1999/xlink" x="0px" y="0px"
	 width="96px" height="96px" viewBox="0 0 96 96" enable-background="new 0 0 96 96" xml:space="preserve">
<g>
	<path d="M91.106,12.827L83.158,4.88c-3.512-3.512-9.204-3.512-12.716,0l-2.578,2.579l20.678,20.679l0.283-0.284l-0.016-0.015
		l2.297-2.296C94.617,22.032,94.618,16.339,91.106,12.827z"/>
	<path d="M7.29,68.059l2.002,2.002c-0.15,0.221-0.276,0.461-0.366,0.721L2.424,89.74c-0.375,1.095-0.095,2.308,0.725,3.127
		c0.817,0.818,2.031,1.099,3.126,0.723l18.959-6.501c0.26-0.089,0.5-0.216,0.721-0.367l2.002,2.002l6.342-6.341L13.632,61.717
		L7.29,68.059z"/>
	<path d="M56.984,18.338c-0.088,0.088-0.164,0.185-0.248,0.275L17.154,58.195l20.665,20.666L85.021,31.66l-20.68-20.679
		L56.984,18.338z"/>
</g>
</svg>
