<?xml version="1.0" encoding="utf-8"?>
<!-- Generator: Adobe Illustrator 16.0.0, SVG Export Plug-In . SVG Version: 6.00 Build 0)  -->
<!DOCTYPE svg PUBLIC "-//W3C//DTD SVG 1.1//EN" "http://www.w3.org/Graphics/SVG/1.1/DTD/svg11.dtd">
<svg version="1.1" id="Layer_1" xmlns="http://www.w3.org/2000/svg" xmlns:xlink="http://www.w3.org/1999/xlink" x="0px" y="0px"
	 width="96px" height="96px" viewBox="0 0 96 96" enable-background="new 0 0 96 96" xml:space="preserve">
<g>
	<path d="M73.456,13.438c-1.414,0-2.785,0.172-4.107,0.474C65.057,6.308,56.909,1.172,47.556,1.172
		c-9.285,0-17.384,5.064-21.699,12.578c-1.076-0.195-2.181-0.312-3.313-0.312c-10.218,0-18.499,8.282-18.499,18.499
		c0,4.083,1.339,7.845,3.579,10.905h80.752c2.24-3.06,3.579-6.822,3.579-10.905C91.955,21.719,83.673,13.438,73.456,13.438z"/>
	<path d="M18.566,84.497c0.597,5.479,6.004,10.331,10.331,10.331h39.087c4.328,0,9.735-4.852,10.331-10.331l5.911-34.431H12.655
		L18.566,84.497z M60.484,58.687c0-1.601,1.297-2.898,2.897-2.898s2.898,1.297,2.898,2.898v27.521c0,1.601-1.298,2.898-2.898,2.898
		s-2.897-1.297-2.897-2.898V58.687z M45.371,58.687c0-1.601,1.298-2.898,2.898-2.898s2.898,1.297,2.898,2.898v27.521
		c0,1.601-1.298,2.898-2.898,2.898s-2.898-1.297-2.898-2.898V58.687z M30.602,58.687c0-1.601,1.298-2.898,2.898-2.898
		s2.898,1.297,2.898,2.898v27.521c0,1.601-1.298,2.898-2.898,2.898s-2.898-1.297-2.898-2.898V58.687z"/>
</g>
</svg>
