<?xml version="1.0" encoding="utf-8"?>
<!-- Generator: Adobe Illustrator 16.0.0, SVG Export Plug-In . SVG Version: 6.00 Build 0)  -->
<!DOCTYPE svg PUBLIC "-//W3C//DTD SVG 1.1//EN" "http://www.w3.org/Graphics/SVG/1.1/DTD/svg11.dtd">
<svg version="1.1" id="Layer_1" xmlns="http://www.w3.org/2000/svg" xmlns:xlink="http://www.w3.org/1999/xlink" x="0px" y="0px"
	 width="96px" height="96px" viewBox="0 0 96 96" enable-background="new 0 0 96 96" xml:space="preserve">
<path d="M48,5.19C24.357,5.19,5.19,24.357,5.19,48S24.357,90.81,48,90.81S90.81,71.643,90.81,48S71.643,5.19,48,5.19z
	 M29.202,78.567c-4.783-3.282-8.932-7.65-12.025-13.009c-3.095-5.359-4.803-11.135-5.254-16.919l24.614-0.548
	c0.299,1.788,0.896,3.554,1.857,5.217c0.96,1.663,2.19,3.064,3.59,4.218L29.202,78.567z M48,36.67c-1.92,0-3.749,0.365-5.447,1
	l-11.832-21.59c5.234-2.502,11.091-3.91,17.279-3.91s12.045,1.408,17.279,3.91L53.447,37.67C51.749,37.036,49.921,36.67,48,36.67z
	 M66.798,78.568L54.016,57.525c1.399-1.152,2.63-2.553,3.59-4.217c0.96-1.663,1.559-3.429,1.857-5.218l24.614,0.549
	c-0.451,5.783-2.159,11.56-5.254,16.919C75.729,70.918,71.581,75.285,66.798,78.568z"/>
</svg>
