<?xml version="1.0" encoding="utf-8"?>
<!-- Generator: Adobe Illustrator 16.0.0, SVG Export Plug-In . SVG Version: 6.00 Build 0)  -->
<!DOCTYPE svg PUBLIC "-//W3C//DTD SVG 1.1//EN" "http://www.w3.org/Graphics/SVG/1.1/DTD/svg11.dtd">
<svg version="1.1" id="Layer_1" xmlns="http://www.w3.org/2000/svg" xmlns:xlink="http://www.w3.org/1999/xlink" x="0px" y="0px"
	 width="96px" height="96px" viewBox="0 0 96 96" enable-background="new 0 0 96 96" xml:space="preserve">
<g>
	<path d="M1.008,88.545h43.714V7.455H1.008V88.545z M41.564,52.614c0,2.146-1.74,3.886-3.886,3.886s-3.886-1.739-3.886-3.886
		c0-2.146,1.74-3.886,3.886-3.886S41.564,50.469,41.564,52.614z M8.779,15.072H36.95v19.4H8.779V15.072z"/>
	<path d="M51.278,7.455v81.09h43.714V7.455H51.278z M58.321,56.5c-2.146,0-3.886-1.739-3.886-3.886c0-2.146,1.74-3.886,3.886-3.886
		s3.886,1.74,3.886,3.886C62.207,54.761,60.467,56.5,58.321,56.5z M87.221,34.473H59.05v-19.4h28.171V34.473z"/>
</g>
</svg>
