<?xml version="1.0" encoding="utf-8"?>
<!-- Generator: Adobe Illustrator 16.0.0, SVG Export Plug-In . SVG Version: 6.00 Build 0)  -->
<!DOCTYPE svg PUBLIC "-//W3C//DTD SVG 1.1//EN" "http://www.w3.org/Graphics/SVG/1.1/DTD/svg11.dtd">
<svg version="1.1" id="Layer_1" xmlns="http://www.w3.org/2000/svg" xmlns:xlink="http://www.w3.org/1999/xlink" x="0px" y="0px"
	 width="96px" height="96px" viewBox="0 0 96 96" enable-background="new 0 0 96 96" xml:space="preserve">
<g>
	<path d="M6.8,38.104h82.4c2.696,0,4.883-2.187,4.883-4.884c0-2.696-2.187-4.883-4.883-4.883H6.8c-2.696,0-4.883,2.187-4.883,4.883
		C1.917,35.917,4.104,38.104,6.8,38.104z"/>
	<path d="M89.2,78.688H6.8c-2.696,0-4.883,2.187-4.883,4.884c0,2.696,2.187,4.883,4.883,4.883h82.4c2.696,0,4.883-2.187,4.883-4.883
		C94.083,80.874,91.896,78.688,89.2,78.688z"/>
	<path d="M37.729,24.02l4.053-0.78c0.931-0.179,1.665-0.786,2.056-1.571c0.095,0.137,0.311,0.427,0.591,0.587
		c0.368,0.179,0.875,0.274,1.474,0.139c1.208-0.2,2.93-0.487,5.002-0.828c4.143-0.687,9.663-1.597,15.183-2.513
		c5.521-0.92,11.046-1.8,15.18-2.541c4.133-0.721,6.89-1.2,6.89-1.2c2.127-0.372,3.552-2.398,3.18-4.524
		c-0.369-2.127-2.396-3.553-4.522-3.184c-0.041,0.007-0.096,0.02-0.136,0.026c0,0-2.737,0.577-6.843,1.442
		c-4.112,0.847-9.572,2.079-15.038,3.271c-5.467,1.204-10.931,2.4-15.03,3.302c-2.052,0.451-3.76,0.825-4.954,1.095
		c-0.605,0.093-1.042,0.367-1.316,0.67c-0.2,0.253-0.291,0.604-0.33,0.763c-0.656-0.581-1.561-0.872-2.491-0.691l-4.053,0.777
		c-1.593,0.306-2.632,1.846-2.328,3.436C34.602,23.282,36.139,24.324,37.729,24.02z"/>
	<path d="M87.674,48.324v-5.543H8.326v5.543c1.798,0,3.254,1.459,3.254,3.257v13.631c0,1.798-1.456,3.255-3.254,3.255v5.543h79.348
		v-5.543c-1.797,0-3.254-1.457-3.254-3.255V51.581C84.42,49.783,85.877,48.324,87.674,48.324z M31.254,64.888
		c0,1.798-1.457,3.255-3.254,3.255s-3.254-1.457-3.254-3.255V51.257C24.746,49.459,26.203,48,28,48s3.254,1.459,3.254,3.257V64.888z
		 M51.254,64.888c0,1.798-1.457,3.255-3.254,3.255s-3.254-1.457-3.254-3.255V51.257C44.746,49.459,46.203,48,48,48
		s3.254,1.459,3.254,3.257V64.888z M71.254,64.888c0,1.798-1.457,3.255-3.254,3.255s-3.254-1.457-3.254-3.255V51.257
		C64.746,49.459,66.203,48,68,48s3.254,1.459,3.254,3.257V64.888z"/>
</g>
</svg>
