<?xml version="1.0" encoding="utf-8"?>
<!-- Generator: Adobe Illustrator 16.0.0, SVG Export Plug-In . SVG Version: 6.00 Build 0)  -->
<!DOCTYPE svg PUBLIC "-//W3C//DTD SVG 1.1//EN" "http://www.w3.org/Graphics/SVG/1.1/DTD/svg11.dtd">
<svg version="1.1" id="Layer_1" xmlns="http://www.w3.org/2000/svg" xmlns:xlink="http://www.w3.org/1999/xlink" x="0px" y="0px"
	 width="96px" height="96px" viewBox="0 0 96 96" enable-background="new 0 0 96 96" xml:space="preserve">
<path d="M72.27,24.769l0.162-0.305c1.471-2.757,2.863-5.365,3.953-7.483l2.648-5.079c1.764-3.383,0.447-7.566-2.935-9.33
	c-0.984-0.513-2.088-0.785-3.194-0.785c-2.587,0-4.938,1.425-6.123,3.692c-0.032,0.063-0.072,0.143-0.121,0.245l-2.46,5.153
	c-1.024,2.118-2.244,4.734-3.534,7.504c-3.974-1.368-8.231-2.124-12.666-2.124s-8.692,0.756-12.666,2.124
	c-1.292-2.77-2.51-5.386-3.526-7.488l-2.482-5.199l-0.096-0.19c-1.196-2.292-3.547-3.717-6.134-3.717
	c-1.106,0-2.212,0.272-3.196,0.785c-3.38,1.764-4.696,5.947-2.933,9.33l2.639,5.063c1.1,2.134,2.49,4.742,3.963,7.499l0.16,0.305
	C14.774,31.916,9.021,42.912,9.021,55.235c0,21.492,17.486,38.979,38.979,38.979s38.979-17.486,38.979-38.979
	C86.979,42.912,81.224,31.916,72.27,24.769z M62.185,23.408c1.945-4.149,3.861-8.315,5.357-11.411
	c1.481-3.102,2.469-5.17,2.469-5.17c0.015-0.029,0.034-0.071,0.05-0.102c0.818-1.567,2.754-2.177,4.322-1.358
	c1.569,0.817,2.179,2.753,1.36,4.321c0,0-1.06,2.032-2.648,5.08c-1.575,3.058-3.753,7.091-5.901,11.141
	c-2.153,4.047-4.308,8.093-5.923,11.129c-0.81,1.519-1.48,2.78-1.953,3.666c-0.209,0.457-0.523,0.739-0.822,0.89
	c-0.244,0.103-0.541,0.099-0.675,0.093c0.314,0.645,0.345,1.425-0.002,2.12l-1.511,3.023c-0.593,1.188-2.036,1.669-3.222,1.078
	c-1.187-0.594-1.67-2.036-1.076-3.225l1.511-3.023c0.347-0.695,0.985-1.14,1.69-1.276c-0.084-0.104-0.268-0.339-0.332-0.595
	c-0.061-0.329-0.022-0.75,0.219-1.19c0.42-0.91,1.027-2.208,1.755-3.767C58.307,31.716,60.247,27.564,62.185,23.408z M48,22.753
	c3.452,0,6.778,0.547,9.902,1.549l-2.877,6.164c-2.234-0.634-4.589-0.979-7.025-0.979s-4.793,0.345-7.027,0.979l-2.875-6.164
	C41.222,23.3,44.548,22.753,48,22.753z M22.907,14.769c-1.589-3.048-2.648-5.08-2.648-5.08c-0.82-1.568-0.211-3.504,1.358-4.321
	c1.568-0.818,3.504-0.209,4.324,1.358c0.016,0.03,0.035,0.072,0.05,0.102c0,0,0.985,2.068,2.467,5.17
	c1.496,3.096,3.412,7.262,5.357,11.411c1.939,4.156,3.88,8.308,5.332,11.424c0.729,1.559,1.335,2.856,1.757,3.767
	c0.239,0.44,0.277,0.861,0.217,1.19c-0.064,0.256-0.246,0.49-0.332,0.595c0.707,0.137,1.346,0.581,1.692,1.276l1.511,3.023
	c0.594,1.188,0.11,2.631-1.075,3.225c-1.188,0.591-2.632,0.109-3.225-1.078l-1.509-3.023c-0.347-0.695-0.318-1.476-0.002-2.12
	c-0.134,0.006-0.433,0.01-0.675-0.093c-0.301-0.15-0.615-0.433-0.822-0.89c-0.473-0.886-1.146-2.147-1.953-3.666
	c-1.617-3.036-3.77-7.082-5.923-11.129C26.658,21.859,24.482,17.826,22.907,14.769z M48,87.718
	c-17.909,0-32.482-14.573-32.482-32.482c0-9.834,4.4-18.654,11.327-24.618l3.256,6.118c-4.837,4.681-7.849,11.236-7.849,18.5
	c0,14.221,11.527,25.748,25.748,25.748s25.748-11.527,25.748-25.748c0-7.264-3.012-13.819-7.849-18.5l3.256-6.118
	c6.927,5.964,11.327,14.784,11.327,24.618C80.482,73.145,65.909,87.718,48,87.718z"/>
</svg>
