<?xml version="1.0" encoding="utf-8"?>
<!-- Generator: Adobe Illustrator 16.0.0, SVG Export Plug-In . SVG Version: 6.00 Build 0)  -->
<!DOCTYPE svg PUBLIC "-//W3C//DTD SVG 1.1//EN" "http://www.w3.org/Graphics/SVG/1.1/DTD/svg11.dtd">
<svg version="1.1" id="Layer_1" xmlns="http://www.w3.org/2000/svg" xmlns:xlink="http://www.w3.org/1999/xlink" x="0px" y="0px"
	 width="96px" height="96px" viewBox="0 0 96 96" enable-background="new 0 0 96 96" xml:space="preserve">
<g>
	<path d="M52.992,10.903c-17.375,0-31.512,14.136-31.512,31.512s14.137,31.512,31.512,31.512c17.375,0,31.512-14.136,31.512-31.512
		S70.367,10.903,52.992,10.903z M59.611,69.615c-0.488-0.898-0.671-1.835,0.286-2.411c1.018-0.613,2.199-0.854,3.201-1.52
		c1.604-1.066,2.614-3.726,1.268-5.37c-1.629-1.99-4.792-2.144-7.158-2.296c-3.746-0.242-6.681,0.112-9.523-2.905
		c-2.177-2.309-3.615-5.572-7.089-6.045c-2.327-0.316-4.232,0.642-5.096,2.837c-0.977,2.482-0.381,5.58,0.115,8.102
		c0.359,1.826,0.876,3.61,1.413,5.39c-4.581-3.192-8.164-7.714-10.189-13.004c1.948,0.117,3.822-0.4,5.641-1.342
		c2.467-1.276,3.989-5.011,6.916-5.042c1.484-0.015,2.031-0.461,2.463-1.931c0.54-1.833-0.728-3.494-1.552-5.037
		c-0.464-0.869-1.815-3.489,0.069-3.705c1.241-0.144,2.729,0.889,3.81,1.384c2.327,1.068,5.159,0.925,7.509,0.039
		c2.079-0.782,3.742-2.341,4.536-4.396c0.518-1.341,0.732-2.687,1.443-3.968c0.89-1.607,2.37-2.882,3.384-4.423
		c0.196-0.297-0.067-0.64-0.379-0.66c-4.639-0.319-6.323,4.895-9.17,7.538c-1.17,1.087-2.531,1.296-4.063,1.054
		c-1.001-0.158-0.221-0.599,0.011-1.212c0.729-1.922-2.809-2.785-4.438-3.167c0.932-1.337,2.947-2.088,4.23-2.926
		c0.566-0.368,1.861-1.335,1.223-2.17c-1.07-1.397-3.468-1.554-5.06-1.428c-3.233,0.253-6.147,2.259-8.901,0.409
		c4.935-4.348,11.404-6.994,18.483-6.994c9.444,0,17.803,4.705,22.877,11.888c-2.56,3.515-9.759,1.554-13.454,2.253
		c-1.744,0.33-3.831,1.652-4.375,3.443c-0.667,2.201,2.315,2.55,1.118,4.924c-1.038,2.057-4.056,1.98-5.087,4.242
		c-0.719,1.58-0.168,3.257,1.02,4.399c2.779,2.67,7.429,2.65,11.038,3.427c-1.094,3.036-1.056,6.367,2.672,7.249
		c2.994,0.708,6.468-0.253,9.352-1.559C74.539,62.066,67.77,67.631,59.611,69.615z"/>
	<path d="M55.202,87.742v-3.896c4.11-0.216,8.134-1.026,11.99-2.43l-1.948-5.348c-3.918,1.427-8.041,2.151-12.251,2.151
		c-19.743,0-35.806-16.063-35.806-35.806S33.249,6.609,52.992,6.609v-5.69c-22.88,0-41.496,18.615-41.496,41.496
		c0,21.438,16.343,39.132,37.224,41.276v4.051c-10.741,0.262-18.996,1.793-18.996,3.647c0,2.039,9.955,3.691,22.236,3.691
		s22.237-1.652,22.237-3.691C74.198,89.535,65.943,88.004,55.202,87.742z"/>
</g>
</svg>
