<?xml version="1.0" encoding="utf-8"?>
<!-- Generator: Adobe Illustrator 16.0.0, SVG Export Plug-In . SVG Version: 6.00 Build 0)  -->
<!DOCTYPE svg PUBLIC "-//W3C//DTD SVG 1.1//EN" "http://www.w3.org/Graphics/SVG/1.1/DTD/svg11.dtd">
<svg version="1.1" id="Layer_1" xmlns="http://www.w3.org/2000/svg" xmlns:xlink="http://www.w3.org/1999/xlink" x="0px" y="0px"
	 width="96px" height="96px" viewBox="0 0 96 96" enable-background="new 0 0 96 96" xml:space="preserve">
<g>
	<path d="M77.278,1.73H18.722c-3.144,0-5.7,2.557-5.7,5.7v81.14c0,3.143,2.557,5.7,5.7,5.7h58.557c3.144,0,5.7-2.557,5.7-5.7V7.43
		C82.979,4.287,80.422,1.73,77.278,1.73z M48,91.14c-1.646,0-2.979-1.334-2.979-2.979c0-1.646,1.334-2.98,2.979-2.98
		s2.979,1.334,2.979,2.98C50.979,89.806,49.646,91.14,48,91.14z M77.797,82.092c0,0.286-0.233,0.518-0.519,0.518H18.722
		c-0.285,0-0.519-0.232-0.519-0.518V7.43c0-0.286,0.233-0.518,0.519-0.518H62.5v15.75c0,0.462,0.376,0.838,0.838,0.838h14.459
		V82.092z M77.797,20.61L64.419,6.912h12.859c0.285,0,0.519,0.232,0.519,0.518V20.61z"/>
	<polygon points="56.916,18 27,18 27,22 56.916,22 57,22 57,18 	"/>
	<polygon points="56.916,28 27,28 27,32 56.916,32 57,32 57,28 	"/>
	<rect x="27" y="38" width="42" height="4"/>
	<polygon points="56.916,48 27,48 27,52 56.916,52 57,52 57,48 	"/>
	<polygon points="68.084,58 67.969,58 27,58 27,62 69,62 69,58 	"/>
	<rect x="27" y="68" width="21.834" height="4"/>
</g>
</svg>
