<?xml version="1.0" encoding="utf-8"?>
<!-- Generator: Adobe Illustrator 16.0.0, SVG Export Plug-In . SVG Version: 6.00 Build 0)  -->
<!DOCTYPE svg PUBLIC "-//W3C//DTD SVG 1.1//EN" "http://www.w3.org/Graphics/SVG/1.1/DTD/svg11.dtd">
<svg version="1.1" id="Layer_1" xmlns="http://www.w3.org/2000/svg" xmlns:xlink="http://www.w3.org/1999/xlink" x="0px" y="0px"
	 width="96px" height="96px" viewBox="0 0 96 96" enable-background="new 0 0 96 96" xml:space="preserve">
<g>
	<path d="M81.758,29.071l0.071-0.052L61.729,1.676l-0.062-0.077H14.15v92.803H81.85V29.123L81.758,29.071z M58.622,8.424
		l9.554,12.997l-12.236-6.892L58.622,8.424z M75.387,87.94H20.613V8.062h31.109l-4.053,9.227l5.1,2.872L75.387,32.9V87.94z"/>
	<path d="M37.673,25.207L37.673,25.207c0.002,0.001,0.006,0.001,0.008,0.001c0.001,0,0.004,0,0.006,0c0,0,0.001,0,0.003,0
		c0.001,0,0.001,0,0.001,0c0.002,0,0.006,0,0.006,0c0.004,0,0.006,0,0.009,0v-0.001c3.519,0.054,5.656-3.025,5.711-8.101
		c0.035-3.521-2.148-5.535-5.704-5.629v-0.002c-0.006,0-0.01,0-0.016,0c-0.002,0-0.005,0-0.007,0c-0.003,0-0.005,0-0.009,0
		c-0.005,0-0.009,0-0.014,0v0.002c-3.558,0.094-5.741,2.107-5.705,5.629C32.018,22.182,34.155,25.261,37.673,25.207z"/>
	<path d="M50.16,35.826l-4.401-7.36c-0.266-0.445-0.662-0.762-1.109-0.946l-3.017-1.389l-1.449-1.223l-2.492,2.478l-2.497-2.478
		l-1.448,1.223l-3.018,1.389c-0.447,0.184-0.843,0.5-1.108,0.946l-4.403,7.36c-0.216,0.361-0.324,0.766-0.326,1.172h25.598
		C50.484,36.592,50.376,36.187,50.16,35.826z"/>
	<rect x="25.195" y="44.167" width="45.609" height="6.167"/>
	<rect x="25.195" y="59.167" width="45.609" height="6.167"/>
	<rect x="25.195" y="74.167" width="45.609" height="6.167"/>
</g>
</svg>
