<?xml version="1.0" encoding="utf-8"?>
<!-- Generator: Adobe Illustrator 16.0.0, SVG Export Plug-In . SVG Version: 6.00 Build 0)  -->
<!DOCTYPE svg PUBLIC "-//W3C//DTD SVG 1.1//EN" "http://www.w3.org/Graphics/SVG/1.1/DTD/svg11.dtd">
<svg version="1.1" id="Layer_1" xmlns="http://www.w3.org/2000/svg" xmlns:xlink="http://www.w3.org/1999/xlink" x="0px" y="0px"
	 width="96px" height="96px" viewBox="0 0 96 96" enable-background="new 0 0 96 96" xml:space="preserve">
<g>
	<path d="M69.089,0.701l-4.495,5.99c16.431,12.328,19.768,35.722,7.44,52.15c-5.97,7.958-14.684,13.115-24.534,14.52
		c-9.853,1.406-19.658-1.11-27.615-7.081l-4.496,5.99c7.829,5.874,17.143,8.962,26.758,8.961c0.081,0,0.164-0.008,0.245-0.009v5.552
		H29.634v8.526h33.005v-8.526H49.881v-6.221c11.285-1.948,21.242-8.018,28.144-17.217C92.829,43.604,88.821,15.506,69.089,0.701z"/>
	<path d="M21.034,26.891c2.319,3.427,3.976,10.983,8.506,12.122c2.448,0.616,2.332,0.905,1.989-1.367
		c-0.179-1.184-0.428-2.403-0.481-3.602c-0.148-3.425-3.398-6.553-2.416-10.164c1.115-4.098,4.606-5.553,3.65-10.472
		c-0.536-2.747-1.177-5.391-1.482-8.085c-5.822,2.132-11.119,5.907-15.116,11.236c-1.208,1.608-2.236,3.294-3.11,5.029
		C15.946,22.087,18.914,23.756,21.034,26.891z"/>
	<path d="M22.314,63.042c14.667,11.004,35.477,8.037,46.482-6.63c0.882-1.176,1.664-2.394,2.368-3.641
		c-3.57-1.996-6.893-4.517-10.071-7.019c-3.857-3.037-9.01-7.153-9.574-12.435c-0.599-5.611,3.82-8.311,8.907-7.707
		c5.005,0.595,4.294-2.749,6.416-5.837c0.752-1.094,1.521-1.923,2.413-2.595c-1.929-2.699-4.296-5.153-7.09-7.25
		C54.441,4.133,45.013,2.217,36.21,3.841c0.367,4.736,2.01,9.325,1.675,14.17c-0.32,4.625-5.009,5.604-2.454,11.04
		c1.885,4.01,3.282,12.242-0.816,15.247c-4.747,3.479-11.808-2.568-13.93-6.428c-2.879-5.237-4.363-10.483-10.269-10.874
		C6.561,39.935,10.886,54.466,22.314,63.042z"/>
	<path d="M57.791,34.724c3.25,4.899,9.636,10.032,15.629,13.179c3.116-8.504,2.572-17.879-1.309-25.9
		c-2.227,2.363-2.165,6.817-5.517,8.285C63.876,31.479,54.731,30.108,57.791,34.724z"/>
</g>
</svg>
