<?xml version="1.0" encoding="utf-8"?>
<!-- Generator: Adobe Illustrator 16.0.0, SVG Export Plug-In . SVG Version: 6.00 Build 0)  -->
<!DOCTYPE svg PUBLIC "-//W3C//DTD SVG 1.1//EN" "http://www.w3.org/Graphics/SVG/1.1/DTD/svg11.dtd">
<svg version="1.1" id="Layer_1" xmlns="http://www.w3.org/2000/svg" xmlns:xlink="http://www.w3.org/1999/xlink" x="0px" y="0px"
	 width="96px" height="96px" viewBox="0 0 96 96" enable-background="new 0 0 96 96" xml:space="preserve">
<g>
	<path d="M81.758,29.071l0.071-0.052L61.729,1.676l-0.062-0.077H14.15v92.803H81.85V29.123L81.758,29.071z M58.622,8.424
		l9.554,12.997l-12.236-6.892L58.622,8.424z M75.387,87.94H20.613V8.062h31.109l-4.053,9.227l5.1,2.872L75.387,32.9V87.94z"/>
	<path d="M29.796,46.236c0,6.777,3.729,12.689,9.238,15.823l-6.582,18.335l6.208-3.107l2.813,6.346L48,65.455l6.526,18.179
		l2.813-6.346l6.208,3.107l-6.582-18.335c5.509-3.134,9.238-9.046,9.238-15.823c0-10.037-8.166-18.203-18.204-18.203
		S29.796,36.199,29.796,46.236z M60.727,46.236c0,7.017-5.709,12.725-12.727,12.725s-12.727-5.708-12.727-12.725
		c0-7.016,5.709-12.725,12.727-12.725S60.727,39.22,60.727,46.236z"/>
</g>
</svg>
