<?xml version="1.0" encoding="utf-8"?>
<!-- Generator: Adobe Illustrator 16.0.0, SVG Export Plug-In . SVG Version: 6.00 Build 0)  -->
<!DOCTYPE svg PUBLIC "-//W3C//DTD SVG 1.1//EN" "http://www.w3.org/Graphics/SVG/1.1/DTD/svg11.dtd">
<svg version="1.1" id="Layer_1" xmlns="http://www.w3.org/2000/svg" xmlns:xlink="http://www.w3.org/1999/xlink" x="0px" y="0px"
	 width="96px" height="96px" viewBox="0 0 96 96" enable-background="new 0 0 96 96" xml:space="preserve">
<g>
	<path d="M47.941,51.486v0.003c0.01,0,0.021-0.003,0.032-0.003c0.004,0,0.013,0.003,0.02,0.003c0.002,0,0.004,0,0.007,0
		s0.004,0,0.007,0c0.009,0,0.016-0.003,0.02-0.003c0.011,0,0.022,0.003,0.032,0.003v-0.003
		c12.644,0.191,20.326-10.875,20.523-29.116C68.712,9.714,60.864,2.477,48.082,2.14h-0.163c-12.783,0.337-20.63,7.574-20.501,20.23
		C27.615,40.611,35.297,51.678,47.941,51.486z"/>
	<path d="M92.827,89.648L77.005,63.197c-0.957-1.604-2.382-2.741-3.987-3.399l-10.843-4.994l-5.211-4.393l-8.952,8.902l-8.977-8.902
		l-5.211,4.393l-10.843,4.994c-1.605,0.658-3.03,1.795-3.987,3.399L3.173,89.648C2.399,90.948,2.01,92.4,2,93.86h92
		C93.99,92.4,93.601,90.948,92.827,89.648z M48,92.037l-5.25-21.824l5.25-5.25l5.25,5.25L48,92.037z M60.072,82.2l10.421-7.132
		l3.843,7.132H60.072z"/>
</g>
</svg>
