<?xml version="1.0" encoding="utf-8"?>
<!-- Generator: Adobe Illustrator 16.0.4, SVG Export Plug-In . SVG Version: 6.00 Build 0)  -->
<!DOCTYPE svg PUBLIC "-//W3C//DTD SVG 1.1//EN" "http://www.w3.org/Graphics/SVG/1.1/DTD/svg11.dtd">
<svg version="1.1" id="Layer_1" xmlns="http://www.w3.org/2000/svg" xmlns:xlink="http://www.w3.org/1999/xlink" x="0px" y="0px"
	 width="96px" height="96px" viewBox="0 0 96 96" enable-background="new 0 0 96 96" xml:space="preserve">
<path d="M79.818,34.299L61.258,15.738L73.278,3.717L91.84,22.278L79.818,34.299z M4.159,92.282l21.743-4.065L7.341,69.654
	L4.159,92.282z M91.953,74.992L74.992,91.954L48.58,65.541L29.792,84.329L11.23,65.768l18.788-18.789L4.047,21.008L21.008,4.047
	l25.971,25.971l10.212-10.213l18.562,18.562L65.541,48.58L91.953,74.992z M44.15,32.846L21.008,9.703L9.703,21.008l4.425,4.425
	l6.625-6.625l3.675,3.675l-6.625,6.625l3.862,3.862l3.359-3.359l3.675,3.676l-3.358,3.359l3.862,3.862l6.625-6.625l3.642,3.643
	L44.15,32.846z M74.992,86.297l11.306-11.304L62.714,51.409L51.408,62.714l0.408,0.409l3.359-3.359l3.676,3.676l-3.358,3.358
	l3.862,3.862l6.623-6.625l3.676,3.675l-6.625,6.625l3.863,3.862l3.358-3.359l3.675,3.676l-3.359,3.358L74.992,86.297z"/>
</svg>
