<?xml version="1.0" encoding="utf-8"?>
<!-- Generator: Adobe Illustrator 16.0.0, SVG Export Plug-In . SVG Version: 6.00 Build 0)  -->
<!DOCTYPE svg PUBLIC "-//W3C//DTD SVG 1.1//EN" "http://www.w3.org/Graphics/SVG/1.1/DTD/svg11.dtd">
<svg version="1.1" id="Layer_1" xmlns="http://www.w3.org/2000/svg" xmlns:xlink="http://www.w3.org/1999/xlink" x="0px" y="0px"
	 width="96px" height="96px" viewBox="0 0 96 96" enable-background="new 0 0 96 96" xml:space="preserve">
<path d="M78,12.994l3.667-6.969c0.391-0.738,0.362-1.627-0.067-2.34c-0.432-0.715-1.205-1.152-2.04-1.152H16.249
	c-1.313,0-2.38,1.066-2.38,2.383l0.057,88.551H25.36V21.104h-6.729V7.297h56.984l-2.408,4.578c-0.362,0.688-0.365,1.51-0.007,2.203
	l3.633,7.025H30.048v72.363h8.728h7.518h16.019h19.819V73.648v-16.02v-7.518V28.492v-7.588L78,12.994z M72.218,69.807l-6.604,5.805
	L55.588,64.207L45.563,75.611l-6.604-5.805l10.776-12.256l-10.776-12.26l6.604-5.803l10.024,11.402l10.025-11.402l6.604,5.803
	l-10.776,12.26L72.218,69.807z"/>
</svg>
