<?xml version="1.0" encoding="utf-8"?>
<!-- Generator: Adobe Illustrator 16.0.4, SVG Export Plug-In . SVG Version: 6.00 Build 0)  -->
<!DOCTYPE svg PUBLIC "-//W3C//DTD SVG 1.1//EN" "http://www.w3.org/Graphics/SVG/1.1/DTD/svg11.dtd">
<svg version="1.1" id="Layer_1" xmlns="http://www.w3.org/2000/svg" xmlns:xlink="http://www.w3.org/1999/xlink" x="0px" y="0px"
	 width="96px" height="96px" viewBox="0 0 96 96" enable-background="new 0 0 96 96" xml:space="preserve">
<path d="M70.605,50.182l10.873,9.938l-2.551,2.792l-10.874-9.938L70.605,50.182z M95.105,67.5v6.083h-2.944H3.839H0.895V67.5h2.937
	L3.781,22.416h88.356L92.159,67.5H95.105z M87.408,27.144H8.509V67.5h78.899V27.144z M22.464,52.221
	c-1.095,0.84-1.884,1.985-2.015,3.481c-0.516,5.899,5.803,4.233,9.363,3.433c1.626-0.365,0.937-2.857-0.687-2.492
	c-1.685,0.379-7.82,2.342-5.805-1.594c0.694-1.355,2.858-1.949,4.253-2.07c1.642-0.143,1.669-2.707,0-2.584
	c-1.743,0.127-3.732,0.072-5.029-1.265c-1.551-1.599,3.813-2.574,4.397-2.648c1.63-0.206,1.65-2.793,0-2.584
	c-2.675,0.338-7.548,1.336-7.169,5.03C19.941,50.574,21.052,51.605,22.464,52.221z M32.895,50.615
	c1.156,0.02,2.316-0.239,3.442-0.477c0.572-0.121,1.142-0.248,1.715-0.357c0.181-0.035,0.349-0.062,0.532-0.079
	c0.061-0.007,0.097-0.013,0.123-0.017c0.01,0.006,0.023,0.014,0.047,0.021c1.557,0.602,2.225-1.898,0.687-2.492
	c-0.862-0.333-2.039,0.059-2.894,0.239c-1.2,0.252-2.417,0.598-3.652,0.576C31.227,48.002,31.23,50.586,32.895,50.615z
	 M32.895,54.75c1.156,0.02,2.316-0.239,3.442-0.477c0.572-0.119,1.142-0.246,1.715-0.357c0.181-0.035,0.349-0.062,0.532-0.079
	c0.061-0.006,0.097-0.011,0.123-0.017c0.01,0.006,0.023,0.013,0.047,0.021c1.557,0.602,2.225-1.898,0.687-2.492
	c-0.862-0.332-2.039,0.06-2.894,0.239c-1.2,0.252-2.417,0.599-3.652,0.577C31.227,52.137,31.23,54.721,32.895,54.75z M47.022,52.338
	c-0.105-1.869,0.036-3.846,1.103-5.445c0.051-0.076,0.077-0.134,0.094-0.184c0.012,0.039,0.03,0.084,0.062,0.139
	c0.604,1.064,0.471,2.686,0.465,3.853c-0.008,1.439,2.215,1.785,2.538,0.344c0.25-1.115,0.336-2.25,0.491-3.381
	c0.074-0.538,0.201-1.058,0.369-1.574c0.096-0.25,0.236-0.473,0.42-0.668c0.299-0.337,0.556-0.254,0.623-0.273
	c0.305,0.825,0.172,2.149,0.25,2.917c0.096,0.952,0.231,1.991,0.826,2.771c0.994,1.31,3.241,0.022,2.231-1.304
	c-1.29-1.697,0.377-7.101-3.011-7.101c-1.9,0-2.908,0.985-3.5,2.334c-0.535-0.586-1.279-0.875-2.316-0.619
	c-3.018,0.746-3.362,5.833-3.229,8.192C44.531,53.995,47.116,54.004,47.022,52.338z M59.551,49.911
	c1.631,0.737,3.221-0.03,4.336-1.286c1.016-1.144-0.662-2.833-1.685-1.684c-0.281,0.316-0.65,0.702-1.001,0.834
	c-0.333,0.125-0.46,0.082-0.672-0.029c-0.567-0.297-0.959-1.073-1.172-1.807c-0.5-1.728,0.031-3.2,2.021-2.801
	c1.499,0.3,2.137-1.994,0.633-2.296c-1.753-0.352-3.412-0.071-4.506,1.44c-0.863,1.192-0.795,2.939-0.443,4.29
	C57.409,47.898,58.262,49.326,59.551,49.911z M63.7,35.248c0.338-0.286,0.661-0.517,1.036-0.734
	c0.015,0.389-0.156,0.831-0.319,1.139c-0.772,1.455-1.563,2.653-0.774,4.276c0.645,1.327,2.203,1.114,3.282,0.579
	c0.775-0.385,2.11-1.945,2.937-1.877c1.662,0.138,1.648-2.448,0-2.584c-1.338-0.111-2.553,1.106-3.565,1.812
	c-0.101,0.07-0.207,0.145-0.315,0.216c0.276-0.7,0.824-1.365,1.08-2.056c0.435-1.177,0.356-2.712-0.556-3.636
	c-1.413-1.431-3.489,0.072-4.631,1.038C60.6,34.498,62.436,36.317,63.7,35.248z"/>
</svg>
