<?xml version="1.0" encoding="utf-8"?>
<!-- Generator: Adobe Illustrator 16.0.0, SVG Export Plug-In . SVG Version: 6.00 Build 0)  -->
<!DOCTYPE svg PUBLIC "-//W3C//DTD SVG 1.1//EN" "http://www.w3.org/Graphics/SVG/1.1/DTD/svg11.dtd">
<svg version="1.1" id="Layer_1" xmlns="http://www.w3.org/2000/svg" xmlns:xlink="http://www.w3.org/1999/xlink" x="0px" y="0px"
	 width="96px" height="96px" viewBox="0 0 96 96" enable-background="new 0 0 96 96" xml:space="preserve">
<path d="M94.541,63.089c-1.009-5.872-4.383-11.597-7.186-16.755c-3.996-7.347-8.558-14.461-13.679-21.074
	c-3.451-4.453-7.728-10.363-13.318-12.277c-5.157-1.767-8.414,2.204-9.06,6.957c-0.571,4.184,5.824,5.99,6.399,1.765
	c0.146-1.057,0.884-2.563,0.296-2.547c1.25-0.034,3.106,2.004,3.928,2.754c4.271,3.891,7.694,8.755,10.948,13.49
	c2.646,3.853,5.682,8.17,8.375,12.706c-2.432-1.167-5.144-1.838-8.02-1.838c-7.603,0-14.131,4.571-17.011,11.11
	c-2.52-0.688-5.287-1.07-8.215-1.07s-5.695,0.383-8.215,1.07c-2.88-6.54-9.408-11.11-17.011-11.11c-2.832,0-5.504,0.651-7.906,1.784
	c2.458-4.096,5.169-8.006,7.538-11.576c3.272-4.931,6.822-9.725,11.005-13.927c1.269-1.273,2.774-2.749,4.512-3.344
	c-0.22,0.075,0.192,1.122,0.382,2.497c0.573,4.226,6.97,2.419,6.399-1.765c-0.63-4.626-3.519-8.31-8.547-7.133
	c-5.414,1.267-9.882,7.454-13.098,11.508c-5.202,6.555-9.711,13.658-13.815,20.941C6.187,50.681,2.53,56.859,1.459,63.089
	c-0.376,2.19,1.198,3.713,2.887,4.076c1.138,9.174,8.947,16.279,18.429,16.279c10.265,0,18.587-8.321,18.587-18.587
	c0-0.793-0.065-1.57-0.163-2.337c2.082-0.569,4.385-0.898,6.802-0.898s4.72,0.33,6.802,0.898c-0.098,0.768-0.163,1.544-0.163,2.337
	c0,10.266,8.322,18.587,18.587,18.587c9.481,0,17.291-7.105,18.429-16.279C93.343,66.803,94.917,65.28,94.541,63.089z"/>
</svg>
