<?xml version="1.0" encoding="utf-8"?>
<!-- Generator: Adobe Illustrator 16.0.0, SVG Export Plug-In . SVG Version: 6.00 Build 0)  -->
<!DOCTYPE svg PUBLIC "-//W3C//DTD SVG 1.1//EN" "http://www.w3.org/Graphics/SVG/1.1/DTD/svg11.dtd">
<svg version="1.1" id="Layer_1" xmlns="http://www.w3.org/2000/svg" xmlns:xlink="http://www.w3.org/1999/xlink" x="0px" y="0px"
	 width="96px" height="96px" viewBox="0 0 96 96" enable-background="new 0 0 96 96" xml:space="preserve">
<path d="M94.874,19.804C84.604-0.785,61.816-1.495,43.695,9.084c-17.522,10.229-30.541,30.254-27.94,50.784l-3.397,5.929
	l-0.29,0.548c-0.375,0.707-0.746,1.404-1.096,2.078C9.16,71.92,7.471,75.43,5.797,79.174c-0.338,0.776-1.674,3.989-2.79,6.674
	c-0.79,1.897-1.468,3.527-1.61,3.859l-0.463,1.131c-0.29,0.706-0.161,1.515,0.336,2.095c0.391,0.458,0.957,0.712,1.545,0.712
	c0.156,0,0.315-0.018,0.471-0.056l14.714-3.512c0.723-0.172,1.293-0.724,1.489-1.438l1.132-3.908
	c3.106-10.455,5.63-15.46,5.63-15.46c4.963,1.688,10.25,2.233,14.859-0.966c5.298-3.677,7.371-10.729,9.367-16.511
	c2.885-8.356,5.854-15.683,13.882-20.37c8.555-4.994,19.317-5.163,28.766-7.321C95.07,23.658,95.68,21.42,94.874,19.804z
	 M44.697,29.508c-0.339,0.375-1.555,1.746-1.555,1.746c-0.808,0.965-1.644,1.962-2.464,3.016c-2.185,2.866-3.893,5.307-5.357,7.651
	c-1.779,2.743-3.392,5.618-4.742,8.083c-1.402,2.607-2.769,5.326-4.057,8.08c-0.048,0.102-0.094,0.204-0.147,0.33l-6.013,14.439
	c-1.295,3.472-2.482,6.963-3.634,10.701l-0.84,2.846l-9.667,2.307c0.169-0.408,0.352-0.845,0.54-1.298
	c1.106-2.663,2.433-5.85,2.756-6.598c1.635-3.65,3.291-7.091,5.064-10.517c0.344-0.66,0.707-1.348,1.076-2.043l5.905-10.374
	l0.328-0.544c0.268-0.445,0.536-0.892,0.815-1.342c1.656-2.645,3.38-5.238,5.12-7.695c1.657-2.311,3.642-5.019,5.81-7.611
	c1.768-2.184,3.849-4.499,6.345-7.06c1.005-1.005,4.194-3.912,4.605-4.269c0.393-0.342,0.776-0.674,1.155-0.99
	C45.385,28.747,45.037,29.131,44.697,29.508z"/>
</svg>
