<?xml version="1.0" encoding="utf-8"?>
<!-- Generator: Adobe Illustrator 16.0.0, SVG Export Plug-In . SVG Version: 6.00 Build 0)  -->
<!DOCTYPE svg PUBLIC "-//W3C//DTD SVG 1.1//EN" "http://www.w3.org/Graphics/SVG/1.1/DTD/svg11.dtd">
<svg version="1.1" id="Layer_1" xmlns="http://www.w3.org/2000/svg" xmlns:xlink="http://www.w3.org/1999/xlink" x="0px" y="0px"
	 width="96px" height="96px" viewBox="0 0 96 96" enable-background="new 0 0 96 96" xml:space="preserve">
<path d="M88.999,2.596C74.728,0.1,64.777,5.746,64.361,5.987l-0.797,0.463l-4.548,7.139l-1.973-3.14l-3.227,2.109
	c-0.452,0.295-4.48,2.941-6.547,4.712l-0.696,0.597l-3.275,8.038l-2.415-2.396l-2.616,3.428
	C25.724,43.375,19.775,64.712,18.85,68.246L5.891,81.105L3.607,94.04l20.499-20.345C87.525,55.156,91.961,8.606,92.119,6.626
	l0.274-3.437L88.999,2.596z M27.849,64.572c2.286-7.021,6.833-19.042,13.913-29.522l4.263,4.231l6.85-16.811
	c0.555-0.433,1.223-0.92,1.898-1.399l4.197,6.681l9.934-15.589c1.915-0.898,7.414-3.065,15.028-2.563
	c0.007,0.001,0.014,0.001,0.021,0.002C81.667,19.869,71.399,49.625,27.849,64.572z"/>
</svg>
