<?xml version="1.0" encoding="utf-8"?>
<!-- Generator: Adobe Illustrator 16.0.0, SVG Export Plug-In . SVG Version: 6.00 Build 0)  -->
<!DOCTYPE svg PUBLIC "-//W3C//DTD SVG 1.1//EN" "http://www.w3.org/Graphics/SVG/1.1/DTD/svg11.dtd">
<svg version="1.1" id="Layer_1" xmlns="http://www.w3.org/2000/svg" xmlns:xlink="http://www.w3.org/1999/xlink" x="0px" y="0px"
	 width="96px" height="96px" viewBox="0 0 96 96" enable-background="new 0 0 96 96" xml:space="preserve">
<g>
	<path d="M65.917,39.961v-7l18.677-18.677L72.219,1.911L48,26.129L23.781,1.911L11.406,14.286l18.677,18.676v7
		c-7.35,5.48-12.118,14.239-12.118,24.091c0,16.562,13.474,30.036,30.035,30.036s30.035-13.474,30.035-30.036
		C78.035,54.201,73.267,45.442,65.917,39.961z M34.167,33.411h27.666v4.511H34.167V33.411z M48,86.561
		c-12.41,0-22.508-10.097-22.508-22.508S35.59,41.545,48,41.545s22.508,10.097,22.508,22.508S60.41,86.561,48,86.561z"/>
	<path d="M52.82,77.068c-0.505-0.317-0.836-0.724-0.994-1.221c-0.159-0.497-0.238-1.646-0.238-3.447V48.428h-0.713l-10.786,4.928
		l0.39,0.778c1.052-0.461,1.944-0.692,2.68-0.692c0.462,0,0.868,0.119,1.222,0.357c0.353,0.237,0.594,0.526,0.724,0.864
		c0.13,0.339,0.195,1.186,0.195,2.54v15.195c0,1.844-0.095,3.019-0.281,3.523c-0.188,0.504-0.549,0.901-1.081,1.189
		c-0.533,0.288-1.427,0.432-2.68,0.432h-0.778v0.8h15.433v-0.8h-0.67C54.131,77.543,53.324,77.385,52.82,77.068z"/>
</g>
</svg>
