<?xml version="1.0" encoding="utf-8"?>
<!-- Generator: Adobe Illustrator 16.0.0, SVG Export Plug-In . SVG Version: 6.00 Build 0)  -->
<!DOCTYPE svg PUBLIC "-//W3C//DTD SVG 1.1//EN" "http://www.w3.org/Graphics/SVG/1.1/DTD/svg11.dtd">
<svg version="1.1" id="Layer_1" xmlns="http://www.w3.org/2000/svg" xmlns:xlink="http://www.w3.org/1999/xlink" x="0px" y="0px"
	 width="96px" height="96px" viewBox="0 0 96 96" enable-background="new 0 0 96 96" xml:space="preserve">
<path d="M70.34,15.971l-0.298-0.299L6.287,79.426c-0.955,0.232-1.865,0.701-2.611,1.449c-2.164,2.164-2.164,5.67,0,7.834
	l3.615,3.615c2.164,2.164,5.67,2.164,7.834,0c0.747-0.746,1.217-1.658,1.448-2.615l63.754-63.752l-0.299-0.299L93.945,9.043
	l-6.991-6.99L70.34,15.971z M22.265,73.734c1.612,1.615,1.612,4.23,0,5.844c-1.613,1.613-4.229,1.611-5.843,0
	c-1.614-1.613-1.614-4.229,0-5.844C18.036,72.121,20.651,72.121,22.265,73.734z M37.056,58.943c1.613,1.613,1.614,4.229,0,5.842
	c-1.613,1.613-4.229,1.613-5.842,0s-1.615-4.229-0.001-5.844C32.827,57.328,35.442,57.33,37.056,58.943z M52.423,43.578
	c1.612,1.611,1.613,4.227,0,5.84c-1.614,1.615-4.229,1.613-5.842,0c-1.614-1.613-1.615-4.229-0.002-5.842
	C48.193,41.963,50.809,41.963,52.423,43.578z"/>
</svg>
