<?xml version="1.0" encoding="utf-8"?>
<!-- Generator: Adobe Illustrator 16.0.4, SVG Export Plug-In . SVG Version: 6.00 Build 0)  -->
<!DOCTYPE svg PUBLIC "-//W3C//DTD SVG 1.1//EN" "http://www.w3.org/Graphics/SVG/1.1/DTD/svg11.dtd">
<svg version="1.1" id="Layer_1" xmlns="http://www.w3.org/2000/svg" xmlns:xlink="http://www.w3.org/1999/xlink" x="0px" y="0px"
	 width="96px" height="96px" viewBox="0 0 96 96" enable-background="new 0 0 96 96" xml:space="preserve">
<path d="M76.32,20.626H19.679c-7.681,0-13.929,6.249-13.929,13.929v26.89c0,7.68,6.248,13.929,13.929,13.929h56.643
	c7.681,0,13.929-6.249,13.929-13.929v-26.89C90.25,26.875,84.002,20.626,76.32,20.626z M80.966,61.445L80.966,61.445
	c-0.001,2.56-2.085,4.643-4.646,4.643H19.679c-2.56,0-4.643-2.083-4.643-4.643v-26.89c0-2.56,2.083-4.643,4.643-4.643h56.643
	c2.56,0,4.644,2.083,4.644,4.643V61.445z M26.193,34.073h17.66v11.406H22.619v-7.831C22.619,35.677,24.223,34.073,26.193,34.073z
	 M73.381,37.648v7.831H52.146V34.073h17.66C71.777,34.073,73.381,35.677,73.381,37.648z M52.146,50.521H73.38v7.83
	c0,1.972-1.603,3.575-3.573,3.575h-17.66V50.521z M22.619,50.521h21.234v11.405h-17.66c-1.97,0-3.574-1.604-3.574-3.575V50.521z
	 M30.079,16.9L17.37,4.956l3.179-3.382l12.708,11.944L30.079,16.9z M65.918,16.897l-3.178-3.383L75.45,1.573l3.179,3.383
	L65.918,16.897z M30.081,79.104l3.178,3.383l-12.71,11.941l-3.178-3.384L30.081,79.104z M65.922,79.096L78.631,91.04l-3.18,3.383
	L62.742,82.479L65.922,79.096z M50.322,16.112h-4.643V1.371h4.643V16.112z M45.679,79.889h4.643V94.63h-4.643V79.889z"/>
</svg>
