<?xml version="1.0" encoding="utf-8"?>
<!-- Generator: Adobe Illustrator 16.0.0, SVG Export Plug-In . SVG Version: 6.00 Build 0)  -->
<!DOCTYPE svg PUBLIC "-//W3C//DTD SVG 1.1//EN" "http://www.w3.org/Graphics/SVG/1.1/DTD/svg11.dtd">
<svg version="1.1" id="Layer_1" xmlns="http://www.w3.org/2000/svg" xmlns:xlink="http://www.w3.org/1999/xlink" x="0px" y="0px"
	 width="96px" height="96px" viewBox="0 0 96 96" enable-background="new 0 0 96 96" xml:space="preserve">
<path d="M28.673,16.938l-10.015-4.279L47.995,0.301V0.296L48,0.298l0.005-0.002v0.005l29.337,12.357l-10.016,4.279l-0.024,13.638
	c-13.493-1.724-19.297-10.124-19.297-10.124h-0.011c0,0-5.804,8.4-19.297,10.124L28.673,16.938z M47.976,58.58
	c0.004,0,0.011,0.002,0.018,0.002c0.002,0,0.003,0,0.006,0s0.004,0,0.006,0c0.008,0,0.014-0.002,0.018-0.002
	c0.009,0,0.019,0.002,0.028,0.002V58.58c11.041,0.166,17.763-9.03,17.977-24.917c-12.569-2.033-18.023-9.264-18.023-9.264h-0.011
	c0,0-5.454,7.23-18.023,9.264c0.214,15.887,6.936,25.083,17.977,24.917v0.002C47.957,58.582,47.966,58.58,47.976,58.58z
	 M88.301,95.704H7.699c0.008-1.281,0.35-2.553,1.028-3.69L22.588,68.84c0.838-1.405,2.087-2.403,3.493-2.979l9.5-4.377l4.565-3.847
	l7.864,7.799l7.843-7.799l4.565,3.847l9.5,4.377c1.406,0.575,2.655,1.573,3.493,2.979l13.861,23.174
	C87.951,93.151,88.293,94.423,88.301,95.704z M52.6,74.985L48,70.385l-4.6,4.601l4.6,19.12L52.6,74.985z"/>
</svg>
