<?xml version="1.0" encoding="utf-8"?>
<!-- Generator: Adobe Illustrator 16.0.0, SVG Export Plug-In . SVG Version: 6.00 Build 0)  -->
<!DOCTYPE svg PUBLIC "-//W3C//DTD SVG 1.1//EN" "http://www.w3.org/Graphics/SVG/1.1/DTD/svg11.dtd">
<svg version="1.1" id="Layer_1" xmlns="http://www.w3.org/2000/svg" xmlns:xlink="http://www.w3.org/1999/xlink" x="0px" y="0px"
	 width="96px" height="96px" viewBox="0 0 96 96" enable-background="new 0 0 96 96" xml:space="preserve">
<path d="M95.373,39.427L48,19.127L0.627,39.361l16.384,7.004c0,0,0.033,22.312,0.076,22.306c1.319,6.448,20.252,8.202,31.605,8.202
	c1.278,0,30.548-0.101,32.042-8.206c0.062,0.01,0.022-22.99,0.022-22.99L95.373,39.427z M48.693,72.727
	c-16.868,0-26.763-3.148-27.541-4.78H21.15c8.569-1.653,27.479-6.048,27.479-12.628c-0.185,6.41,19.251,10.909,28.009,12.609
	C75.572,69.687,65.547,72.727,48.693,72.727z M76.663,68.018c0-0.042,0.009-0.055,0.013-0.08c0.148,0.027,0.286,0.054,0.424,0.08
	H76.663z"/>
</svg>
