<?xml version="1.0" encoding="utf-8"?>
<!-- Generator: Adobe Illustrator 16.0.0, SVG Export Plug-In . SVG Version: 6.00 Build 0)  -->
<!DOCTYPE svg PUBLIC "-//W3C//DTD SVG 1.1//EN" "http://www.w3.org/Graphics/SVG/1.1/DTD/svg11.dtd">
<svg version="1.1" id="Layer_1" xmlns="http://www.w3.org/2000/svg" xmlns:xlink="http://www.w3.org/1999/xlink" x="0px" y="0px"
	 width="96px" height="96px" viewBox="0 0 96 96" enable-background="new 0 0 96 96" xml:space="preserve">
<g>
	<path d="M72.128,51.682l22.91-11.854L48,19.658L0.962,39.828l2.941,1.521v15.355h4.389V43.619l15.57,8.058c0,0,0,14.617,0,14.727
		c0,7.335,13.003,9.938,24.138,9.938s24.138-2.603,24.138-9.938C72.138,66.293,72.128,51.682,72.128,51.682z M48,71.954
		c-12.887,0-19.749-3.224-19.749-5.55c0-2.649,7.693-6.499,19.749-6.499s19.749,3.85,19.749,6.499
		C67.749,68.73,60.887,71.954,48,71.954z"/>
	<rect x="3.348" y="58.881" width="5.485" height="10.058"/>
</g>
</svg>
