<?xml version="1.0" encoding="utf-8"?>
<!-- Generator: Adobe Illustrator 16.0.0, SVG Export Plug-In . SVG Version: 6.00 Build 0)  -->
<!DOCTYPE svg PUBLIC "-//W3C//DTD SVG 1.1//EN" "http://www.w3.org/Graphics/SVG/1.1/DTD/svg11.dtd">
<svg version="1.1" id="Layer_1" xmlns="http://www.w3.org/2000/svg" xmlns:xlink="http://www.w3.org/1999/xlink" x="0px" y="0px"
	 width="96px" height="96px" viewBox="0 0 96 96" enable-background="new 0 0 96 96" xml:space="preserve">
<path d="M93.064,21.519L77.14,5.594c-2.795-2.795-7.328-2.796-10.123,0l-52.386,50.36l-1.4,5.179l-0.515,0.515
	c-2.796,2.796-2.796,7.328,0,10.124l0.928,0.928l-3.622,3.622l1.309,1.309L1.259,87.701c-0.377,0.376-0.513,0.93-0.354,1.438
	c0.069,0.227,0.192,0.426,0.354,0.586c0.202,0.202,0.465,0.345,0.757,0.396l12.988,2.359c0.463,0.084,0.937-0.064,1.268-0.396
	l4.756-4.756l1.31,1.31l3.622-3.623l0.928,0.929c2.795,2.794,7.327,2.796,10.123,0l0.515-0.514l5.179-1.401l50.361-52.386
	C95.86,28.846,95.858,24.313,93.064,21.519z M50.033,61.53L37.128,48.624l26.065-26.065L76.1,35.465L50.033,61.53z"/>
</svg>
