<?xml version="1.0" encoding="utf-8"?>
<!-- Generator: Adobe Illustrator 16.0.0, SVG Export Plug-In . SVG Version: 6.00 Build 0)  -->
<!DOCTYPE svg PUBLIC "-//W3C//DTD SVG 1.1//EN" "http://www.w3.org/Graphics/SVG/1.1/DTD/svg11.dtd">
<svg version="1.1" id="Layer_1" xmlns="http://www.w3.org/2000/svg" xmlns:xlink="http://www.w3.org/1999/xlink" x="0px" y="0px"
	 width="96px" height="96px" viewBox="0 0 96 96" enable-background="new 0 0 96 96" xml:space="preserve">
<path d="M94.864,8.126l-3.473-3.475L91.37,4.631l-0.021-0.021l-3.474-3.474c-0.758-0.759-1.987-0.758-2.745,0l-2.931,2.933
	l-2.325-2.323c-0.585-0.588-1.535-0.588-2.121-0.001c-0.586,0.586-0.586,1.534-0.001,2.119l2.325,2.326l-2.871,2.869l-2.322-2.324
	c-0.587-0.586-1.536-0.585-2.122,0c-0.585,0.585-0.585,1.535,0,2.121l2.324,2.324l-20.679,20.68
	c-7.334-3.126-16.156-1.716-22.131,4.256c-2.287,2.289-2.913,3.968-3.871,5.942c-0.927,1.916-1.301,3.225-3.565,5.484
	c-1.669,1.667-3.692,1.888-6.57,2.676c-3.442,0.941-7.345,2.008-10.741,5.405c-9.14,9.139-9.278,23.915-0.428,33.234l-0.002,0.002
	c0.007,0.007,0.015,0.014,0.022,0.02c0.006,0.008,0.013,0.017,0.02,0.022l0.002-0.002c9.319,8.849,24.095,8.712,33.235-0.428
	c3.396-3.397,4.463-7.299,5.405-10.742c0.789-2.877,1.009-4.9,2.675-6.569c2.261-2.265,3.568-2.638,5.484-3.565
	c1.974-0.958,3.653-1.584,5.941-3.871c5.973-5.975,7.383-14.796,4.257-22.131L84.82,20.914l2.325,2.324
	c0.586,0.586,1.537,0.586,2.121,0c0.586-0.586,0.586-1.535,0-2.121l-2.324-2.323l2.87-2.871l2.325,2.325
	c0.585,0.585,1.534,0.585,2.12-0.001c0.587-0.586,0.586-1.535,0-2.121l-2.324-2.324l2.933-2.932
	C95.622,10.112,95.623,8.883,94.864,8.126z M44.285,59.747c-2.226,0-4.242-0.874-5.744-2.288c-1.415-1.501-2.288-3.519-2.288-5.744
	c0-4.633,3.756-8.387,8.388-8.388c2.226,0,4.243,0.872,5.744,2.288c1.415,1.501,2.287,3.519,2.288,5.744
	C52.672,55.992,48.917,59.747,44.285,59.747z"/>
</svg>
