<?xml version="1.0" encoding="utf-8"?>
<!-- Generator: Adobe Illustrator 16.0.0, SVG Export Plug-In . SVG Version: 6.00 Build 0)  -->
<!DOCTYPE svg PUBLIC "-//W3C//DTD SVG 1.1//EN" "http://www.w3.org/Graphics/SVG/1.1/DTD/svg11.dtd">
<svg version="1.1" id="Layer_1" xmlns="http://www.w3.org/2000/svg" xmlns:xlink="http://www.w3.org/1999/xlink" x="0px" y="0px"
	 width="96px" height="96px" viewBox="0 0 96 96" enable-background="new 0 0 96 96" xml:space="preserve">
<g>
	<path d="M92.159,67.5l-0.023-45.084H3.781L3.832,67.5H0.895v6.083h2.944h88.322h2.944V67.5H92.159z M87.408,67.5H8.509V27.144
		h78.899V67.5z"/>
	<rect x="70.25" y="63" width="13.75" height="3"/>
	<path d="M33.842,57.069c0.883,2.07,3.896,0.285,3.021-1.767c-0.719-1.683-1.531-3.574-2.297-5.555
		c2.359-0.644,4.594-0.652,7.037-0.715c0.664,2.189,1.42,4.337,2.123,6.394c0.729,2.122,4.109,1.21,3.377-0.931
		c-1.74-5.074-3.916-10.806-3.883-16.218c0.014-2.257-3.486-2.256-3.5,0c-0.016,2.404,0.363,4.853,0.939,7.282
		c-2.484,0.064-4.832,0.165-7.279,0.888c-0.701-2.136-1.266-4.301-1.529-6.361c-0.279-2.208-3.783-2.235-3.5,0
		C29.098,45.951,31.533,51.661,33.842,57.069z"/>
	<path d="M49.455,52.622c1.322-0.835,1.943-1.272,2.027,0.454c0.072,1.521-0.387,3.132-1.191,4.415
		c-0.691,1.102,0.201,2.685,1.512,2.633c2.021-0.079,4.088-0.844,6.104-0.5c2.209,0.377,3.152-2.996,0.932-3.375
		c-1.475-0.252-2.854-0.096-4.248,0.087c0.482-1.734,0.57-3.605,0.092-5.253c-0.996-3.436-4.547-3.028-6.992-1.482
		C45.787,50.802,47.541,53.831,49.455,52.622z"/>
	<path d="M54.172,36.411c0.418,0.009,0.863,0.076,1.328,0.192c-0.123,0.114-0.236,0.25-0.33,0.428
		c-1.957,3.71-0.926,8.375,0.953,11.907c1.803,3.391,5.961,5.537,9.178,2.518c7.205-6.762-3.676-18.01-11.129-18.176
		C52.152,33.234,52.156,36.366,54.172,36.411z M57.873,38.61c0.18-0.339,0.225-0.671,0.178-0.974
		c3.984,2.176,7.904,6.835,5.99,10.527c-1.736,3.353-4.389,0.747-5.502-1.347C57.324,44.531,56.613,41.001,57.873,38.61z"/>
</g>
</svg>
