<?xml version="1.0" encoding="utf-8"?>
<!-- Generator: Adobe Illustrator 16.0.0, SVG Export Plug-In . SVG Version: 6.00 Build 0)  -->
<!DOCTYPE svg PUBLIC "-//W3C//DTD SVG 1.1//EN" "http://www.w3.org/Graphics/SVG/1.1/DTD/svg11.dtd">
<svg version="1.1" id="Layer_1" xmlns="http://www.w3.org/2000/svg" xmlns:xlink="http://www.w3.org/1999/xlink" x="0px" y="0px"
	 width="96px" height="96px" viewBox="0 0 96 96" enable-background="new 0 0 96 96" xml:space="preserve">
<path d="M85.771,47.614L75.407,1.694L53.781,1.699L65.03,51.608c1.299,7.426-1.239,12.366-3.608,15.209
	c-3.326,3.99-8.467,6.469-13.411,6.469c-5.392,0-10.516-2.269-13.71-6.068c-3.293-3.918-4.397-9.22-3.284-15.761L41.08,1.594H19.535
	l-9.251,45.831l-0.051,0.276c-2.208,12.664,0.598,24.421,7.901,33.108c7.158,8.514,18.327,13.597,29.876,13.597
	c11.213,0,22.29-5.258,29.633-14.064C85.107,71.389,87.993,59.766,85.771,47.614z M19.801,28.415l4.479-22.192h10.774l-4.479,22.192
	H19.801z M65.285,28.415L60.31,6.327l10.803-0.003l4.984,22.091H65.285z"/>
</svg>
