<?xml version="1.0" encoding="utf-8"?>
<!-- Generator: Adobe Illustrator 16.0.0, SVG Export Plug-In . SVG Version: 6.00 Build 0)  -->
<!DOCTYPE svg PUBLIC "-//W3C//DTD SVG 1.1//EN" "http://www.w3.org/Graphics/SVG/1.1/DTD/svg11.dtd">
<svg version="1.1" id="Layer_1" xmlns="http://www.w3.org/2000/svg" xmlns:xlink="http://www.w3.org/1999/xlink" x="0px" y="0px"
	 width="96px" height="96px" viewBox="0 0 96 96" enable-background="new 0 0 96 96" xml:space="preserve">
<path d="M95.467,24.532L47.103,3.251L0.533,24.467l16.136,6.887c0,0-0.025,21.932,0.018,21.926c0.358,1.753,2.957,3.149,5.44,4.258
	c-1.029,2.854-1.608,6.053-1.608,9.604c0,17.984,13.553,25.607,26.845,25.607c3.78,0,8.017-0.649,12.446-3.258l-2.997-5.669
	c-3.324,2.021-6.647,2.28-9.254,2.28c-9.512,0-19.676-4.819-19.676-18.961c0-12.901,10.164-19.742,20.002-19.742
	c11.99,0,20.266,4.952,20.266,19.22c0,4.889-1.368,9.906-3.649,10.492c-0.65,0.196-1.305-0.263-1.305-1.304V53.46l-6.123-0.848
	l-0.521,3.323c-1.433-2.736-5.474-5.019-9.056-5.019c-9.254,0-16.618,6.843-16.618,16.225c0,9.448,7.299,16.03,16.681,16.03
	c2.802,0,7.951-1.761,9.384-5.736c0,4.954,4.039,6.191,6.582,6.191c7.623,0,11.923-6.646,11.923-17.008
	c0-3.139-0.6-6.283-1.342-8.844c3.072-1.108,4.895-2.965,5.178-4.5c0.061,0.01,0.022-22.601,0.022-22.601L95.467,24.532z
	 M23.243,53.816c-1.829-0.627-2.947-1.254-3.26-1.77c1.391-0.269,3.055-0.61,4.865-1.022C24.256,51.902,23.719,52.831,23.243,53.816
	z M47.626,76.199c-6.125,0-9.123-4.495-9.123-9.121c0-4.628,3.128-9.253,9.187-9.253c6.061,0,8.927,4.038,8.927,8.927
	C56.616,71.897,53.554,76.199,47.626,76.199z M72.333,53.816c-0.476-0.985-1.013-1.914-1.605-2.792
	c1.811,0.412,3.475,0.754,4.865,1.022C75.28,52.563,74.162,53.189,72.333,53.816z"/>
</svg>
