<?xml version="1.0" encoding="utf-8"?>
<!-- Generator: Adobe Illustrator 16.0.0, SVG Export Plug-In . SVG Version: 6.00 Build 0)  -->
<!DOCTYPE svg PUBLIC "-//W3C//DTD SVG 1.1//EN" "http://www.w3.org/Graphics/SVG/1.1/DTD/svg11.dtd">
<svg version="1.1" id="Layer_1" xmlns="http://www.w3.org/2000/svg" xmlns:xlink="http://www.w3.org/1999/xlink" x="0px" y="0px"
	 width="96px" height="96px" viewBox="0 0 96 96" enable-background="new 0 0 96 96" xml:space="preserve">
<g>
	<path d="M27.356,1.947c-0.005,0.023-0.013,0.034-0.013,0.076h0.414C27.628,1.997,27.498,1.972,27.356,1.947z"/>
</g>
<g>
	<path d="M8.932,65.134h78.137c4.013,0,7.265-2.846,7.265-6.357c0-3.511-3.252-6.356-7.265-6.356H8.932
		c-4.013,0-7.265,2.846-7.265,6.356C1.667,62.288,4.919,65.134,8.932,65.134z"/>
	<path d="M81.974,42.483c-3.068-1.088-5.968-2.118-7.995-2.118c-2.053,0-4.952,1.05-8.02,2.159
		c-1.599,0.576-4.572,1.653-5.301,1.653c-0.821,0-3.811-1.057-5.615-1.694c-3.069-1.088-5.969-2.118-7.995-2.118
		c-2.054,0-4.952,1.05-8.021,2.159c-1.599,0.576-4.572,1.653-5.301,1.653c-0.821,0-3.81-1.057-5.615-1.694
		c-3.068-1.088-5.968-2.118-7.995-2.118c-2.053,0-4.952,1.05-8.02,2.159c-1.599,0.576-4.602,1.448-5.301,1.653
		C4.953,44.719,3.9,45.313,3.9,46.712c0,1.397,1.298,2.536,2.896,2.536c1.878,0,4.488-0.946,7.529-2.046
		c1.829-0.66,4.891-1.767,5.791-1.767c0.894,0,3.966,1.086,5.828,1.747c3.129,1.105,5.831,2.065,7.782,2.065
		c1.878,0,4.488-0.946,7.529-2.046c1.829-0.66,4.892-1.767,5.792-1.767c0.894,0,3.966,1.086,5.827,1.747
		c3.129,1.105,5.832,2.065,7.783,2.065c1.877,0,4.488-0.946,7.529-2.046c1.828-0.66,4.891-1.767,5.791-1.767
		c0.894,0,3.966,1.086,5.828,1.747c3.129,1.105,5.831,2.065,7.782,2.065c1.598,0,2.896-1.139,2.896-2.536
		c0-1.398-1.078-2.04-2.896-2.534C86.796,43.962,83.779,43.121,81.974,42.483z"/>
	<path d="M64.226,11.129h-32.37c-16.382,0-29.662,11.622-29.662,25.959h91.694C93.888,22.751,80.607,11.129,64.226,11.129z"/>
	<path d="M10.544,84.785c5.587,0,68.899,0.193,74.703,0c5.805-0.194,8.641-9.969,8.641-16.011H2.193
		C2.193,74.816,4.957,84.785,10.544,84.785z"/>
</g>
</svg>
