<?xml version="1.0" encoding="utf-8"?>
<!-- Generator: Adobe Illustrator 16.0.0, SVG Export Plug-In . SVG Version: 6.00 Build 0)  -->
<!DOCTYPE svg PUBLIC "-//W3C//DTD SVG 1.1//EN" "http://www.w3.org/Graphics/SVG/1.1/DTD/svg11.dtd">
<svg version="1.1" id="Layer_1" xmlns="http://www.w3.org/2000/svg" xmlns:xlink="http://www.w3.org/1999/xlink" x="0px" y="0px"
	 width="96px" height="96px" viewBox="0 0 96 96" enable-background="new 0 0 96 96" xml:space="preserve">
<path d="M92.796,58.951l-6.433-37.622l0.597-0.076v-3.251H53.994v-2.146h-5.247h-1.494h-5.247v2.146H9.04v3.251l0.597,0.076
	L3.204,58.951H0.315c0,3.587,5.544,6.498,12.38,6.498c6.838,0,12.38-2.911,12.38-6.498h-2.888l-6.297-36.823l24.766,3.162v46.322
	h-8.051v3.895h-3.184v4.638h17.831h1.494h17.831v-4.638h-3.184v-3.895h-8.051V25.289l24.766-3.162l-6.297,36.823h-2.887
	c0,3.587,5.542,6.498,12.379,6.498c6.836,0,12.38-2.911,12.38-6.498H92.796z M19.61,58.951H5.778l6.38-37.299l1.099,0.14
	L19.61,58.951z M76.39,58.951l6.354-37.16l1.1-0.14l6.379,37.299H76.39z"/>
</svg>
