<?xml version="1.0" encoding="utf-8"?>
<!-- Generator: Adobe Illustrator 16.0.0, SVG Export Plug-In . SVG Version: 6.00 Build 0)  -->
<!DOCTYPE svg PUBLIC "-//W3C//DTD SVG 1.1//EN" "http://www.w3.org/Graphics/SVG/1.1/DTD/svg11.dtd">
<svg version="1.1" id="Layer_1" xmlns="http://www.w3.org/2000/svg" xmlns:xlink="http://www.w3.org/1999/xlink" x="0px" y="0px"
	 width="96px" height="96px" viewBox="0 0 96 96" enable-background="new 0 0 96 96" xml:space="preserve">
<path d="M92.94,62.121l-6.599-38.59l0.972-0.125v-3.34h-32.47h-1.142c0.64-1.023,1.016-2.229,1.016-3.523
	c0-3.682-2.985-6.668-6.667-6.668s-6.667,2.986-6.667,6.668c0,1.295,0.376,2.5,1.016,3.523h-0.877H8.655v3.34l1.011,0.078
	L3.061,62.121H0.094c0,3.686,5.692,6.674,12.714,6.674c7.022,0,12.714-2.988,12.714-6.674h-2.966l-6.467-37.816l25.434,3.246v47.574
	l6.477,11l6.845-11V27.551l25.059-3.199l-6.456,37.77h-2.968c0,3.686,5.692,6.674,12.714,6.674c7.022,0,12.714-2.988,12.714-6.674
	H92.94z M19.91,62.121H5.705l6.551-38.307l1.129,0.145L19.91,62.121z M76.09,62.121l6.519-38.115l1.145-0.146l6.542,38.262H76.09z"
	/>
</svg>
