<?xml version="1.0" encoding="utf-8"?>
<!-- Generator: Adobe Illustrator 16.0.0, SVG Export Plug-In . SVG Version: 6.00 Build 0)  -->
<!DOCTYPE svg PUBLIC "-//W3C//DTD SVG 1.1//EN" "http://www.w3.org/Graphics/SVG/1.1/DTD/svg11.dtd">
<svg version="1.1" id="Layer_1" xmlns="http://www.w3.org/2000/svg" xmlns:xlink="http://www.w3.org/1999/xlink" x="0px" y="0px"
	 width="96px" height="96px" viewBox="0 0 96 96" enable-background="new 0 0 96 96" xml:space="preserve">
<g>
	<path d="M60.609,35.387c0.978-2.336,1.687-5.203,1.687-8.604c0-10.924-7.315-23.222-7.315-23.222s-10.347,8.856-10.347,19.779
		c0,8.734,6.608,16.139,9.261,18.761c2.621,2.652,10.025,9.26,18.761,9.26c10.921,0,19.778-10.347,19.778-10.347
		S80.136,33.7,69.212,33.7C65.812,33.7,62.945,34.409,60.609,35.387z"/>
	<path d="M42.435,53.56c0.979-2.335,1.688-5.202,1.688-8.603c0-10.925-7.316-23.221-7.316-23.221S26.46,30.591,26.46,41.514
		c0,8.734,6.608,16.139,9.26,18.761c2.623,2.652,10.027,9.26,18.762,9.26c10.924,0,19.777-10.346,19.777-10.346
		s-12.296-7.316-23.222-7.316C47.639,51.873,44.771,52.583,42.435,53.56z"/>
	<path d="M24.063,71.933c0.977-2.335,1.688-5.202,1.688-8.603c-0.002-10.924-7.318-23.222-7.318-23.222S8.088,48.963,8.088,59.887
		c0,0.609,0.038,1.211,0.099,1.807c0.209,3.784,0.71,20.958-6.799,28.466l4.458,4.458c7.574-7.577,24.996-6.999,28.565-6.794
		c0.145,0.014,1.347,0.085,1.696,0.085c10.924,0,19.779-10.347,19.779-10.347s-12.296-7.315-23.222-7.315
		C29.264,70.246,26.398,70.956,24.063,71.933z"/>
	<path d="M87.918,23.875c8.007-8.007,6.599-22.396,6.599-22.396S80.128,0.07,72.12,8.077c-8.007,8.007-6.599,22.397-6.599,22.397
		S79.912,31.882,87.918,23.875z"/>
</g>
</svg>
