<?xml version="1.0" encoding="utf-8"?>
<!-- Generator: Adobe Illustrator 16.0.0, SVG Export Plug-In . SVG Version: 6.00 Build 0)  -->
<!DOCTYPE svg PUBLIC "-//W3C//DTD SVG 1.1//EN" "http://www.w3.org/Graphics/SVG/1.1/DTD/svg11.dtd">
<svg version="1.1" id="Layer_1" xmlns="http://www.w3.org/2000/svg" xmlns:xlink="http://www.w3.org/1999/xlink" x="0px" y="0px"
	 width="96px" height="96px" viewBox="0 0 96 96" enable-background="new 0 0 96 96" xml:space="preserve">
<path d="M80.884,4.142l-2.462-1.05c-7.395-3.153-16.041-0.821-22.787,5.253L37.077,0.432L25.949,26.528l8.667,3.695l-19.5,28.833
	l25.868,22.775c-2.136,0.69-3.918,1.626-5.197,2.729h-4.932v11.008h37.648V84.56h-4.931c-2.303-1.988-6.254-3.435-10.926-3.872
	L26.433,57.609l16.236-23.952l1.839,0.784c0.288,9.073,4.59,16.927,11.984,20.08l2.462,1.05L66.318,38.3
	c2.82-0.461,5.761-3.047,7.375-6.834c1.615-3.788,1.446-7.7-0.174-10.054L80.884,4.142z M56.246,48.277
	c-6.564-4.699-8.454-15.656-4.052-25.979C56.595,11.976,65.81,5.753,73.746,7.237L56.246,48.277z"/>
</svg>
