<?xml version="1.0" encoding="utf-8"?>
<!-- Generator: Adobe Illustrator 16.0.0, SVG Export Plug-In . SVG Version: 6.00 Build 0)  -->
<!DOCTYPE svg PUBLIC "-//W3C//DTD SVG 1.1//EN" "http://www.w3.org/Graphics/SVG/1.1/DTD/svg11.dtd">
<svg version="1.1" id="Layer_1" xmlns="http://www.w3.org/2000/svg" xmlns:xlink="http://www.w3.org/1999/xlink" x="0px" y="0px"
	 width="96px" height="96px" viewBox="0 0 96 96" enable-background="new 0 0 96 96" xml:space="preserve">
<path d="M87.954,37.515l-7.435-7.222l-5.183,5.183v-12.03L87.954,10.85L80.52,3.628l-5.183,5.183v-7.78H8.046v93.938h67.291V78.697
	l12.617-12.596l-7.435-7.222l-5.183,5.183V50.111L87.954,37.515z M59.767,18.052l4.892,5.049L80.546,7.234l3.748,3.641L64.6,30.533
	l-8.578-8.854L59.767,18.052z M48,81.815H17.624v-8.219H48V81.815z M48,51.049H17.624V42.83H48V51.049z M48,23.351H17.624v-8.218H48
	V23.351z M80.546,62.486l3.748,3.641L64.6,85.805l-8.578-8.854l3.744-3.628l4.892,5.049L80.546,62.486z M64.6,57.206l-8.578-8.854
	l3.744-3.627l4.892,5.049l15.887-15.875l3.748,3.641L64.6,57.206z"/>
</svg>
