<?xml version="1.0" encoding="utf-8"?>
<!-- Generator: Adobe Illustrator 16.0.0, SVG Export Plug-In . SVG Version: 6.00 Build 0)  -->
<!DOCTYPE svg PUBLIC "-//W3C//DTD SVG 1.1//EN" "http://www.w3.org/Graphics/SVG/1.1/DTD/svg11.dtd">
<svg version="1.1" id="Layer_1" xmlns="http://www.w3.org/2000/svg" xmlns:xlink="http://www.w3.org/1999/xlink" x="0px" y="0px"
	 width="96px" height="96px" viewBox="0 0 96 96" enable-background="new 0 0 96 96" xml:space="preserve">
<path d="M80,58.083c0-22.889-11.418-31.444-23.8-34.646c-0.863-3.733-4.208-6.527-8.2-6.527c-1.134,0-2.215,0.229-3.203,0.636h-2.25
	v-6.815h4.337V1.349H25.642v9.382h4.336v6.815h-4.336v43.015h3.011v4.514h15.222v-4.514h3.01V33.674
	c0.366,0.049,0.737,0.083,1.116,0.083c2.227,0,4.249-0.875,5.757-2.291c11.881,2.79,17.896,9.933,17.896,26.617
	c0,5.22-0.589,9.506-1.759,13.018H22.152v5.311h45.148c-2.027,2.946-4.768,5.058-8.198,6.557H16v11.683h64V82.968h-7.414
	C77.075,77.561,80,69.658,80,58.083z M48,29.738c-2.429,0-4.404-1.976-4.404-4.404s1.976-4.404,4.404-4.404s4.404,1.976,4.404,4.404
	S50.429,29.738,48,29.738z"/>
</svg>
