<?xml version="1.0" encoding="utf-8"?>
<!-- Generator: Adobe Illustrator 16.0.0, SVG Export Plug-In . SVG Version: 6.00 Build 0)  -->
<!DOCTYPE svg PUBLIC "-//W3C//DTD SVG 1.1//EN" "http://www.w3.org/Graphics/SVG/1.1/DTD/svg11.dtd">
<svg version="1.1" id="Layer_1" xmlns="http://www.w3.org/2000/svg" xmlns:xlink="http://www.w3.org/1999/xlink" x="0px" y="0px"
	 width="96px" height="96px" viewBox="0 0 96 96" enable-background="new 0 0 96 96" xml:space="preserve">
<g>
	<path d="M32.892,50.419v0.002c0.007,0,0.015-0.001,0.022-0.001c0.003,0,0.009,0.001,0.014,0.001c0.002,0,0.003,0,0.005,0
		s0.003,0,0.005,0c0.006,0,0.011-0.001,0.014-0.001c0.008,0,0.016,0.001,0.022,0.001v-0.002c8.776,0.134,14.109-7.548,14.246-20.21
		c0.09-8.785-5.357-13.808-14.23-14.044h-0.113c-8.873,0.236-14.32,5.259-14.23,14.044C18.782,42.871,24.115,50.553,32.892,50.419z"
		/>
	<path d="M53.066,58.548c-0.664-1.112-1.653-1.901-2.768-2.359l-7.526-3.466l-3.617-3.05l-6.214,6.181l-6.231-6.181l-3.617,3.05
		l-7.526,3.466c-1.114,0.458-2.104,1.247-2.768,2.359L1.816,76.91c-0.537,0.901-0.808,1.911-0.814,2.925h63.861
		c-0.007-1.014-0.277-2.023-0.814-2.925L53.066,58.548z"/>
	<path d="M68.961,55.879v0.002c0.006,0,0.012-0.001,0.019-0.001c0.002,0,0.007,0.001,0.011,0.001c0.002,0,0.002,0,0.004,0
		s0.002,0,0.004,0c0.005,0,0.009-0.001,0.012-0.001c0.006,0,0.013,0.001,0.018,0.001v-0.002c7.147,0.109,11.49-6.146,11.602-16.458
		c0.074-7.154-4.362-11.245-11.589-11.437h-0.092c-7.227,0.192-11.662,4.283-11.589,11.437
		C57.471,49.732,61.813,55.988,68.961,55.879z"/>
	<path d="M94.998,79.835c-0.006-0.826-0.226-1.648-0.663-2.382l-8.944-14.954c-0.541-0.906-1.346-1.548-2.254-1.921l-6.129-2.823
		l-2.946-2.483l-5.06,5.033l-5.075-5.033l-2.946,2.483l-3.77,1.736l9.805,16.393c0.709,1.19,1.088,2.551,1.098,3.938v0.014H94.998z"
		/>
</g>
</svg>
