<?xml version="1.0" encoding="utf-8"?>
<!-- Generator: Adobe Illustrator 16.0.0, SVG Export Plug-In . SVG Version: 6.00 Build 0)  -->
<!DOCTYPE svg PUBLIC "-//W3C//DTD SVG 1.1//EN" "http://www.w3.org/Graphics/SVG/1.1/DTD/svg11.dtd">
<svg version="1.1" id="Layer_1" xmlns="http://www.w3.org/2000/svg" xmlns:xlink="http://www.w3.org/1999/xlink" x="0px" y="0px"
	 width="96px" height="96px" viewBox="0 0 96 96" enable-background="new 0 0 96 96" xml:space="preserve">
<g>
	<path d="M47.94,51.542v0.003c0.01,0,0.021-0.001,0.033-0.001c0.004,0,0.013,0.001,0.02,0.001c0.003,0,0.004,0,0.007,0
		s0.004,0,0.007,0c0.008,0,0.016-0.001,0.02-0.001c0.011,0,0.022,0.001,0.033,0.001v-0.003c12.85,0.196,20.658-11.051,20.858-29.589
		C69.049,9.089,61.074,1.736,48.083,1.39h-0.166C34.926,1.736,26.951,9.089,27.082,21.952C27.282,40.491,35.09,51.737,47.94,51.542z
		"/>
	<path d="M93.558,90.328l-16.08-26.884c-0.972-1.629-2.42-2.784-4.052-3.455l-11.02-5.074l-5.296-4.465l-9.098,9.049l-9.124-9.049
		l-5.296,4.465l-11.02,5.074c-1.631,0.67-3.08,1.826-4.052,3.455L2.442,90.328c-0.786,1.32-1.183,2.798-1.192,4.282h93.5
		C94.74,93.126,94.344,91.647,93.558,90.328z M43.588,89.909l-8.349-8.618l3.645-3.531l4.762,4.915l16.726-16.729l3.618,3.619
		L43.588,89.909z"/>
</g>
</svg>
