<?xml version="1.0" encoding="utf-8"?>
<!-- Generator: Adobe Illustrator 16.0.0, SVG Export Plug-In . SVG Version: 6.00 Build 0)  -->
<!DOCTYPE svg PUBLIC "-//W3C//DTD SVG 1.1//EN" "http://www.w3.org/Graphics/SVG/1.1/DTD/svg11.dtd">
<svg version="1.1" id="Layer_1" xmlns="http://www.w3.org/2000/svg" xmlns:xlink="http://www.w3.org/1999/xlink" x="0px" y="0px"
	 width="96px" height="96px" viewBox="0 0 96 96" enable-background="new 0 0 96 96" xml:space="preserve">
<path d="M89.99,74.234V0.659L26.264,20.39v44.059c-0.9-0.128-1.816-0.212-2.762-0.212c-9.66,0-17.492,6.961-17.492,15.552
	c0,8.59,7.832,15.553,17.492,15.553s17.514-6.963,17.514-15.553c0-0.439,0.002-1.3,0.002-1.3V31.264L75.236,20.67v38.725
	c-0.885-0.124-1.787-0.206-2.711-0.206c-9.662,0-17.492,6.963-17.492,15.553c0,8.591,7.83,15.553,17.492,15.553
	c9.311,0,16.92-6.472,17.459-14.631L89.99,74.234z"/>
</svg>
