<?xml version="1.0" encoding="utf-8"?>
<!-- Generator: Adobe Illustrator 16.0.0, SVG Export Plug-In . SVG Version: 6.00 Build 0)  -->
<!DOCTYPE svg PUBLIC "-//W3C//DTD SVG 1.1//EN" "http://www.w3.org/Graphics/SVG/1.1/DTD/svg11.dtd">
<svg version="1.1" id="Layer_1" xmlns="http://www.w3.org/2000/svg" xmlns:xlink="http://www.w3.org/1999/xlink" x="0px" y="0px"
	 width="96px" height="96px" viewBox="0 0 96 96" enable-background="new 0 0 96 96" xml:space="preserve">
<g>
	<path d="M73.069,87.476H13.676v-3.235h1.918c1.844,0,3.344-1.5,3.344-3.344c0-1.844-1.5-3.344-3.344-3.344h-1.918V62.31h1.918
		c1.844,0,3.344-1.5,3.344-3.344c0-1.844-1.5-3.344-3.344-3.344h-1.918V40.379h1.918c1.844,0,3.344-1.5,3.344-3.344
		c0-1.844-1.5-3.344-3.344-3.344h-1.918V18.448h1.918c1.844,0,3.344-1.5,3.344-3.344c0-1.844-1.5-3.344-3.344-3.344h-1.918V8.524
		h59.394v28.722l4.337-4.336c0.795-0.795,1.75-1.371,2.791-1.707V4.686c0-1.816-1.472-3.29-3.29-3.29H9.838
		c-1.818,0-3.29,1.473-3.29,3.29v7.073H4.445c-1.845,0-3.345,1.5-3.345,3.344c0,1.844,1.5,3.344,3.345,3.344h2.103V33.69H4.445
		c-1.845,0-3.345,1.5-3.345,3.344c0,1.844,1.5,3.344,3.345,3.344h2.103v15.242H4.445c-1.845,0-3.345,1.5-3.345,3.344
		c0,1.844,1.5,3.344,3.345,3.344h2.103v15.243H4.445c-1.845,0-3.345,1.5-3.345,3.344c0,1.844,1.5,3.344,3.345,3.344h2.103v7.073
		c0,1.816,1.472,3.29,3.29,3.29h67.069c1.818,0,3.29-1.473,3.29-3.29V66.987l-7.128,7.132V87.476z"/>
	<polygon points="54.144,22.779 54.144,18.393 54.051,18.393 21.247,18.393 21.247,22.779 54.051,22.779 	"/>
	<polygon points="21.247,33.745 54.051,33.745 54.144,33.745 54.144,29.358 54.051,29.358 21.247,29.358 	"/>
	<polygon points="67.302,42.99 67.302,40.324 21.247,40.324 21.247,44.71 65.582,44.71 	"/>
	<polygon points="54.144,55.676 54.144,51.29 54.051,51.29 21.247,51.29 21.247,55.676 54.051,55.676 	"/>
	<polygon points="48.037,62.255 21.247,62.255 21.247,66.642 43.651,66.642 	"/>
	<rect x="21.247" y="73.221" width="18.358" height="4.386"/>
	<path d="M93.73,43.593l-8.53-8.53c-1.56-1.56-4.098-1.559-5.656,0l-8.667,8.667l-0.012-0.012L42.63,71.955h-0.009l0.001,14.217
		l14.218,0.001v-0.008l28.235-28.236l-0.012-0.012l8.667-8.667C95.289,47.691,95.29,45.153,93.73,43.593z M45.529,83.265
		l-0.001-7.897l7.897,7.897H45.529z M90.49,47.689l-7.827,7.827l-2.395-2.395L58.02,75.372c-1.172,1.171-3.071,1.171-4.243,0
		l-0.354-0.354c-1.172-1.171-1.171-3.071,0-4.243l22.249-22.249l-2.395-2.395l7.827-7.827c0.645-0.645,1.693-0.645,2.338-0.001
		l7.049,7.049C91.135,45.996,91.136,47.044,90.49,47.689z"/>
</g>
</svg>
