<?xml version="1.0" encoding="utf-8"?>
<!-- Generator: Adobe Illustrator 16.0.0, SVG Export Plug-In . SVG Version: 6.00 Build 0)  -->
<!DOCTYPE svg PUBLIC "-//W3C//DTD SVG 1.1//EN" "http://www.w3.org/Graphics/SVG/1.1/DTD/svg11.dtd">
<svg version="1.1" id="Layer_1" xmlns="http://www.w3.org/2000/svg" xmlns:xlink="http://www.w3.org/1999/xlink" x="0px" y="0px"
	 width="96px" height="96px" viewBox="0 0 96 96" enable-background="new 0 0 96 96" xml:space="preserve">
<path d="M94.375,33.454c-31.782-14.936-60.966-14.936-92.75,0c5.082,11.602,10.154,23.208,15.23,34.811
	c0.056,0.33,0.185,0.662,0.434,0.989c0.005,0.008,0.006,0.015,0.011,0.021c0.002,0,0.004,0,0.006-0.002
	c0.893,1.151,3.313,2.263,9.507,3.178c5.659,0.836,13.17,1.297,21.146,1.297c7.992,0,15.516-0.454,21.186-1.282
	c8.085-1.179,9.777-2.7,10.002-4.207C84.223,56.658,89.295,45.054,94.375,33.454z M37.258,39.517h7.35v-7.351h6.787v7.351h7.348
	v6.785h-7.348v7.351h-6.787v-7.351h-7.35V39.517z M47.958,70.637c-15.373,0-24.416-1.591-27.27-2.76
	c0.451-0.249,0.978-0.431,1.731-0.663c4.017-1.063,12.498-2.206,25.538-2.206c12.429,0,21.636,1.143,25.837,2.284
	c0.596,0.135,1.023,0.293,1.539,0.498C72.503,68.951,63.428,70.637,47.958,70.637z"/>
</svg>
