<?xml version="1.0" encoding="utf-8"?>
<!-- Generator: Adobe Illustrator 16.0.0, SVG Export Plug-In . SVG Version: 6.00 Build 0)  -->
<!DOCTYPE svg PUBLIC "-//W3C//DTD SVG 1.1//EN" "http://www.w3.org/Graphics/SVG/1.1/DTD/svg11.dtd">
<svg version="1.1" id="Layer_1" xmlns="http://www.w3.org/2000/svg" xmlns:xlink="http://www.w3.org/1999/xlink" x="0px" y="0px"
	 width="96px" height="96px" viewBox="0 0 96 96" enable-background="new 0 0 96 96" xml:space="preserve">
<path d="M88.757,1.157c-27.171,0-54.341,0-81.512,0c1.448,4.729,2.248,9.393,2.607,14.016c6.522,0,20.141,0,20.141,0l-19.912,7.209
	c-0.13,9.818-1.874,19.479-3.4,29.161l16.185-1.242l-16.974,6.46C4.108,69.236,3.246,81.803,7.245,94.843
	c27.171,0,54.341,0,81.512,0c-1.896-6.192-2.694-12.277-2.824-18.297H58.854l27.063-1.858c0.01-11.077,2.156-21.946,3.812-32.862
	c-10.197-0.471-22.379-1.039-24.294-1.162c-2.38-0.15,14.264-1.892,24.864-2.799C91.946,25.84,92.61,13.719,88.757,1.157z"/>
</svg>
