<?xml version="1.0" encoding="utf-8"?>
<!-- Generator: Adobe Illustrator 16.0.0, SVG Export Plug-In . SVG Version: 6.00 Build 0)  -->
<!DOCTYPE svg PUBLIC "-//W3C//DTD SVG 1.1//EN" "http://www.w3.org/Graphics/SVG/1.1/DTD/svg11.dtd">
<svg version="1.1" id="Layer_1" xmlns="http://www.w3.org/2000/svg" xmlns:xlink="http://www.w3.org/1999/xlink" x="0px" y="0px"
	 width="96px" height="96px" viewBox="0 0 96 96" enable-background="new 0 0 96 96" xml:space="preserve">
<g>
	<path d="M89.887,23.529c-6.56-2.452-22.458-8.154-28.394-8.154c-6.043,0-10.944,3.637-13.493,6.002
		c-2.549-2.366-7.45-6.002-13.493-6.002c-5.936,0-21.834,5.703-28.393,8.154c-2.667,0.996-4.459,3.579-4.459,6.426v43.811
		c0,2.246,1.102,4.352,2.947,5.634c1.83,1.27,4.223,1.571,6.308,0.793c10.269-3.825,21.243-7.18,23.486-7.18
		c1.496,0,3.922,1.775,5.011,2.984c1.854,2.094,4.945,2.861,7.569,1.866c0.356-0.136,0.699-0.299,1.023-0.489
		c0.325,0.189,0.668,0.354,1.026,0.489c2.616,0.995,5.722,0.219,7.55-1.848c1.105-1.228,3.531-3.003,5.027-3.003
		c2.243,0,13.218,3.355,23.485,7.18c0.77,0.287,1.575,0.432,2.396,0.432c1.405,0,2.758-0.424,3.914-1.226
		c1.845-1.282,2.946-3.388,2.946-5.634V29.955C94.345,27.107,92.553,24.525,89.887,23.529z M45,72.16
		c-0.05,0.033-0.096,0.072-0.151,0.094c-0.329,0.125-0.71,0.037-0.966-0.252c-0.184-0.204-4.548-4.988-9.486-4.988
		c-5.232,0-25.378,7.482-25.581,7.558c-0.262,0.099-0.561,0.06-0.79-0.1c-0.231-0.161-0.37-0.425-0.37-0.706V29.955
		c0-0.356,0.225-0.68,0.56-0.805c10.353-3.87,22.498-7.774,26.292-7.774c5.131,0,9.551,4.468,10.493,5.489V72.16z M88.345,73.765
		c0,0.281-0.139,0.545-0.369,0.706c-0.231,0.16-0.527,0.197-0.792,0.1c-0.202-0.076-20.348-7.558-25.58-7.558
		c-4.938,0-9.303,4.785-9.503,5.007c-0.232,0.262-0.624,0.358-0.946,0.234c-0.058-0.022-0.104-0.062-0.154-0.095V26.864
		c0.944-1.022,5.364-5.489,10.493-5.489c3.794,0,15.939,3.905,26.293,7.775c0.334,0.125,0.559,0.448,0.559,0.805V73.765z"/>
	<path d="M33.172,31.839l-21,6.5c-1.055,0.327-1.646,1.447-1.318,2.502c0.266,0.858,1.055,1.409,1.908,1.409
		c0.197,0,0.396-0.029,0.594-0.09l21-6.5c1.055-0.327,1.645-1.447,1.318-2.502C35.346,32.103,34.227,31.513,33.172,31.839z"/>
	<path d="M33.172,41.839l-21,6.5c-1.055,0.327-1.646,1.447-1.318,2.502c0.266,0.858,1.055,1.409,1.908,1.409
		c0.197,0,0.396-0.029,0.594-0.09l21-6.5c1.055-0.327,1.645-1.447,1.318-2.502C35.346,42.103,34.227,41.512,33.172,41.839z"/>
	<path d="M33.172,51.839l-21,6.5c-1.055,0.327-1.646,1.447-1.318,2.502c0.266,0.858,1.055,1.409,1.908,1.409
		c0.197,0,0.396-0.029,0.594-0.09l21-6.5c1.055-0.327,1.645-1.447,1.318-2.502C35.346,52.103,34.227,51.511,33.172,51.839z"/>
	<path d="M83.828,38.339l-21-6.5c-1.055-0.327-2.174,0.264-2.502,1.319c-0.326,1.055,0.264,2.175,1.318,2.502l21,6.5
		c0.197,0.061,0.396,0.09,0.594,0.09c0.854,0,1.643-0.551,1.908-1.409C85.475,39.786,84.883,38.666,83.828,38.339z"/>
	<path d="M83.828,48.339l-21-6.5c-1.055-0.327-2.174,0.264-2.502,1.319c-0.326,1.055,0.264,2.175,1.318,2.502l21,6.5
		c0.197,0.061,0.396,0.09,0.594,0.09c0.854,0,1.643-0.551,1.908-1.409C85.475,49.786,84.883,48.666,83.828,48.339z"/>
	<path d="M83.828,58.339l-21-6.5c-1.055-0.328-2.174,0.263-2.502,1.319c-0.326,1.055,0.264,2.175,1.318,2.502l21,6.5
		c0.197,0.061,0.396,0.09,0.594,0.09c0.854,0,1.643-0.551,1.908-1.409C85.475,59.786,84.883,58.666,83.828,58.339z"/>
</g>
</svg>
