<?xml version="1.0" encoding="utf-8"?>
<!-- Generator: Adobe Illustrator 16.0.0, SVG Export Plug-In . SVG Version: 6.00 Build 0)  -->
<!DOCTYPE svg PUBLIC "-//W3C//DTD SVG 1.1//EN" "http://www.w3.org/Graphics/SVG/1.1/DTD/svg11.dtd">
<svg version="1.1" id="Layer_1" xmlns="http://www.w3.org/2000/svg" xmlns:xlink="http://www.w3.org/1999/xlink" x="0px" y="0px"
	 width="96px" height="96px" viewBox="0 0 96 96" enable-background="new 0 0 96 96" xml:space="preserve">
<g>
	<path d="M38.017,25.011l-8.847,7.476c1.665,3.349,3.966,7.24,6.778,11.469l12.247-10.35C44.495,30.129,41.042,27.212,38.017,25.011
		z"/>
	<path d="M64.904,51.366c-4.683-5.542-9.36-10.583-13.765-14.926L38.251,47.331c3.545,5.068,7.737,10.52,12.42,16.062
		c17.064,20.193,34.083,33.871,38.013,30.55C92.615,90.622,81.968,71.559,64.904,51.366z"/>
	<path d="M22.39,11.695C16.516,13.702,7.795,1.56,7.795,1.56C0.382,24.971,27.189,30.108,27.189,30.108l8.479-7.167
		C32.376,10.943,28.263,9.688,22.39,11.695z"/>
</g>
</svg>
