<?xml version="1.0" encoding="utf-8"?>
<!-- Generator: Adobe Illustrator 16.0.0, SVG Export Plug-In . SVG Version: 6.00 Build 0)  -->
<!DOCTYPE svg PUBLIC "-//W3C//DTD SVG 1.1//EN" "http://www.w3.org/Graphics/SVG/1.1/DTD/svg11.dtd">
<svg version="1.1" id="Layer_1" xmlns="http://www.w3.org/2000/svg" xmlns:xlink="http://www.w3.org/1999/xlink" x="0px" y="0px"
	 width="96px" height="96px" viewBox="0 0 96 96" enable-background="new 0 0 96 96" xml:space="preserve">
<path d="M81.615,54.821c-2.567-0.899-6.874-2.053-8.738-4.038c-3.377-3.596-2.268-8.377-0.105-11.345
	c1.947-2.673,5.52-4.068,8.131-4.728c11.223-2.835,13.243-14.73,7.328-22.643C81.251,2.5,50.955-8.44,24.268,13.515
	C4.623,29.684,2.734,54.195,7.781,66.993c10.873,27.597,40.689,35.05,64.719,21.26c5.879-3.139,11.469-8.737,13.223-10.81
	C90.75,71.5,95.063,59.531,81.615,54.821z M27.676,19.854c3.561-3.563,9.34-3.563,12.906,0.002
	c3.563,3.563,3.563,9.338-0.004,12.902c-3.563,3.564-9.342,3.566-12.902,0.002C24.109,29.197,24.109,23.418,27.676,19.854z
	 M33.07,61.337c-4.436,4.438-11.627,4.438-16.064,0c-4.438-4.435-4.438-11.628,0.002-16.065c4.436-4.437,11.627-4.436,16.063,0.001
	C37.508,49.709,37.51,56.901,33.07,61.337z M61.127,80.692c-5.166,5.166-13.539,5.166-18.701,0.002
	c-5.164-5.164-5.164-13.534,0.002-18.7c5.162-5.164,13.533-5.162,18.695,0.002C66.287,67.161,66.287,75.528,61.127,80.692z
	 M67.578,24.465c-3.273,3.273-8.58,3.273-11.854,0c-3.273-3.274-3.273-8.58,0-11.853s8.58-3.273,11.854,0
	S70.852,21.191,67.578,24.465z"/>
</svg>
