<?xml version="1.0" encoding="utf-8"?>
<!-- Generator: Adobe Illustrator 16.0.0, SVG Export Plug-In . SVG Version: 6.00 Build 0)  -->
<!DOCTYPE svg PUBLIC "-//W3C//DTD SVG 1.1//EN" "http://www.w3.org/Graphics/SVG/1.1/DTD/svg11.dtd">
<svg version="1.1" id="Layer_1" xmlns="http://www.w3.org/2000/svg" xmlns:xlink="http://www.w3.org/1999/xlink" x="0px" y="0px"
	 width="96px" height="96px" viewBox="0 0 96 96" enable-background="new 0 0 96 96" xml:space="preserve">
<path d="M93.117,10.007l-8.426,7.138l-7.138-7.138h-0.952l-7.139,7.138l-7.137-7.138h-0.954l-7.137,7.138l-7.138-7.138h-0.953
	l-7.137,7.138l-7.139-7.138h-0.952l-7.139,7.138l-8.233-7.138h-2.408v35.705H0.666l12.363,40.251l0.021,0.031h82.283V10.007H93.117z
	 M13.137,69.865L8.875,51.772l4.262,0.019V69.865z M58.411,68.092H20.054v-7.306h38.357V68.092z M58.411,79.052H20.054v-7.306
	h38.357V79.052z M58.411,57.133H20.054v-7.306h38.357V57.133z M58.411,46.173H20.054v-7.306h38.357V46.173z M58.411,35.213H20.054
	v-7.306h38.357V35.213z M89.462,79.052H65.901v-7.306h23.561V79.052z M89.462,68.092H65.901v-7.306h23.561V68.092z M89.462,57.133
	H65.901V27.908h23.561V57.133z"/>
</svg>
