<?xml version="1.0" encoding="utf-8"?>
<!-- Generator: Adobe Illustrator 16.0.0, SVG Export Plug-In . SVG Version: 6.00 Build 0)  -->
<!DOCTYPE svg PUBLIC "-//W3C//DTD SVG 1.1//EN" "http://www.w3.org/Graphics/SVG/1.1/DTD/svg11.dtd">
<svg version="1.1" id="Layer_1" xmlns="http://www.w3.org/2000/svg" xmlns:xlink="http://www.w3.org/1999/xlink" x="0px" y="0px"
	 width="96px" height="96px" viewBox="0 0 96 96" enable-background="new 0 0 96 96" xml:space="preserve">
<g>
	<path d="M81.758,29.07l0.071-0.052l-20.1-27.343l-0.062-0.077H14.151v92.803h67.698V29.122L81.758,29.07z M58.622,8.423
		l9.554,12.997L55.94,14.528L58.622,8.423z M75.387,87.939H20.613V8.061h31.109l-4.052,9.227l5.099,2.872l22.618,12.739V87.939z"/>
	<path d="M30.877,47.021c0,7.853,7.715,14.217,17.233,14.217c0.278,0,0.544-0.035,0.818-0.045l7.841,7.174l3.414-11.213
		c3.18-2.579,5.16-6.163,5.16-10.133c0-7.852-7.715-14.217-17.233-14.217S30.877,39.169,30.877,47.021z M61.466,47.021
		c0,2.645-1.322,5.174-3.725,7.121l-0.921,0.747l-0.346,1.135l-1.623,5.332l-3.305-3.023l-1.172-1.072c0,0-2.207,0.1-2.263,0.101
		c-7.364,0-13.355-4.639-13.355-10.34s5.991-10.34,13.355-10.34S61.466,41.319,61.466,47.021z"/>
</g>
</svg>
