<?xml version="1.0" encoding="utf-8"?>
<!-- Generator: Adobe Illustrator 16.0.0, SVG Export Plug-In . SVG Version: 6.00 Build 0)  -->
<!DOCTYPE svg PUBLIC "-//W3C//DTD SVG 1.1//EN" "http://www.w3.org/Graphics/SVG/1.1/DTD/svg11.dtd">
<svg version="1.1" id="Layer_1" xmlns="http://www.w3.org/2000/svg" xmlns:xlink="http://www.w3.org/1999/xlink" x="0px" y="0px"
	 width="96px" height="96px" viewBox="0 0 96 96" enable-background="new 0 0 96 96" xml:space="preserve">
<g>
	<path d="M90.613,18.238L76.057,3.681c-2.662-2.661-6.994-2.66-9.654,0L3.406,66.639H3.391l0.002,24.262h24.264v-0.014
		l62.957-62.996C93.273,25.231,93.275,20.899,90.613,18.238z M8.355,85.942L8.352,72.464L21.83,85.942H8.355z M29.67,72.469
		c-2,2-5.242,2-7.242,0l-0.604-0.604c-2-2-1.998-5.241,0-7.241l34.76-34.759l7.844,7.844L29.67,72.469z M85.084,25.228L74.172,36.14
		L58.154,20.123L69.066,9.21c1.1-1.1,2.891-1.1,3.99-0.001L85.086,21.24C86.184,22.338,86.186,24.128,85.084,25.228z"/>
	<rect x="35.77" y="87.488" width="17.066" height="6.826"/>
	<rect x="69.9" y="87.488" width="17.066" height="6.826"/>
</g>
</svg>
