<?xml version="1.0" encoding="utf-8"?>
<!-- Generator: Adobe Illustrator 16.0.0, SVG Export Plug-In . SVG Version: 6.00 Build 0)  -->
<!DOCTYPE svg PUBLIC "-//W3C//DTD SVG 1.1//EN" "http://www.w3.org/Graphics/SVG/1.1/DTD/svg11.dtd">
<svg version="1.1" id="Layer_1" xmlns="http://www.w3.org/2000/svg" xmlns:xlink="http://www.w3.org/1999/xlink" x="0px" y="0px"
	 width="96px" height="96px" viewBox="0 0 96 96" enable-background="new 0 0 96 96" xml:space="preserve">
<g>
	<path d="M93.012,47.828l-7.586-7.739c-0.861-0.88-2.036-1.38-3.266-1.392c-1.256-0.021-2.415,0.464-3.292,1.326l-7.28,7.103v-3.369
		L52.994,33.284l4.076-9.279H23.005v66.599h48.583V75.362l21.358-20.976c0.879-0.861,1.379-2.036,1.392-3.266
		S93.873,48.706,93.012,47.828z M42.324,43.062h20.994v5.208H42.324V43.062z M42.324,56.793h19.385l-5.313,5.209H42.324V56.793z
		 M38.348,76.282h-6.915v-5.209h6.915V76.282z M38.348,62.064h-6.915v-5.207h6.915V62.064z M38.348,48.332h-6.915v-5.208h6.915
		V48.332z M45.382,73.582l-0.813,2.638h-2.245v-5.209h4.884l-0.641,0.627C46.017,72.177,45.61,72.846,45.382,73.582z M58.03,82.662
		l-10.998,3.152l3.371-10.931l24.848-24.361l7.637,7.792L58.03,82.662z M85.668,55.538l-7.584-7.741l4.619-4.527l7.586,7.739
		L85.668,55.538z"/>
	<polygon points="60.154,24.204 57.122,31.27 71.746,40.284 	"/>
	<path d="M31.652,14.675l4.075-9.278H1.662v66.599h17.22V20.395h22.923L31.652,14.675z M17.006,57.675H10.09v-5.208h6.916V57.675z
		 M17.006,43.458H10.09v-5.21h6.916V43.458z M17.006,29.724H10.09v-5.208h6.916V29.724z"/>
	<polygon points="49.479,20.395 38.813,5.597 35.78,12.661 48.324,20.395 	"/>
</g>
</svg>
