<?xml version="1.0" encoding="utf-8"?>
<!-- Generator: Adobe Illustrator 16.0.0, SVG Export Plug-In . SVG Version: 6.00 Build 0)  -->
<!DOCTYPE svg PUBLIC "-//W3C//DTD SVG 1.1//EN" "http://www.w3.org/Graphics/SVG/1.1/DTD/svg11.dtd">
<svg version="1.1" id="Layer_1" xmlns="http://www.w3.org/2000/svg" xmlns:xlink="http://www.w3.org/1999/xlink" x="0px" y="0px"
	 width="96px" height="96px" viewBox="0 0 96 96" enable-background="new 0 0 96 96" xml:space="preserve">
<g>
	<polygon points="46.973,70.537 48.123,77.865 51.315,70.537 49.447,68.367 	"/>
	<path d="M85.056,34.407V13.054c0-1.273-1.033-2.306-2.305-2.306H61.143c-0.969,0-1.834,0.607-2.167,1.518l-1.743,4.796H3.454
		c-0.611,0-1.198,0.243-1.629,0.676c-0.432,0.432-0.675,1.019-0.675,1.629l0.021,63.583c0,1.151,0.85,2.098,1.956,2.267
		l-0.006,0.019h0.187c0.056,0.004,0.11,0.018,0.167,0.018h0.001c0.057,0,0.111-0.014,0.167-0.018h76.802l14.404-50.827H85.056z
		 M28.873,78.349l7.143-9.688c0.543-0.735,1.271-1.258,2.049-1.562l5.3-2.291l2.674-2.02l3.562,3.863l4.728-3.828l1.847,1.916
		l4.837,2.339c0.721,0.298,1.324,0.827,1.671,1.582l4.443,9.688H28.873z M42.306,49.832c0.751-5.831,4.533-9.157,10.566-9.295
		c6.262-0.137,9.543,3.26,8.744,9.067c-1.109,8.079-5.668,13.489-11.447,13.601C44.219,63.313,41.227,58.224,42.306,49.832z
		 M80.446,34.407h-62.96L5.778,75.835L5.76,21.67h53.087c0.969,0,1.834-0.604,2.166-1.516l1.744-4.796h17.69V34.407z"/>
</g>
</svg>
