<?xml version="1.0" encoding="utf-8"?>
<!-- Generator: Adobe Illustrator 16.0.0, SVG Export Plug-In . SVG Version: 6.00 Build 0)  -->
<!DOCTYPE svg PUBLIC "-//W3C//DTD SVG 1.1//EN" "http://www.w3.org/Graphics/SVG/1.1/DTD/svg11.dtd">
<svg version="1.1" id="Layer_1" xmlns="http://www.w3.org/2000/svg" xmlns:xlink="http://www.w3.org/1999/xlink" x="0px" y="0px"
	 width="96px" height="96px" viewBox="0 0 96 96" enable-background="new 0 0 96 96" xml:space="preserve">
<g>
	<path d="M87.452,20.757l-4.486-0.004L76.267,9.915H41.252l-6.675,10.8l-1.28-0.001L8.548,20.739c-3.962,0-7.173,3.281-7.173,7.242
		v50.93c0,3.961,3.211,7.174,7.173,7.174h78.903c3.962,0,7.173-3.213,7.173-7.174v-50.93C94.625,24.021,91.414,20.757,87.452,20.757
		z M58.76,73.89c-12.281,0-22.237-9.955-22.237-22.236s9.956-22.236,22.237-22.236s22.236,9.955,22.236,22.236
		S71.041,73.89,58.76,73.89z"/>
	<path d="M24.739,18.171c0-2.506-2.032-4.535-4.537-4.535h-5.444c-2.505,0-4.536,2.029-4.536,4.535v0.605h14.517V18.171z"/>
	<path d="M58.76,39.423c-6.734,0-12.194,5.459-12.194,12.193s5.46,12.195,12.194,12.195s12.194-5.461,12.194-12.195
		S65.494,39.423,58.76,39.423z M58.76,51.616c-3.764,0-6.814-2.113-6.814-4.723s3.051-4.723,6.814-4.723s6.814,2.113,6.814,4.723
		S62.523,51.616,58.76,51.616z"/>
</g>
</svg>
