<?xml version="1.0" encoding="utf-8"?>
<!-- Generator: Adobe Illustrator 16.0.0, SVG Export Plug-In . SVG Version: 6.00 Build 0)  -->
<!DOCTYPE svg PUBLIC "-//W3C//DTD SVG 1.1//EN" "http://www.w3.org/Graphics/SVG/1.1/DTD/svg11.dtd">
<svg version="1.1" id="Layer_1" xmlns="http://www.w3.org/2000/svg" xmlns:xlink="http://www.w3.org/1999/xlink" x="0px" y="0px"
	 width="96px" height="96px" viewBox="0 0 96 96" enable-background="new 0 0 96 96" xml:space="preserve">
<path d="M88.237,22.097H65.985v-2.738c0-4.706-3.829-8.535-8.535-8.535H38.55c-4.706,0-8.535,3.829-8.535,8.535v2.738H7.763
	c-3.367,0-6.097,2.729-6.097,6.097V79.08c0,3.367,2.73,6.097,6.097,6.097h80.474c3.367,0,6.097-2.729,6.097-6.097V28.193
	C94.333,24.826,91.604,22.097,88.237,22.097z M34.893,19.358c0-2.018,1.641-3.658,3.658-3.658H57.45
	c2.017,0,3.658,1.641,3.658,3.658v2.738H34.893V19.358z"/>
</svg>
