<?xml version="1.0" encoding="utf-8"?>
<!-- Generator: Adobe Illustrator 16.0.0, SVG Export Plug-In . SVG Version: 6.00 Build 0)  -->
<!DOCTYPE svg PUBLIC "-//W3C//DTD SVG 1.1//EN" "http://www.w3.org/Graphics/SVG/1.1/DTD/svg11.dtd">
<svg version="1.1" id="Layer_1" xmlns="http://www.w3.org/2000/svg" xmlns:xlink="http://www.w3.org/1999/xlink" x="0px" y="0px"
	 width="96px" height="96px" viewBox="0 0 96 96" enable-background="new 0 0 96 96" xml:space="preserve">
<path d="M77.799,15.735h-11.02V1.363H29.221v14.373h-11.02c-9.026,0-16.368,7.342-16.368,16.368v46.166
	c0,9.026,7.342,16.368,16.368,16.368h59.598c9.026,0,16.368-7.342,16.368-16.368V32.104C94.167,23.078,86.825,15.735,77.799,15.735z
	 M36.141,8.283h23.719v6.93H36.141V8.283z M18.201,23.29h59.598c4.86,0,8.813,3.954,8.813,8.814v11.751H9.388V32.104
	C9.388,27.244,13.341,23.29,18.201,23.29z M77.799,87.083H18.201c-4.86,0-8.813-3.954-8.813-8.814v-26.86h12.329v6.453h10.703
	v-6.453h31.162v6.453h10.703v-6.453h12.329v26.86C86.612,83.129,82.659,87.083,77.799,87.083z"/>
</svg>
