<?xml version="1.0" encoding="utf-8"?>
<!-- Generator: Adobe Illustrator 16.0.0, SVG Export Plug-In . SVG Version: 6.00 Build 0)  -->
<!DOCTYPE svg PUBLIC "-//W3C//DTD SVG 1.1//EN" "http://www.w3.org/Graphics/SVG/1.1/DTD/svg11.dtd">
<svg version="1.1" id="Layer_1" xmlns="http://www.w3.org/2000/svg" xmlns:xlink="http://www.w3.org/1999/xlink" x="0px" y="0px"
	 width="96px" height="96px" viewBox="0 0 96 96" enable-background="new 0 0 96 96" xml:space="preserve">
<g>
	<path d="M47.941,51.486v0.003c0.01,0,0.021-0.003,0.032-0.003c0.004,0,0.013,0.003,0.02,0.003c0.002,0,0.004,0,0.007,0
		s0.004,0,0.007,0c0.009,0,0.016-0.003,0.02-0.003c0.011,0,0.022,0.003,0.032,0.003v-0.003
		c12.644,0.191,20.326-10.875,20.523-29.116C68.712,9.714,60.864,2.477,48.082,2.14h-0.163c-12.783,0.337-20.63,7.574-20.501,20.23
		C27.615,40.611,35.297,51.678,47.941,51.486z M30.771,27.929c-1.589-1.638-2.578-3.86-2.578-6.315c0-3.301,4.893-4.472,9.083-4.472
		c3.63,0,7.774,0.884,8.823,3.263h1.839h0.121h1.839c1.049-2.379,5.193-3.263,8.823-3.263c4.19,0,9.083,1.171,9.083,4.472
		c0,2.455-0.988,4.678-2.578,6.315l-1.989,1.517c-1.338,0.775-2.866,1.251-4.519,1.251c-4.594,0-8.364-3.444-8.96-7.877h-1.7h-0.121
		h-1.7c-0.597,4.433-4.367,7.877-8.96,7.877c-1.653,0-3.181-0.476-4.519-1.251L30.771,27.929z"/>
	<path d="M92.827,89.648L77.005,63.197c-0.957-1.604-2.382-2.741-3.987-3.399l-10.843-4.994l-5.211-4.393l-8.952,8.902l-8.977-8.902
		l-5.211,4.393l-10.843,4.994c-1.605,0.658-3.03,1.795-3.987,3.399L3.173,89.648C2.399,90.948,2.01,92.4,2,93.86h92
		C93.99,92.4,93.601,90.948,92.827,89.648z M48,92.037l-5.25-21.824l5.25-5.25l5.25,5.25L48,92.037z M60.072,82.2l10.421-7.132
		l3.843,7.132H60.072z"/>
</g>
</svg>
