<?xml version="1.0" encoding="utf-8"?>
<!-- Generator: Adobe Illustrator 16.0.0, SVG Export Plug-In . SVG Version: 6.00 Build 0)  -->
<!DOCTYPE svg PUBLIC "-//W3C//DTD SVG 1.1//EN" "http://www.w3.org/Graphics/SVG/1.1/DTD/svg11.dtd">
<svg version="1.1" id="Layer_1" xmlns="http://www.w3.org/2000/svg" xmlns:xlink="http://www.w3.org/1999/xlink" x="0px" y="0px"
	 width="96px" height="96px" viewBox="0 0 96 96" enable-background="new 0 0 96 96" xml:space="preserve">
<g>
	<path d="M26.572,37.711c0.199,0.342,0.495,0.586,0.826,0.742c-0.057,0.273-0.092,0.559-0.092,0.859
		c0,3.299,1.047,5.777,3.465,8.496c1.114,1.166,2.678,2.041,2.678,2.041c1.798,1.045,3.857,1.684,6.08,1.684
		c6.181,0,11.254-4.635,12.062-10.598h3.355c0.806,5.963,5.88,10.598,12.062,10.598c2.223,0,4.282-0.639,6.081-1.684
		c0,0,1.563-0.875,2.677-2.041c1.995-2.24,3.043-4.326,3.354-6.836c0.2-0.016,0.4-0.055,0.595-0.137
		c0.963-0.41,1.411-1.521,1.002-2.484c-0.921-2.17-9.069-21.289-11.125-24c-0.738-0.975-1.767-1.488-2.978-1.486
		c-3.425,0.047-6.943,4.83-7.333,5.375c-0.609,0.85-0.412,2.035,0.438,2.641c0.851,0.609,2.035,0.414,2.643-0.438
		c1.293-1.809,3.402-3.688,4.224-3.785c1.089,1.467,5.074,10.303,8.366,17.877c-2.311-0.871-5.233-1.24-7.944-1.24
		c-4.883,0-10.461,1.188-11.872,4.389H51.4c-1.411-3.201-6.988-4.389-11.872-4.389c-0.578,0-1.165,0.02-1.755,0.055l14.067-8.232
		c0.397,1.178,0.835,2.754,0.999,4.361c0.106,1.041,1.032,1.797,2.076,1.693c1.041-0.105,1.798-1.035,1.693-2.076
		c-0.39-3.854-2.021-7.387-2.092-7.535c-0.225-0.482-0.643-0.848-1.152-1.008c-0.51-0.158-1.062-0.096-1.521,0.174L27.25,35.119
		C26.347,35.648,26.043,36.809,26.572,37.711z M67.006,36.545c5.56,0,8.974,1.615,8.974,2.768c0,4.943-4.026,8.971-8.974,8.971
		c-4.949,0-8.974-4.027-8.974-8.971C58.032,38.154,61.446,36.545,67.006,36.545z M39.531,36.545c5.559,0,8.974,1.609,8.974,2.768
		c0,4.943-4.026,8.971-8.974,8.971c-4.948,0-8.975-4.027-8.975-8.971C30.556,38.16,33.971,36.545,39.531,36.545z"/>
	<path d="M95.123,62.787c-0.411-0.996-1.551-1.467-2.546-1.059L50.669,79.131c-1.896-4.037-2.494-8.668-0.162-14.164l41.019-15.094
		c0.714-0.264,1.208-0.916,1.269-1.676c0.06-0.756-0.325-1.48-0.987-1.854l-10.089-5.313l-1.194,3.496l5.696,2.877L49.726,61.141
		L10.513,39.256l14.841-5.322l14.834-9.375c-0.277-0.021-34.581,12.35-34.581,12.35L5.57,36.922
		c-3.667,2.24-7.621,10.912-2.124,20.582l46.14,25.631c0,0-0.013-0.033-0.019-0.045c0.002,0.004,0.005,0.01,0.007,0.012
		l44.522-17.801C95.059,64.922,95.533,63.783,95.123,62.787z"/>
</g>
</svg>
