<?xml version="1.0" encoding="utf-8"?>
<!-- Generator: Adobe Illustrator 16.0.0, SVG Export Plug-In . SVG Version: 6.00 Build 0)  -->
<!DOCTYPE svg PUBLIC "-//W3C//DTD SVG 1.1//EN" "http://www.w3.org/Graphics/SVG/1.1/DTD/svg11.dtd">
<svg version="1.1" id="Layer_1" xmlns="http://www.w3.org/2000/svg" xmlns:xlink="http://www.w3.org/1999/xlink" x="0px" y="0px"
	 width="96px" height="96px" viewBox="0 0 96 96" enable-background="new 0 0 96 96" xml:space="preserve">
<g>
	<circle cx="48" cy="31.131" r="16.103"/>
	<path d="M27.783,38.978c-0.979-2.511-1.476-5.151-1.476-7.846s0.496-5.335,1.476-7.846l0.255-0.657l-7.418-4.284l-0.365,0.847
		c-1.635,3.786-2.466,7.803-2.466,11.94s0.831,8.154,2.466,11.94l0.365,0.846l7.418-4.283L27.783,38.978z"/>
	<path d="M64.897,17.551L65.34,18.1l7.42-4.285l-0.554-0.74c-4.958-6.63-12.493-10.982-20.672-11.94l-0.918-0.107v8.559l0.697,0.106
		C56.653,10.514,61.479,13.305,64.897,17.551z"/>
	<path d="M75.745,19.191l-0.365-0.847l-7.418,4.284l0.255,0.657c0.98,2.511,1.476,5.151,1.476,7.846s-0.495,5.335-1.476,7.846
		l-0.255,0.657l7.418,4.283l0.365-0.846c1.635-3.787,2.466-7.804,2.466-11.94S77.38,22.978,75.745,19.191z"/>
	<path d="M64.897,44.711c-3.419,4.246-8.244,7.038-13.584,7.86l-0.697,0.107v8.558l0.918-0.108
		c8.179-0.958,15.714-5.31,20.672-11.94l0.554-0.74l-7.42-4.285L64.897,44.711z"/>
	<path d="M31.103,17.551c3.419-4.246,8.244-7.038,13.584-7.86l0.695-0.106V1.026l-0.916,0.107
		c-8.179,0.958-15.714,5.311-20.672,11.94l-0.554,0.74l7.42,4.285L31.103,17.551z"/>
	<path d="M45.382,61.236v-8.558l-0.695-0.107c-5.34-0.822-10.165-3.614-13.584-7.86l-0.442-0.548l-7.42,4.285l0.554,0.74
		c4.958,6.63,12.493,10.982,20.672,11.94L45.382,61.236z"/>
	<path d="M36.665,63.821v31.479L48,86.27l11.335,9.029V63.821c0,0-4.929,2.057-11.335,2.057S36.665,63.821,36.665,63.821z"/>
</g>
</svg>
