<?xml version="1.0" encoding="utf-8"?>
<!-- Generator: Adobe Illustrator 16.0.0, SVG Export Plug-In . SVG Version: 6.00 Build 0)  -->
<!DOCTYPE svg PUBLIC "-//W3C//DTD SVG 1.1//EN" "http://www.w3.org/Graphics/SVG/1.1/DTD/svg11.dtd">
<svg version="1.1" id="Layer_1" xmlns="http://www.w3.org/2000/svg" xmlns:xlink="http://www.w3.org/1999/xlink" x="0px" y="0px"
	 width="96px" height="96px" viewBox="0 0 96 96" enable-background="new 0 0 96 96" xml:space="preserve">
<path stroke="#231F20" stroke-width="21" stroke-linecap="square" stroke-linejoin="round" stroke-miterlimit="10" d="
	M23.058,87.632"/>
<g>
	<path d="M66.901,39.185c1.814,0.534,3.726-0.485,4.285-2.298c0.563-1.827-0.462-3.769-2.29-4.332
		c-0.019-0.007-0.038-0.005-0.056-0.01c-0.553,1.939-1.118,3.872-1.688,5.81L66.901,39.185z"/>
	<path d="M63.222,51.434c1.788,0.474,3.644-0.535,4.193-2.317c0.557-1.804-0.437-3.71-2.222-4.303l-0.99,3.276
		C63.867,49.201,63.546,50.318,63.222,51.434z"/>
	<path d="M63.425,62.063c0.534-1.731-0.369-3.549-2.019-4.218c-0.604,2.201-1.19,4.41-1.771,6.617
		C61.291,64.693,62.917,63.711,63.425,62.063z"/>
	<path d="M88.326,21.55c-0.498-0.409-1.782-0.313-2.085-0.643s-0.691-2.897-0.691-2.897c-0.6-3.563-1.375-7.144-3.417-10.882
		C81.62,6.19,80.974,5.25,80.135,4.296c-0.839-0.938-1.889-1.927-3.453-2.69c-1.517-0.78-3.703-1.212-5.757-0.847
		C68.86,1.097,67.17,2.07,65.932,3.048c-2.47,2.005-3.752,4.132-4.817,6.143c0,0-1.232,2.644-2.29,5.305
		c-0.796,2.004-2.464,6.336-3.594,9.538l-12.816,38.63l-3.414,9.593c0,0-1.408,4.322-4.501,3.255
		c-3.625-1.339-1.436-6.408-1.436-6.408l1.833-4.756l3.728-9.497l0.903-2.373c0,0,2.098-5.352,0.71-11.689
		c-0.12-0.55-0.222-1.07-0.404-1.657l-0.267-0.853l-0.143-0.427l-0.231-0.579c-0.167-0.4-0.345-0.798-0.534-1.188l-0.482-0.938
		l-0.288-0.572l-4.25-8.362c0.558-1.048,0.592-2.349-0.042-3.456c-0.982-1.708-3.163-2.301-4.872-1.32L7.234,33.764
		c-1.708,0.982-2.3,3.164-1.318,4.872c0.796,1.389,2.381,2.021,3.865,1.693c0,0,6.194,5.575,2.645,17.092l-1.165,4.963l-0.289,1.241
		l-0.146,0.62l-0.072,0.311l-0.017,0.078c-0.312,1.107-0.091,0.33-0.164,0.585l-0.007,0.041l-0.031,0.156l-0.272,1.393
		c-0.163,0.932-0.295,1.897-0.375,2.812c-0.429,6.215,1.627,12.415,5.476,17.062c1.919,2.333,4.282,4.299,6.912,5.743
		c1.311,0.723,2.686,1.335,4.095,1.777c0,0,1.746,0.599,4.01,0.92c1.936,0.275,3.218,0.285,4.73,0.211
		c1.473-0.086,2.931-0.322,4.349-0.681c2.836-0.723,5.504-1.979,7.845-3.669c2.341-1.688,4.353-3.818,5.896-6.237
		c0.368-0.616,0.723-1.238,1.065-1.863c0.309-0.643,0.598-1.297,0.878-1.949c0.259-0.658,0.468-1.335,0.684-2.005
		c0.126-0.394,0.157-0.538,0.213-0.753l0.163-0.617l2.581-9.85c0.281-1.082,0.566-2.165,0.851-3.247
		c-0.18-0.023-0.361-0.054-0.541-0.109c-1.828-0.563-2.854-2.503-2.29-4.33c0.562-1.828,2.503-2.854,4.331-2.29
		c0.097,0.027,0.179,0.076,0.271,0.112c0.588-2.14,1.197-4.276,1.816-6.411c-0.045-0.013-0.091-0.014-0.137-0.027
		c-1.828-0.563-2.854-2.503-2.291-4.331c0.564-1.829,2.503-2.852,4.332-2.289c0.025,0.008,0.045,0.021,0.068,0.027l1.708-5.629
		c-0.016-0.002-0.031-0.005-0.046-0.009c-1.828-0.563-2.854-2.501-2.29-4.33c0.558-1.81,2.464-2.828,4.275-2.301
		c0.377-1.322,0.751-2.646,1.1-3.979c0.871-3.282,1.666-6.584,2.401-9.904l1.481-6.789c0,0,0.654,0.528,0.918,0.763
		c1.974,1.749,3.888,4.481,5.664,7.251c0,0,1.79,2.928,5.61,5.422c0.029,0.028,1.127,0.754,2.172,1.056
		c0.47,0.136,1.009,0.138,1.42-0.061C91.672,25.031,88.823,21.959,88.326,21.55z"/>
</g>
</svg>
