<?xml version="1.0" encoding="utf-8"?>
<!-- Generator: Adobe Illustrator 16.0.0, SVG Export Plug-In . SVG Version: 6.00 Build 0)  -->
<!DOCTYPE svg PUBLIC "-//W3C//DTD SVG 1.1//EN" "http://www.w3.org/Graphics/SVG/1.1/DTD/svg11.dtd">
<svg version="1.1" id="Layer_1" xmlns="http://www.w3.org/2000/svg" xmlns:xlink="http://www.w3.org/1999/xlink" x="0px" y="0px"
	 width="96px" height="96px" viewBox="0 0 96 96" enable-background="new 0 0 96 96" xml:space="preserve">
<path d="M92.821,26.582V3.014H79.264v18.475L48,9.462L0.621,27.542v52.732h18.066v7.155h3.355v5.557h49.654V87.43h4.93v-7.155
	h18.752V27.542L92.821,26.582z M48,16.503c3.994,0,7.229,3.236,7.229,7.229c0,3.993-3.234,7.229-7.229,7.229
	c-3.991,0-7.229-3.236-7.229-7.229C40.771,19.739,44.009,16.503,48,16.503z M29.649,59.936H6.257V39.218h23.393V59.936z
	 M59.359,77.177H35.967V39.218h23.393V77.177z M89.454,59.936H66.062V39.218h23.393V59.936z"/>
</svg>
