<?xml version="1.0" encoding="utf-8"?>
<!-- Generator: Adobe Illustrator 16.0.0, SVG Export Plug-In . SVG Version: 6.00 Build 0)  -->
<!DOCTYPE svg PUBLIC "-//W3C//DTD SVG 1.1//EN" "http://www.w3.org/Graphics/SVG/1.1/DTD/svg11.dtd">
<svg version="1.1" id="Layer_1" xmlns="http://www.w3.org/2000/svg" xmlns:xlink="http://www.w3.org/1999/xlink" x="0px" y="0px"
	 width="96px" height="96px" viewBox="0 0 96 96" enable-background="new 0 0 96 96" xml:space="preserve">
<g>
	<path d="M1.754,62.093c0,1.656,1.343,2.999,2.999,2.999H9.7c0,4.14,3.357,7.496,7.496,7.496c4.141,0,7.497-3.356,7.497-7.496H70.27
		c0,4.14,3.357,7.496,7.497,7.496c4.141,0,7.496-3.356,7.496-7.496h6.197c1.657,0,2.999-1.343,2.999-2.999V50.399H1.854
		C1.117,55.763,1.944,62.484,1.754,62.093z"/>
	<path d="M91.459,23.412H36.612c-16.342,0-15.717,16.522-15.717,16.522c-6.196,0.892-13.296,1.219-16.993,4.941
		C3.303,45.48,2.85,46.359,2.508,47.4h91.95V26.41C94.458,24.755,93.116,23.412,91.459,23.412z M38.736,38.704H27.142
		c0,0-1.799-11.093,11.594-10.394V38.704z M55.377,38.704H43.783V28.311h11.594V38.704z M72.169,38.704H60.575V28.311h11.594V38.704
		z M88.661,38.704H77.067V28.311h11.594V38.704z"/>
</g>
</svg>
