<?xml version="1.0" encoding="utf-8"?>
<!-- Generator: Adobe Illustrator 16.0.0, SVG Export Plug-In . SVG Version: 6.00 Build 0)  -->
<!DOCTYPE svg PUBLIC "-//W3C//DTD SVG 1.1//EN" "http://www.w3.org/Graphics/SVG/1.1/DTD/svg11.dtd">
<svg version="1.1" id="Layer_1" xmlns="http://www.w3.org/2000/svg" xmlns:xlink="http://www.w3.org/1999/xlink" x="0px" y="0px"
	 width="96px" height="96px" viewBox="0 0 96 96" enable-background="new 0 0 96 96" xml:space="preserve">
<path d="M68.357,34.057L49.089,14.791V8.823H62.33l-3.095-4.203l3.095-4.204H46.854v14.429L27.643,34.057H8.887v61.526h20.435H30.5
	V43.082h3.25v52.501h28.5V43.082h3.25v52.501h1.178h20.435V34.057H68.357z M24.379,74.867h-8.35v-7.793h8.35V74.867z M24.379,60.698
	h-8.35v-7.793h8.35V60.698z M56.742,86.246H39.258v-9.668h17.484V86.246z M56.742,68.667H39.258v-9.668h17.484V68.667z
	 M56.742,51.088H39.258V41.42h17.484V51.088z M79.971,74.867h-8.35v-7.793h8.35V74.867z M79.971,60.698h-8.35v-7.793h8.35V60.698z"
	/>
</svg>
