<?xml version="1.0" encoding="utf-8"?>
<!-- Generator: Adobe Illustrator 17.1.0, SVG Export Plug-In . SVG Version: 6.00 Build 0)  -->
<!DOCTYPE svg PUBLIC "-//W3C//DTD SVG 1.1//EN" "http://www.w3.org/Graphics/SVG/1.1/DTD/svg11.dtd">
<svg version="1.1" id="Layer_1" xmlns="http://www.w3.org/2000/svg" xmlns:xlink="http://www.w3.org/1999/xlink" x="0px" y="0px"
	 width="96px" height="96px" viewBox="0 0 96 96" enable-background="new 0 0 96 96" xml:space="preserve">
<g>
	<path d="M92.7,67.4V22H3.3v45.3h-3V74h95.4v-6.6C95.7,67.4,92.7,67.4,92.7,67.4z M87.9,67.4H8.1V26.8h79.9
		C87.9,26.8,87.9,67.4,87.9,67.4z"/>
	<path d="M55.3,58.8c0.1,0.1,0.1,0.1,0.2,0.1l4.1,0.8c0.1,0,0.3,0,0.4-0.1l1.5-1.5l0.4,0.4l1.2-1.2l5.3-0.3l16.1-16.7
		c0.9-0.9,0.9-2.3,0-3.2L79.5,32c-0.9-0.9-2.3-0.9-3.2,0L59.5,48l-0.3,5.3l-1.2,1.2l0.4,0.4l-3.2,3.2c-0.1,0.1-0.2,0.3-0.1,0.5
		C55.2,58.7,55.2,58.7,55.3,58.8z M75,37.4l4.1,4.1l-8.3,8.3l-4.1-4.1L75,37.4z"/>
</g>
</svg>
