<?xml version="1.0" encoding="utf-8"?>
<!-- Generator: Adobe Illustrator 16.0.0, SVG Export Plug-In . SVG Version: 6.00 Build 0)  -->
<!DOCTYPE svg PUBLIC "-//W3C//DTD SVG 1.1//EN" "http://www.w3.org/Graphics/SVG/1.1/DTD/svg11.dtd">
<svg version="1.1" id="Layer_1" xmlns="http://www.w3.org/2000/svg" xmlns:xlink="http://www.w3.org/1999/xlink" x="0px" y="0px"
	 width="96px" height="96px" viewBox="0 0 96 96" enable-background="new 0 0 96 96" xml:space="preserve">
<g>
	<path d="M20.417,9.458c-2.473,1.235-2.12,3.903-2.12,5.686c0.759,0.012,1.47-0.331,2.12-0.85v5.125
		c-2.473,1.236-2.12,3.904-2.12,5.688c0.759,0.012,1.47-0.331,2.12-0.851v12.958c-1.023,0.124-1.819,0.985-1.819,2.042v15.157
		c0,1.058,0.796,1.919,1.819,2.042v0.447V94.5h6.529v-93h-6.529V9.458z"/>
	<polygon points="30.813,1.5 30.813,7.59 71.628,7.59 71.628,88.41 30.813,88.41 30.813,94.5 77.721,94.5 77.721,1.5 	"/>
	<rect x="30.813" y="15.144" width="33.801" height="17.383"/>
	<rect x="30.813" y="39.095" width="33.801" height="43.032"/>
</g>
</svg>
