<?xml version="1.0" encoding="utf-8"?>
<!-- Generator: Adobe Illustrator 16.0.0, SVG Export Plug-In . SVG Version: 6.00 Build 0)  -->
<!DOCTYPE svg PUBLIC "-//W3C//DTD SVG 1.1//EN" "http://www.w3.org/Graphics/SVG/1.1/DTD/svg11.dtd">
<svg version="1.1" id="Layer_1" xmlns="http://www.w3.org/2000/svg" xmlns:xlink="http://www.w3.org/1999/xlink" x="0px" y="0px"
	 width="96px" height="96px" viewBox="0 0 96 96" enable-background="new 0 0 96 96" xml:space="preserve">
<g>
	<rect x="34.167" y="15.107" width="27.667" height="4.334"/>
	<g>
		<path d="M86.954,23.108v4.891H84.5v-8.892C84.5,7.791,64.838,3.776,48,3.776S11.5,7.791,11.5,19.107v8.892H9.046v-4.891H0.954
			v15.333h8.093v-5.775H11.5v40.441c0,0.288,0.025,0.57,0.043,0.854H9.046v9.145h6.127v9.117h7.884v-6.201
			c0.474,0.053,0.955,0.085,1.443,0.085h47c0.488,0,0.969-0.032,1.443-0.085v6.201h7.884v-9.117h6.127v-9.145h-2.497
			c0.019-0.284,0.043-0.566,0.043-0.854V32.666h2.454v5.775h8.093V23.108H86.954z M78.5,73.107c0,0.29-0.023,0.574-0.058,0.854
			H72.79c0.02-0.283,0.043-0.566,0.043-0.854v-10c0-6.893-5.607-12.5-12.5-12.5H35.667c-6.893,0-12.5,5.607-12.5,12.5v10
			c0,0.288,0.024,0.571,0.043,0.854h-5.652c-0.035-0.28-0.058-0.564-0.058-0.854v-54c0-4.487,11.661-9.331,30.5-9.331
			s30.5,4.844,30.5,9.331V73.107z"/>
		<path d="M18.667,48.274h26.167V26.943h6.333v21.331h26.167V21.941H18.667V48.274z"/>
	</g>
</g>
</svg>
