<?xml version="1.0" encoding="utf-8"?>
<!-- Generator: Adobe Illustrator 16.0.0, SVG Export Plug-In . SVG Version: 6.00 Build 0)  -->
<!DOCTYPE svg PUBLIC "-//W3C//DTD SVG 1.1//EN" "http://www.w3.org/Graphics/SVG/1.1/DTD/svg11.dtd">
<svg version="1.1" id="Layer_1" xmlns="http://www.w3.org/2000/svg" xmlns:xlink="http://www.w3.org/1999/xlink" x="0px" y="0px"
	 width="96px" height="96px" viewBox="0 0 96 96" enable-background="new 0 0 96 96" xml:space="preserve">
<g>
	<path d="M71.262,16.469l-3.781-3.777l-31.726,31.76h-7.804c0.826-1.502,1.259-3.174,1.259-4.9c0-5.649-4.597-10.245-10.245-10.245
		h-6.682c-5.649,0-10.246,4.596-10.246,10.245c0,5.649,4.597,10.246,10.246,10.246h18.133l-15.534,15.55l-0.45,0.48
		c-3.987,3.995-3.985,10.489,0.007,14.482c1.935,1.935,4.508,3,7.244,3s5.31-1.065,7.244-3l9.382-9.382
		c1.936-1.935,3.002-4.508,3.002-7.245c0-2.736-1.066-5.309-3.001-7.244c-1.232-1.233-2.731-2.114-4.387-2.589l4.047-4.052h39.575
		v-5.345H43.31L71.262,16.469z M21.683,77.963c-1.309,0-2.539-0.509-3.465-1.435c-1.91-1.911-1.91-5.019,0-6.93l9.382-9.382
		c0.926-0.925,2.156-1.435,3.466-1.435c1.309,0,2.539,0.51,3.465,1.435c0.925,0.926,1.435,2.157,1.435,3.465
		c0,1.309-0.51,2.54-1.436,3.465l-9.381,9.382C24.222,77.454,22.991,77.963,21.683,77.963z M12.283,34.651h6.682
		c2.701,0,4.899,2.198,4.899,4.899c0,2.702-2.198,4.9-4.899,4.9h-6.682c-2.702,0-4.9-2.198-4.9-4.9
		C7.383,36.85,9.581,34.651,12.283,34.651z"/>
	<rect x="2.03" y="23.348" width="5.345" height="4.009"/>
	<rect x="13.547" y="23.348" width="8.844" height="4.009"/>
	<rect x="43.577" y="23.348" width="8.845" height="4.009"/>
	<rect x="28.563" y="23.348" width="8.844" height="4.009"/>
	<rect x="73.609" y="23.348" width="8.844" height="4.009"/>
	<rect x="88.625" y="23.348" width="5.345" height="4.009"/>
</g>
</svg>
