<?xml version="1.0" encoding="utf-8"?>
<!-- Generator: Adobe Illustrator 16.0.0, SVG Export Plug-In . SVG Version: 6.00 Build 0)  -->
<!DOCTYPE svg PUBLIC "-//W3C//DTD SVG 1.1//EN" "http://www.w3.org/Graphics/SVG/1.1/DTD/svg11.dtd">
<svg version="1.1" id="Layer_1" xmlns="http://www.w3.org/2000/svg" xmlns:xlink="http://www.w3.org/1999/xlink" x="0px" y="0px"
	 width="96px" height="96px" viewBox="0 0 96 96" enable-background="new 0 0 96 96" xml:space="preserve">
<path d="M88.941,55.47C84.825,36.642,68.064,22.542,48,22.542S11.175,36.642,7.059,55.47H0.834v17.987h8.258v-9.369h3.197v9.369
	h7.462v-4.75h3.198v4.75h7.462v-9.369h3.197v9.369h7.462v-4.75h3.199v4.75h7.461v-9.369h3.199v9.369h7.462v-4.75h3.197v4.75h7.462
	v-9.369h3.198v9.369h7.462v-4.75h3.197v4.75h8.258V55.47H88.941z M24.541,50.074C29.468,42.085,38.311,36.933,48,36.933
	s18.532,5.152,23.459,13.142H24.541z"/>
</svg>
