<?xml version="1.0" encoding="utf-8"?>
<!-- Generator: Adobe Illustrator 16.0.0, SVG Export Plug-In . SVG Version: 6.00 Build 0)  -->
<!DOCTYPE svg PUBLIC "-//W3C//DTD SVG 1.1//EN" "http://www.w3.org/Graphics/SVG/1.1/DTD/svg11.dtd">
<svg version="1.1" id="Layer_1" xmlns="http://www.w3.org/2000/svg" xmlns:xlink="http://www.w3.org/1999/xlink" x="0px" y="0px"
	 width="96px" height="96px" viewBox="0 0 96 96" enable-background="new 0 0 96 96" xml:space="preserve">
<g>
	<path d="M85.529,1.596H10.471c-0.932,0-1.756,0.42-2.328,1.07c-0.48,0.545-0.781,1.258-0.781,2.039v68.459
		c0,1.715,1.395,3.107,3.109,3.107h1.773v18.133l17.904-18.133h55.381c1.711,0,3.109-1.393,3.109-3.107V4.705
		C88.639,2.988,87.24,1.596,85.529,1.596z M69.059,7.613c1.941,0,3.521,1.574,3.521,3.518c0,1.947-1.58,3.523-3.521,3.523
		c-1.947,0-3.523-1.576-3.523-3.523C65.535,9.188,67.111,7.613,69.059,7.613z M58.658,7.613c1.945,0,3.523,1.574,3.523,3.518
		c0,1.947-1.578,3.523-3.523,3.523c-1.943,0-3.52-1.576-3.52-3.523C55.139,9.188,56.715,7.613,58.658,7.613z M81.613,68.961H14.617
		V20.404h66.996V68.961z M79.264,14.654c-1.945,0-3.521-1.576-3.521-3.523c0-1.943,1.576-3.518,3.521-3.518
		c1.947,0,3.523,1.574,3.523,3.518C82.787,13.078,81.211,14.654,79.264,14.654z"/>
	<polygon points="39.039,47.352 51.594,34.799 39.039,22.246 39.039,29.867 17.67,29.867 17.67,39.73 39.039,39.73 	"/>
	<polygon points="45.611,57.365 66.98,57.365 66.98,64.986 79.535,52.434 66.98,39.879 66.98,47.5 45.611,47.5 	"/>
</g>
</svg>
