<?xml version="1.0" encoding="utf-8"?>
<!-- Generator: Adobe Illustrator 16.0.0, SVG Export Plug-In . SVG Version: 6.00 Build 0)  -->
<!DOCTYPE svg PUBLIC "-//W3C//DTD SVG 1.1//EN" "http://www.w3.org/Graphics/SVG/1.1/DTD/svg11.dtd">
<svg version="1.1" id="Layer_1" xmlns="http://www.w3.org/2000/svg" xmlns:xlink="http://www.w3.org/1999/xlink" x="0px" y="0px"
	 width="96px" height="96px" viewBox="0 0 96 96" enable-background="new 0 0 96 96" xml:space="preserve">
<path d="M42.792,35.939"/>
<path d="M93.578,70.371c-2.044-2.045-5.358-2.044-7.402,0c-17.772,17.773-46.692,17.773-64.466,0
	c-13.81-13.811-13.81-36.282,0-50.092c10.641-10.639,27.954-10.64,38.593,0c3.926,3.926,6.088,9.145,6.088,14.697
	s-2.162,10.771-6.088,14.697c-2.942,2.943-6.855,4.564-11.017,4.564s-8.074-1.621-11.018-4.564
	c-2.156-2.156-3.344-5.024-3.344-8.074s1.188-5.917,3.344-8.073c3.154-3.153,8.285-3.154,11.438,0c2.114,2.114,2.114,5.555,0,7.669
	c-2.044,2.044-2.043,5.358,0,7.403c2.045,2.044,5.359,2.043,7.403,0c6.195-6.196,6.195-16.278,0-22.474
	c-3.504-3.505-8.165-5.435-13.121-5.435c-4.957,0-9.617,1.93-13.122,5.435c-8.534,8.533-8.534,22.418,0,30.952
	c4.92,4.92,11.462,7.63,18.42,7.63s13.5-2.71,18.419-7.63c5.903-5.903,9.154-13.751,9.154-22.099c0-8.348-3.25-16.196-9.154-22.099
	c-14.722-14.722-38.675-14.722-53.398,0c-17.892,17.892-17.892,47.004,0,64.896c10.928,10.927,25.282,16.391,39.636,16.391
	c14.354,0,28.708-5.464,39.635-16.391C95.623,75.729,95.623,72.415,93.578,70.371z"/>
</svg>
