<?xml version="1.0" encoding="utf-8"?>
<!-- Generator: Adobe Illustrator 16.0.0, SVG Export Plug-In . SVG Version: 6.00 Build 0)  -->
<!DOCTYPE svg PUBLIC "-//W3C//DTD SVG 1.1//EN" "http://www.w3.org/Graphics/SVG/1.1/DTD/svg11.dtd">
<svg version="1.1" id="Layer_1" xmlns="http://www.w3.org/2000/svg" xmlns:xlink="http://www.w3.org/1999/xlink" x="0px" y="0px"
	 width="96px" height="96px" viewBox="0 0 96 96" enable-background="new 0 0 96 96" xml:space="preserve">
<path d="M48,1.234c-25.25,0-45.792,20.542-45.792,45.792c0,1.934,1.567,3.5,3.5,3.5c0.594,0,1.146-0.162,1.636-0.423
	c6.672-3.421,25.323,2.882,32.519,16.473c1.438,2.716,2.57,5.539,3.355,8.403l-29.069-5.904c0.657-0.512,1.347-0.787,2.018-0.787
	c1.381,0,2.5-1.119,2.5-2.5s-1.119-2.5-2.5-2.5c-5.985,0-10.674,6.913-10.674,15.738c0,8.826,4.689,15.739,10.674,15.739
	c1.381,0,2.5-1.119,2.5-2.5c0-0.721-0.309-1.365-0.796-1.821l26.432-9.735c0.276,2.662,0.233,5.321-0.178,7.927
	c-0.278,1.759,0.735,4.183,3.876,4.183c29.034,0,45.792-16.69,45.792-45.792C93.792,21.776,73.25,1.234,48,1.234z M11.319,73.583
	c0.062,0.018,0.119,0.044,0.183,0.057l24.187,4.913l-22.974,8.461c-0.065,0.024-0.121,0.061-0.183,0.09
	c-1.193-1.906-2.04-4.716-2.04-8.077C10.492,76.982,10.807,75.143,11.319,73.583z M64.667,76.026c-3.682,0-6.667-2.984-6.667-6.666
	s2.985-6.667,6.667-6.667s6.667,2.985,6.667,6.667S68.349,76.026,64.667,76.026z"/>
</svg>
