<?xml version="1.0" encoding="utf-8"?>
<!-- Generator: Adobe Illustrator 16.0.0, SVG Export Plug-In . SVG Version: 6.00 Build 0)  -->
<!DOCTYPE svg PUBLIC "-//W3C//DTD SVG 1.1//EN" "http://www.w3.org/Graphics/SVG/1.1/DTD/svg11.dtd">
<svg version="1.1" id="Layer_1" xmlns="http://www.w3.org/2000/svg" xmlns:xlink="http://www.w3.org/1999/xlink" x="0px" y="0px"
	 width="96px" height="96px" viewBox="0 0 96 96" enable-background="new 0 0 96 96" xml:space="preserve">
<g>
	<path d="M85.51,20.363c-2.219,2.007-4.93,3.808-8.018,5.369l1.874,3.218l-3.835,2.233l-2.111-3.627
		c-3.792,1.5-8.023,2.664-12.585,3.429l1.104,3.805l-4.262,1.236l-1.284-4.428c-2.712,0.287-5.514,0.442-8.392,0.442
		c-2.686,0-5.303-0.142-7.845-0.392l-1.271,4.378l-4.262-1.236l1.078-3.715c-4.334-0.694-8.386-1.741-12.046-3.098l-1.867,3.206
		l-3.835-2.233l1.575-2.706c-3.522-1.671-6.575-3.653-9.037-5.881C4.783,28.096,1.405,37.652,1.405,48s3.378,19.904,9.085,27.637
		c2.219-2.007,4.93-3.808,8.018-5.369l-1.874-3.218l3.835-2.233l2.111,3.627c3.792-1.5,8.023-2.664,12.585-3.429l-1.104-3.805
		l4.262-1.236l1.284,4.428c2.712-0.287,5.514-0.442,8.392-0.442c2.686,0,5.303,0.142,7.845,0.392l1.271-4.378l4.262,1.236
		L60.3,64.925c4.334,0.694,8.386,1.741,12.046,3.098l1.867-3.206l3.835,2.233l-1.575,2.706c3.522,1.671,6.575,3.653,9.037,5.881
		c5.707-7.733,9.085-17.289,9.085-27.637S91.217,28.096,85.51,20.363z"/>
	<path d="M25.651,15.727l3.835,2.232l-1.839,3.158c3.072,1.049,6.5,1.889,10.235,2.435l1.003-3.457l4.262,1.236l-0.789,2.721
		c1.825,0.143,3.705,0.223,5.642,0.223c2.132,0,4.191-0.101,6.187-0.273l-0.774-2.67l4.262-1.236l0.98,3.377
		c3.972-0.615,7.598-1.556,10.795-2.734l-1.618-2.779l3.834-2.232l1.893,3.25c2.727-1.343,5.023-2.865,6.798-4.487
		C71.975,6.394,60.573,1.405,48,1.405S24.025,6.394,15.643,14.49c1.994,1.823,4.647,3.518,7.832,4.974L25.651,15.727z"/>
	<path d="M70.349,80.273l-3.835-2.232l1.839-3.158c-3.072-1.049-6.5-1.889-10.235-2.435l-1.003,3.457l-4.262-1.236l0.789-2.721
		c-1.825-0.143-3.705-0.223-5.642-0.223c-2.132,0-4.191,0.101-6.187,0.273l0.774,2.67l-4.262,1.236l-0.98-3.377
		c-3.972,0.615-7.598,1.556-10.795,2.734l1.618,2.779l-3.834,2.232l-1.893-3.25c-2.727,1.343-5.023,2.865-6.798,4.487
		C24.025,89.606,35.427,94.595,48,94.595s23.975-4.989,32.357-13.085c-1.994-1.823-4.647-3.518-7.832-4.974L70.349,80.273z"/>
</g>
</svg>
