<?xml version="1.0" encoding="utf-8"?>
<!-- Generator: Adobe Illustrator 16.0.0, SVG Export Plug-In . SVG Version: 6.00 Build 0)  -->
<!DOCTYPE svg PUBLIC "-//W3C//DTD SVG 1.1//EN" "http://www.w3.org/Graphics/SVG/1.1/DTD/svg11.dtd">
<svg version="1.1" id="Layer_1" xmlns="http://www.w3.org/2000/svg" xmlns:xlink="http://www.w3.org/1999/xlink" x="0px" y="0px"
	 width="96px" height="96px" viewBox="0 0 96 96" enable-background="new 0 0 96 96" xml:space="preserve">
<path d="M83.354,29.705c-4.027-0.391-8.207,1.207-12.083,2.086c-5.473,1.242-10.636,0.832-15.87-1.373
	c-0.82-0.345-1.642-0.626-2.277-0.857c-0.06-1.488-0.037-2.639-0.371-4.264c-0.177-0.859-0.455-1.572-1.502-2.307
	c-6.846-4.488-10.235,1.734-9.662,5.271c0.004,0.019,0.005,0.036,0.009,0.055C44.09,40.434,30.034,41.743,21.359,44.24
	c-5.01,1.442-10.138,3.421-13.319,7.759c-1.25,1.706-1.885,3.553-2.093,5.448c-2.866-0.037-5.558,1.761-5.168,5.43
	c1.399,13.176,19.795,11.646,30.279,11.646h57.768c4.309,0,6.08-3.929,5.321-7.165c0.122-0.421,0.204-0.871,0.235-1.355
	C95.028,55.964,98.826,31.203,83.354,29.705z M38.714,63.161c-6.746,0-13.492,0-20.238,0c-0.005-0.009-0.006-0.018-0.012-0.026
	c-1.918-3.045-0.996-5.654,1.734-6.529c4.386-1.405,9.844-2.853,14.51-4.303c2.027-0.63,3.912-1.389,5.662-2.258
	c2.684,5.492,7.013,6.619,11.211,7.696c0.711,0.183,1.448,0.372,2.159,0.574c4.621,1.412,6.607,2.46,8.805,4.846
	C54.602,63.161,46.658,63.161,38.714,63.161z M83.23,63.161l-13.52,0.01c-4.442-5.854-6.723-7.969-14.358-10.303
	c-0.812-0.232-1.598-0.435-2.357-0.628c-4-1.027-6.202-1.594-7.746-5.155c0,0,3.829-3.198,5.62-6.614
	c0.436,0.352,0.936,0.659,1.512,0.902c9.796,4.126,18.76,1.817,28.631-0.232c0.514-0.106,1.302-0.27,1.302-0.27
	s0.197,0.649,0.441,1.521C84.547,48.81,83.772,56.383,83.23,63.161z"/>
</svg>
