<?xml version="1.0" encoding="utf-8"?>
<!-- Generator: Adobe Illustrator 16.0.0, SVG Export Plug-In . SVG Version: 6.00 Build 0)  -->
<!DOCTYPE svg PUBLIC "-//W3C//DTD SVG 1.1//EN" "http://www.w3.org/Graphics/SVG/1.1/DTD/svg11.dtd">
<svg version="1.1" id="Layer_1" xmlns="http://www.w3.org/2000/svg" xmlns:xlink="http://www.w3.org/1999/xlink" x="0px" y="0px"
	 width="96px" height="96px" viewBox="0 0 96 96" enable-background="new 0 0 96 96" xml:space="preserve">
<g>
	<circle cx="73.732" cy="29.184" r="13.395"/>
	<path d="M15.155,53.778c2.407,3.298,3.377,4.257,5.166,4.257c0.14,0,0.269-0.018,0.399-0.03l1.167-0.34
		c1.007-0.521,1.977-1.665,3.599-3.887c2.438-3.338,6.12-8.382,13.287-8.382c4.582,0,7.735,2.063,10.053,4.422l6.444,7.63
		c0.599,0.413,1.175,0.586,1.954,0.586c1.789,0,2.759-0.959,5.167-4.256c0.917-1.256,2.012-2.754,3.401-4.135l-7.77-13.743
		c-0.026-0.045-0.057-0.086-0.083-0.131c-0.07-0.118-0.143-0.234-0.221-0.349c-0.052-0.076-0.107-0.149-0.163-0.223
		c-0.07-0.093-0.141-0.186-0.217-0.276c-0.074-0.089-0.152-0.173-0.23-0.257c-0.064-0.068-0.128-0.137-0.195-0.203
		c-0.097-0.095-0.198-0.185-0.3-0.273c-0.041-0.035-0.077-0.074-0.119-0.108L26.796,9.647c-2.773-2.281-6.869-1.882-9.149,0.89
		c-2.281,2.772-1.882,6.868,0.89,9.149L37.61,35.379L6.179,44.535c-0.812,0.236-1.559,0.587-2.235,1.023
		C9.764,46.418,12.966,50.78,15.155,53.778z"/>
</g>
<g>
	<path d="M86.945,56.257c-2.393-3.277-5.37-7.356-11.268-7.356s-8.876,4.079-11.269,7.356c-2.391,3.275-4.017,5.282-7.186,5.282
		c-1.428,0-2.543-0.408-3.557-1.157l-1.177-1.054c-0.79-0.826-1.568-1.862-2.45-3.071c-2.393-3.277-5.37-7.356-11.267-7.356
		c-5.897,0-8.875,4.079-11.268,7.356c-2.391,3.275-4.017,5.282-7.184,5.282c-3.168,0-4.794-2.007-7.184-5.282
		c-2.393-3.277-5.37-7.356-11.267-7.356v5.056c3.167,0,4.793,2.007,7.184,5.282c2.393,3.277,5.37,7.356,11.268,7.356
		c5.897,0,8.875-4.079,11.268-7.356c2.39-3.275,4.017-5.282,7.184-5.282s4.793,2.007,7.184,5.282
		c2.392,3.277,5.37,7.356,11.267,7.356c5.898,0,8.875-4.079,11.268-7.356c2.391-3.275,4.018-5.282,7.186-5.282
		s4.794,2.007,7.186,5.282c2.392,3.277,5.37,7.356,11.268,7.356V61.54C90.962,61.54,89.336,59.533,86.945,56.257z"/>
	<path d="M86.945,77.744c-2.393-3.277-5.37-7.356-11.268-7.356s-8.876,4.079-11.269,7.356c-2.391,3.274-4.017,5.281-7.186,5.281
		c-3.167,0-4.793-2.007-7.184-5.281c-2.393-3.277-5.37-7.356-11.267-7.356c-5.897,0-8.875,4.079-11.268,7.356
		c-2.391,3.274-4.017,5.281-7.184,5.281c-3.168,0-4.794-2.007-7.184-5.281c-2.393-3.277-5.37-7.356-11.267-7.356v5.055
		c3.167,0,4.793,2.008,7.184,5.282c2.393,3.277,5.37,7.356,11.268,7.356c5.897,0,8.875-4.079,11.268-7.356
		c2.39-3.274,4.017-5.282,7.184-5.282s4.793,2.008,7.184,5.282c2.392,3.277,5.37,7.356,11.267,7.356
		c5.898,0,8.875-4.079,11.268-7.356c2.391-3.274,4.018-5.282,7.186-5.282s4.794,2.008,7.186,5.282
		c2.392,3.277,5.37,7.356,11.268,7.356v-5.056C90.962,83.025,89.336,81.018,86.945,77.744z"/>
</g>
</svg>
