<?xml version="1.0" encoding="utf-8"?>
<!-- Generator: Adobe Illustrator 16.0.0, SVG Export Plug-In . SVG Version: 6.00 Build 0)  -->
<!DOCTYPE svg PUBLIC "-//W3C//DTD SVG 1.1//EN" "http://www.w3.org/Graphics/SVG/1.1/DTD/svg11.dtd">
<svg version="1.1" id="Layer_1" xmlns="http://www.w3.org/2000/svg" xmlns:xlink="http://www.w3.org/1999/xlink" x="0px" y="0px"
	 width="96px" height="96px" viewBox="0 0 96 96" enable-background="new 0 0 96 96" xml:space="preserve">
<path d="M73.705,54.347c3.505,0,6.348-2.841,6.348-6.347s-2.843-6.347-6.348-6.347h-2.856V14.36h2.856
	c3.505,0,6.348-2.841,6.348-6.347c0-3.505-2.843-6.347-6.348-6.347h-51.41c-3.506,0-6.348,2.842-6.348,6.347
	c0,3.506,2.842,6.347,6.348,6.347h2.855v27.293h-2.855c-3.506,0-6.348,2.841-6.348,6.347s2.842,6.347,6.348,6.347h2.855V81.64
	h-2.855c-3.506,0-6.348,2.841-6.348,6.347c0,3.505,2.842,6.347,6.348,6.347h51.41c3.505,0,6.348-2.842,6.348-6.347
	c0-3.506-2.843-6.347-6.348-6.347h-2.856V54.347H73.705z M36.425,74.538l6.867-20.732H32.57l22.544-32.344l-4.448,20.161H63.43
	L36.425,74.538z"/>
</svg>
