<?xml version="1.0" encoding="utf-8"?>
<!-- Generator: Adobe Illustrator 16.0.0, SVG Export Plug-In . SVG Version: 6.00 Build 0)  -->
<!DOCTYPE svg PUBLIC "-//W3C//DTD SVG 1.1//EN" "http://www.w3.org/Graphics/SVG/1.1/DTD/svg11.dtd">
<svg version="1.1" id="Layer_1" xmlns="http://www.w3.org/2000/svg" xmlns:xlink="http://www.w3.org/1999/xlink" x="0px" y="0px"
	 width="96px" height="96px" viewBox="0 0 96 96" enable-background="new 0 0 96 96" xml:space="preserve">
<path d="M84.803,58.631l3.398-4.918L34.797,16.801l3.98-5.758L24.383,1.094L0.504,35.644l14.393,9.949l3.98-5.759l22.832,15.781
	c-1.963,1.772-3.119,4.301-3.119,7.041c0,4.372,2.973,8.054,7,9.155v18.72H28.375v4.375H45.59h5h17.035v-4.375H50.59v-18.72
	c2.896-0.792,5.242-2.919,6.332-5.682l15.359,10.616l3.4-4.918l10.693,7.392l9.121-13.197L84.803,58.631z M48.09,67.156
	c-2.482,0-4.5-2.019-4.5-4.5c0-1.714,0.951-3.255,2.484-4.024l6.471,4.473C52.316,65.373,50.418,67.156,48.09,67.156z
	 M85.359,73.654l-7.404-5.117l4.572-6.615l7.404,5.117L85.359,73.654z"/>
</svg>
