<?xml version="1.0" encoding="utf-8"?>
<!-- Generator: Adobe Illustrator 16.0.0, SVG Export Plug-In . SVG Version: 6.00 Build 0)  -->
<!DOCTYPE svg PUBLIC "-//W3C//DTD SVG 1.1//EN" "http://www.w3.org/Graphics/SVG/1.1/DTD/svg11.dtd">
<svg version="1.1" id="Layer_1" xmlns="http://www.w3.org/2000/svg" xmlns:xlink="http://www.w3.org/1999/xlink" x="0px" y="0px"
	 width="96px" height="96px" viewBox="0 0 96 96" enable-background="new 0 0 96 96" xml:space="preserve">
<path d="M82.836,19.748l-4.004-7.742l3.77-7.164c0.402-0.759,0.373-1.672-0.07-2.406c-0.443-0.734-1.238-1.183-2.096-1.183H15.367
	c-1.351,0-2.447,1.096-2.447,2.448l0.035,91.044h11.756v-74.4h-6.919V6.15h58.59l-2.477,4.707c-0.372,0.708-0.375,1.554-0.007,2.265
	l3.736,7.224H29.53v74.4h8.973h7.73h16.469H83.08V27.941v-7.596C83.08,20.346,82.935,19.938,82.836,19.748z"/>
</svg>
