<?xml version="1.0" encoding="utf-8"?>
<!-- Generator: Adobe Illustrator 16.0.0, SVG Export Plug-In . SVG Version: 6.00 Build 0)  -->
<!DOCTYPE svg PUBLIC "-//W3C//DTD SVG 1.1//EN" "http://www.w3.org/Graphics/SVG/1.1/DTD/svg11.dtd">
<svg version="1.1" id="Layer_1" xmlns="http://www.w3.org/2000/svg" xmlns:xlink="http://www.w3.org/1999/xlink" x="0px" y="0px"
	 width="96px" height="96px" viewBox="0 0 96 96" enable-background="new 0 0 96 96" xml:space="preserve">
<g>
	<path d="M2.118,82.25c0,1.336,1.083,2.418,2.417,2.418h21.016c1.335,0,2.418-1.082,2.418-2.418V69.76H2.118V82.25z"/>
	<path d="M25.551,11.332H4.536c-1.335,0-2.417,1.083-2.417,2.418v51.979h25.851V13.75C27.969,12.415,26.887,11.332,25.551,11.332z
		 M24.186,24.276H5.902v-8.009h18.284V24.276z"/>
	<path d="M34.788,82.25c0,1.336,1.083,2.418,2.418,2.418h21.015c1.335,0,2.418-1.082,2.418-2.418V69.76H34.788V82.25z"/>
	<path d="M58.221,11.332H37.206c-1.335,0-2.418,1.083-2.418,2.418v51.979h25.851V13.75C60.639,12.415,59.556,11.332,58.221,11.332z
		 M56.855,24.276H38.571v-8.009h18.284V24.276z"/>
	<path d="M68.031,82.25c0,1.336,1.083,2.418,2.418,2.418h21.016c1.335,0,2.417-1.082,2.417-2.418V69.76H68.031V82.25z"/>
	<path d="M91.464,11.332H70.449c-1.335,0-2.418,1.083-2.418,2.418v51.979h25.851V13.75C93.882,12.415,92.799,11.332,91.464,11.332z
		 M90.098,24.276H71.814v-8.009h18.284V24.276z"/>
</g>
</svg>
