<?xml version="1.0" encoding="utf-8"?>
<!-- Generator: Adobe Illustrator 16.0.0, SVG Export Plug-In . SVG Version: 6.00 Build 0)  -->
<!DOCTYPE svg PUBLIC "-//W3C//DTD SVG 1.1//EN" "http://www.w3.org/Graphics/SVG/1.1/DTD/svg11.dtd">
<svg version="1.1" id="Layer_1" xmlns="http://www.w3.org/2000/svg" xmlns:xlink="http://www.w3.org/1999/xlink" x="0px" y="0px"
	 width="96px" height="96px" viewBox="0 0 96 96" enable-background="new 0 0 96 96" xml:space="preserve">
<path d="M90.333,8.946V1.979H24.349c-7.159,0-12.983,5.824-12.983,12.983v5.7c0,5.125,2.994,9.554,7.317,11.664H5.667v6.966h4.698
	v17.732H5.667v6.966h12.389c-3.985,2.22-6.689,6.471-6.689,11.347v5.7c0,7.159,5.824,12.983,12.983,12.983h65.984v-6.966h-4.698
	V69.321h4.698v-6.966H77.944c3.985-2.219,6.689-6.471,6.689-11.347v-5.7c0-5.125-2.994-9.554-7.317-11.663h13.017v-6.966h-4.698
	V8.946H90.333z M80.569,87.054h-56.22c-3.317,0-6.017-2.699-6.017-6.017v-5.7c0-3.317,2.699-6.017,6.017-6.017h56.22V87.054z
	 M77.667,51.008c0,3.317-2.699,6.016-6.017,6.016h-56.22V39.292h56.22c3.317,0,6.017,2.699,6.017,6.016V51.008z M80.569,26.679
	h-56.22c-3.317,0-6.017-2.699-6.017-6.017v-5.7c0-3.318,2.699-6.017,6.017-6.017h56.22V26.679z"/>
</svg>
