<?xml version="1.0" encoding="utf-8"?>
<!-- Generator: Adobe Illustrator 16.0.0, SVG Export Plug-In . SVG Version: 6.00 Build 0)  -->
<!DOCTYPE svg PUBLIC "-//W3C//DTD SVG 1.1//EN" "http://www.w3.org/Graphics/SVG/1.1/DTD/svg11.dtd">
<svg version="1.1" id="Layer_1" xmlns="http://www.w3.org/2000/svg" xmlns:xlink="http://www.w3.org/1999/xlink" x="0px" y="0px"
	 width="96px" height="96px" viewBox="0 0 96 96" enable-background="new 0 0 96 96" xml:space="preserve">
<path d="M48,1.007C22.088,1.007,1.008,22.088,1.008,48c0,25.912,21.08,46.993,46.992,46.993S94.992,73.912,94.992,48
	C94.992,22.088,73.912,1.007,48,1.007z M88.416,39.909l-14.91-6.633l1.696-16.205C81.855,22.931,86.613,30.891,88.416,39.909z
	 M61.192,8.96l-13.189,9.588L34.799,8.963C38.947,7.557,43.383,6.782,48,6.782C52.613,6.782,57.047,7.556,61.192,8.96z
	 M62.521,44.74l-5.548,17.07H39.025l-5.547-17.07L48,34.189L62.521,44.74z M20.788,17.08l1.708,16.192L7.583,39.918
	C9.384,30.899,14.138,22.939,20.788,17.08z M7.584,56.091l14.909,6.632l-1.697,16.204C14.144,73.068,9.387,65.109,7.584,56.091z
	 M34.806,87.039l13.191-9.589l13.204,9.586c-4.147,1.407-8.584,2.181-13.201,2.181C43.386,89.218,38.951,88.444,34.806,87.039z
	 M75.211,78.921l-1.708-16.194l14.915-6.647C86.617,65.1,81.862,73.061,75.211,78.921z"/>
</svg>
