<?xml version="1.0" encoding="utf-8"?>
<!-- Generator: Adobe Illustrator 16.0.0, SVG Export Plug-In . SVG Version: 6.00 Build 0)  -->
<!DOCTYPE svg PUBLIC "-//W3C//DTD SVG 1.1//EN" "http://www.w3.org/Graphics/SVG/1.1/DTD/svg11.dtd">
<svg version="1.1" id="Layer_1" xmlns="http://www.w3.org/2000/svg" xmlns:xlink="http://www.w3.org/1999/xlink" x="0px" y="0px"
	 width="96px" height="96px" viewBox="0 0 96 96" enable-background="new 0 0 96 96" xml:space="preserve">
<path d="M82.075,35.337c0.696-1.918,1.078-3.987,1.078-6.146c0-9.742-7.747-17.671-17.416-17.976
	c-3.356-5.831-9.645-9.76-16.855-9.76c-8.583,0-15.862,5.564-18.439,13.282c-0.317-0.021-0.633-0.049-0.955-0.049
	c-8.009,0-14.502,6.493-14.502,14.502c0,1.603,0.271,3.139,0.75,4.58c-3.588,2.641-5.925,6.879-5.925,11.675
	c0,8.009,6.493,14.502,14.502,14.502c2.78,0,5.368-0.797,7.574-2.152c3.017,5.866,9.821,21.646,2.925,33.25h-2.572V95.9h31.688
	v-4.855h-2.242c-6.781-11.433-0.251-26.97,2.812-33.017c2.121,1.214,4.571,1.919,7.19,1.919c8.009,0,14.502-6.493,14.502-14.502
	C86.189,41.512,84.618,37.949,82.075,35.337z M60.012,54.021c-2.9,5.307-11.141,22.558-4.869,37.024H41.355
	c6.438-14.845-2.408-32.616-5.082-37.406c1.601-2.332,2.541-5.152,2.541-8.193c0-1.603-0.271-3.139-0.75-4.58
	c-0.627-1.695-3.127-7.133-3.127-7.133s4.328,4.029,5.671,4.759c2.018,1.096,4.954,2.585,8.273,1.848
	c0.686-0.152,2.493-1.325,2.285-4.794c2.833,8.084,8.083,6.313,11.646,4.063c-0.001,0.043-2.901,3.581-3.627,5.838
	C58.376,47.962,58.243,51.617,60.012,54.021z"/>
</svg>
