<?xml version="1.0" encoding="utf-8"?>
<!-- Generator: Adobe Illustrator 16.0.0, SVG Export Plug-In . SVG Version: 6.00 Build 0)  -->
<!DOCTYPE svg PUBLIC "-//W3C//DTD SVG 1.1//EN" "http://www.w3.org/Graphics/SVG/1.1/DTD/svg11.dtd">
<svg version="1.1" id="Layer_1" xmlns="http://www.w3.org/2000/svg" xmlns:xlink="http://www.w3.org/1999/xlink" x="0px" y="0px"
	 width="96px" height="96px" viewBox="0 0 96 96" enable-background="new 0 0 96 96" xml:space="preserve">
<g>
	<path d="M91.954,63.318l-3.686-3.687c-1.34-1.339-3.728-1.337-5.063,0l-3.38,3.399V43.338L59.398,31.832l4.477-10.195H26.448
		v73.171h53.377v-14.35l12.127-12.092c0.669-0.669,1.047-1.576,1.047-2.522C93.001,64.896,92.625,63.987,91.954,63.318z
		 M47.676,42.573h23.063v5.724H47.676V42.573z M47.676,57.661h23.063v5.724H47.676V57.661z M43.307,79.074H35.71v-5.724h7.597
		V79.074z M43.307,63.453H35.71v-5.722h7.597V63.453z M43.307,48.365H35.71v-5.723h7.597V48.365z M57.653,75.228
		c-1.041,1.009-1.33,2.496-0.866,3.776h-9.111v-5.723h11.985L57.653,75.228z M68.759,86.572l-8.509-8.783l3.715-3.599l4.852,5.01
		l17.046-17.047l3.688,3.687L68.759,86.572z"/>
	<polygon points="67.267,21.856 63.935,29.618 80.001,39.522 	"/>
	<path d="M35.95,11.387l4.477-10.194H3.001v73.171h18.918V17.67h25.186L35.95,11.387z M19.858,58.629H12.26v-5.722h7.599V58.629z
		 M19.858,43.01H12.26v-5.724h7.599V43.01z M19.858,27.921H12.26v-5.723h7.599V27.921z"/>
	<polygon points="55.535,17.67 43.816,1.411 40.484,9.174 54.268,17.67 	"/>
</g>
</svg>
