<?xml version="1.0" encoding="utf-8"?>
<!-- Generator: Adobe Illustrator 16.0.0, SVG Export Plug-In . SVG Version: 6.00 Build 0)  -->
<!DOCTYPE svg PUBLIC "-//W3C//DTD SVG 1.1//EN" "http://www.w3.org/Graphics/SVG/1.1/DTD/svg11.dtd">
<svg version="1.1" id="Layer_1" xmlns="http://www.w3.org/2000/svg" xmlns:xlink="http://www.w3.org/1999/xlink" x="0px" y="0px"
	 width="96px" height="96px" viewBox="0 0 96 96" enable-background="new 0 0 96 96" xml:space="preserve">
<g>
	<path d="M68.241,47.8H17.843v5.32h3.588v6.63v6.63h-3.588v5.319h7.992c-4.549,0.9-7.992,4.916-7.992,9.726v2.034v2.033
		c0,5.469,4.449,9.916,9.917,9.916h50.398v-5.32h-3.588v-6.629v-6.631h3.588v-5.32h-7.992c4.549-0.897,7.992-4.915,7.992-9.725
		V59.75v-2.033C78.157,52.248,73.708,47.8,68.241,47.8z M70.7,76.828v6.631v6.629h-42.94c-2.535,0-4.596-2.062-4.596-4.596v-2.033
		v-2.034c0-2.534,2.062-4.597,4.596-4.597H70.7z M72.836,59.75v2.033c0,2.534-2.062,4.597-4.595,4.597H25.3v-6.63v-6.63h42.94
		c2.534,0,4.595,2.062,4.595,4.597V59.75z"/>
	<g>
		<path d="M48.59,13.067c-7.489-4.104-18.959-0.249-18.959,11.574c0,9.233,5.657,21.918,12.639,21.918
			c2.592,0,4.663-0.737,6.32-1.974c1.658,1.236,3.729,1.974,6.32,1.974c6.981,0,12.64-12.685,12.64-21.918
			C67.55,12.818,56.079,8.963,48.59,13.067z"/>
		<path d="M48.551,12.213l2.264-0.961c0-0.034,0.029-3.638,2.521-4.22l-0.516-2.203C47.629,6.535,48.551,11.99,48.551,12.213z"/>
		<path d="M48.797,7.533c1.786-5.206-9.475-5.241-9.209-6.941C35.15,8.184,47.012,12.737,48.797,7.533z"/>
	</g>
</g>
</svg>
