<?xml version="1.0" encoding="utf-8"?>
<!-- Generator: Adobe Illustrator 16.0.0, SVG Export Plug-In . SVG Version: 6.00 Build 0)  -->
<!DOCTYPE svg PUBLIC "-//W3C//DTD SVG 1.1//EN" "http://www.w3.org/Graphics/SVG/1.1/DTD/svg11.dtd">
<svg version="1.1" id="Layer_1" xmlns="http://www.w3.org/2000/svg" xmlns:xlink="http://www.w3.org/1999/xlink" x="0px" y="0px"
	 width="96px" height="96px" viewBox="0 0 96 96" enable-background="new 0 0 96 96" xml:space="preserve">
<g>
	<polygon points="68.336,22.345 65.066,29.962 80.834,39.681 	"/>
	<path d="M37.607,12.071L42,2.067H5.273V73.87h18.564V18.237h24.715L37.607,12.071z M21.816,58.431h-7.457v-5.615h7.457V58.431z
		 M21.816,43.103h-7.457v-5.616h7.457V43.103z M21.816,28.296h-7.457v-5.615h7.457V28.296z"/>
	<polygon points="56.826,18.237 45.326,2.282 42.057,9.899 55.582,18.237 	"/>
	<path d="M85.004,76.529l4.551-4.553c0.756-0.755,1.172-1.76,1.172-2.828s-0.416-2.073-1.172-2.828l-4.949-4.949
		c-1.031-1.031-2.58-1.342-3.943-0.966v-16.98L60.617,32.134L65.01,22.13H28.283v71.803h52.379v-1.25
		c0.359,0.104,0.73,0.177,1.115,0.177c1.068,0,2.072-0.416,2.828-1.172l4.949-4.949c0.756-0.755,1.172-1.76,1.172-2.828
		s-0.416-2.073-1.172-2.828L85.004,76.529z M49.113,42.675h22.633v5.616H49.113V42.675z M49.113,57.48h22.633v5.616H71.57
		l-1.727-1.726c-1.512-1.512-4.145-1.512-5.656,0l-1.725,1.726h-13.35V57.48z M44.826,78.493h-7.455v-5.616h7.455V78.493z
		 M44.826,63.164h-7.455V57.55h7.455V63.164z M44.826,48.358h-7.455v-5.615h7.455V48.358z M49.113,72.809H60.07l3.721,3.721
		l-1.896,1.896H49.113V72.809z M81.537,89.026l-7.381-7.381l-7.381,7.381l-4.949-4.949l7.381-7.381l-7.381-7.381l4.949-4.949
		l7.381,7.381l7.381-7.381l4.949,4.949l-7.381,7.381l7.381,7.381L81.537,89.026z"/>
</g>
</svg>
