<?xml version="1.0" encoding="utf-8"?>
<!-- Generator: Adobe Illustrator 16.0.0, SVG Export Plug-In . SVG Version: 6.00 Build 0)  -->
<!DOCTYPE svg PUBLIC "-//W3C//DTD SVG 1.1//EN" "http://www.w3.org/Graphics/SVG/1.1/DTD/svg11.dtd">
<svg version="1.1" id="Layer_1" xmlns="http://www.w3.org/2000/svg" xmlns:xlink="http://www.w3.org/1999/xlink" x="0px" y="0px"
	 width="96px" height="96px" viewBox="0 0 96 96" enable-background="new 0 0 96 96" xml:space="preserve">
<g>
	<path d="M82.406,1.081H13.594c-4.103,0-7.428,3.324-7.428,7.426V28.31c0,4.102,3.325,7.426,7.428,7.426h55.839l7.383,11.656
		l6.668-11.766c3.588-0.524,6.351-3.583,6.351-7.316V8.507C89.834,4.405,86.509,1.081,82.406,1.081z"/>
	<path d="M82.406,48.608H13.594c-4.103,0-7.428,3.323-7.428,7.425v19.804c0,3.733,2.763,6.791,6.351,7.316l6.666,11.766
		l7.385-11.657h4.849h50.99c4.103,0,7.428-3.324,7.428-7.425V56.033C89.834,51.932,86.509,48.608,82.406,48.608z"/>
</g>
</svg>
