<?xml version="1.0" encoding="utf-8"?>
<!-- Generator: Adobe Illustrator 16.0.0, SVG Export Plug-In . SVG Version: 6.00 Build 0)  -->
<!DOCTYPE svg PUBLIC "-//W3C//DTD SVG 1.1//EN" "http://www.w3.org/Graphics/SVG/1.1/DTD/svg11.dtd">
<svg version="1.1" id="Layer_1" xmlns="http://www.w3.org/2000/svg" xmlns:xlink="http://www.w3.org/1999/xlink" x="0px" y="0px"
	 width="96px" height="96px" viewBox="0 0 96 96" enable-background="new 0 0 96 96" xml:space="preserve">
<g>
	<path d="M33.029,21.625v73.203h53.4V21.625H33.029z M49.895,79.088h-7.602v-5.726h7.602V79.088z M49.895,63.46h-7.602v-5.725h7.602
		V63.46z M49.895,48.365h-7.602v-5.724h7.602V48.365z M77.34,79.018H54.266v-5.726H77.34V79.018z M77.34,63.391H54.266v-5.726H77.34
		V63.391z M77.34,48.297H54.266v-5.726H77.34V48.297z"/>
	<path d="M53.695,1.172H9.57v73.203h18.928V17.657h25.197V1.172z M26.436,58.634h-7.602v-5.725h7.602V58.634z M26.436,43.006h-7.602
		v-5.725h7.602V43.006z M26.436,27.912h-7.602v-5.724h7.602V27.912z"/>
</g>
</svg>
