<?xml version="1.0" encoding="utf-8"?>
<!-- Generator: Adobe Illustrator 16.0.0, SVG Export Plug-In . SVG Version: 6.00 Build 0)  -->
<!DOCTYPE svg PUBLIC "-//W3C//DTD SVG 1.1//EN" "http://www.w3.org/Graphics/SVG/1.1/DTD/svg11.dtd">
<svg version="1.1" id="Layer_1" xmlns="http://www.w3.org/2000/svg" xmlns:xlink="http://www.w3.org/1999/xlink" x="0px" y="0px"
	 width="96px" height="96px" viewBox="0 0 96 96" enable-background="new 0 0 96 96" xml:space="preserve">
<g>
	<path d="M67.668,31.543c-1.964-11.184-15.94-19.599-33.439-19.599c-18.89,0-33.686,9.802-33.686,22.313
		c0,3.89,1.432,7.515,3.97,10.666V64.79L20.5,54.696c2.456,0.708,5.088,1.204,7.828,1.515C30.275,67.41,44.26,75.833,61.771,75.833
		c4.917,0,9.554-0.669,13.729-1.871l15.987,10.094V64.189c2.539-3.152,3.97-6.777,3.97-10.667
		C95.457,42.348,83.649,33.342,67.668,31.543z M28.982,48.314C17.44,46.919,8.481,41.05,8.481,34.257
		c0-7.791,11.791-14.373,25.747-14.373c12.128,0,22.614,4.972,25.157,11.384C44.316,31.937,32.266,38.89,28.982,48.314z
		 M61.771,67.896c-12.135,0-22.629-4.978-25.161-11.398l-0.203-0.58c-0.246-0.782-0.383-1.582-0.383-2.395
		c0-7.791,11.79-14.373,25.747-14.373c13.956,0,25.748,6.582,25.748,14.373C87.52,61.314,75.728,67.896,61.771,67.896z"/>
	<polygon points="70.054,46.703 63.763,49.081 64.405,42.917 58.306,42.917 58.625,48.951 52.718,46.703 50.921,52.675 
		56.956,53.896 52.718,58.904 57.599,62.498 61.387,56.913 65.239,62.498 70.054,58.904 65.561,53.896 71.725,52.675 	"/>
</g>
</svg>
