<?xml version="1.0" encoding="utf-8"?>
<!-- Generator: Adobe Illustrator 16.0.0, SVG Export Plug-In . SVG Version: 6.00 Build 0)  -->
<!DOCTYPE svg PUBLIC "-//W3C//DTD SVG 1.1//EN" "http://www.w3.org/Graphics/SVG/1.1/DTD/svg11.dtd">
<svg version="1.1" id="Layer_1" xmlns="http://www.w3.org/2000/svg" xmlns:xlink="http://www.w3.org/1999/xlink" x="0px" y="0px"
	 width="96px" height="96px" viewBox="0 0 96 96" enable-background="new 0 0 96 96" xml:space="preserve">
<path d="M89.287,17.159h-7.076l-6.262,7.935v9.369H64.137l-3.838-3.875V14.216L52.689,3.602h-9.379l-7.609,10.614v16.372
	l-3.838,3.875H20.049v-9.369l-6.262-7.935H6.713l-5.689,7.935v67.305h39.113V83.92c0-4.413,3.492-8.002,7.863-8.178
	c4.369,0.176,7.861,3.765,7.861,8.178v8.479h39.115V25.094L89.287,17.159z M31.227,85.583H7.916V70.879h23.311V85.583z
	 M31.227,64.782H7.916V50.076h23.311V64.782z M59.607,64.782H36.393V50.076h23.215V64.782z M88.084,85.583H64.771V70.879h23.313
	V85.583z M88.084,64.782H64.771V50.076h23.313V64.782z"/>
</svg>
