<?xml version="1.0" encoding="utf-8"?>
<!-- Generator: Adobe Illustrator 16.0.0, SVG Export Plug-In . SVG Version: 6.00 Build 0)  -->
<!DOCTYPE svg PUBLIC "-//W3C//DTD SVG 1.1//EN" "http://www.w3.org/Graphics/SVG/1.1/DTD/svg11.dtd">
<svg version="1.1" id="Layer_1" xmlns="http://www.w3.org/2000/svg" xmlns:xlink="http://www.w3.org/1999/xlink" x="0px" y="0px"
	 width="96px" height="96px" viewBox="0 0 96 96" enable-background="new 0 0 96 96" xml:space="preserve">
<g>
	<path d="M72.309,55.069c0-0.111-0.01-14.826-0.01-14.826l23.073-11.939L48,7.991L0.628,28.304l2.962,1.532v15.465h4.42V32.122
		l15.681,8.115l-0.015,15.848c0,0-1.77,2.93-0.678,5.699c0.538,1.365,1.324,2.569,2.403,3.321c0.497,0.346,1.017,0.573,1.54,0.705
		c3.299,14.215,10.726,22.198,20.999,22.198c10.167,0,17.754-8.157,21.097-22.213c0.504-0.135,1.003-0.357,1.481-0.69
		c1.079-0.752,1.933-1.932,2.403-3.321c1.187-3.081-0.624-5.255-0.624-5.255S72.309,55.449,72.309,55.069z M24.893,61.143
		c-0.332-0.979-0.348-1.973-0.117-2.768c0.264-0.193,0.539-0.381,0.819-0.567c0.216,1.938,0.495,3.788,0.831,5.556
		C25.761,62.854,25.203,62.06,24.893,61.143z M47.94,84.154c-13.434,0-17.3-17.178-18.39-25.723
		c4.171-2.851,11.104-4.594,18.449-4.594c7.345,0,14.278,1.743,18.449,4.594C65.357,66.976,61.476,84.154,47.94,84.154z
		 M71.028,61.143c-0.298,0.88-0.824,1.641-1.453,2.153c0.338-1.75,0.618-3.578,0.831-5.488c0.244,0.161,0.48,0.326,0.713,0.493
		C71.373,59.108,71.371,60.131,71.028,61.143z"/>
	<rect x="3.334" y="47.627" width="4.814" height="7.029"/>
</g>
</svg>
