<?xml version="1.0" encoding="utf-8"?>
<!-- Generator: Adobe Illustrator 16.0.0, SVG Export Plug-In . SVG Version: 6.00 Build 0)  -->
<!DOCTYPE svg PUBLIC "-//W3C//DTD SVG 1.1//EN" "http://www.w3.org/Graphics/SVG/1.1/DTD/svg11.dtd">
<svg version="1.1" id="Layer_1" xmlns="http://www.w3.org/2000/svg" xmlns:xlink="http://www.w3.org/1999/xlink" x="0px" y="0px"
	 width="96px" height="96px" viewBox="0 0 96 96" enable-background="new 0 0 96 96" xml:space="preserve">
<path d="M23.058,1.5v93h49.885v-93H23.058z M29.382,12.301c0-2.55,2.067-4.616,4.616-4.616h28.003c2.549,0,4.616,2.066,4.616,4.616
	v2.643H29.382V12.301z M29.382,24.176c0-2.55,2.067-4.616,4.616-4.616h28.003c2.549,0,4.616,2.066,4.616,4.616v2.644H29.382V24.176z
	 M68.229,59.231c0,1.035-0.839,1.875-1.875,1.875h-1.073v-15.12h1.073c1.036,0,1.875,0.839,1.875,1.874V59.231z M66.707,44.393
	c-1.033,0-1.871-0.838-1.871-1.871s0.837-1.871,1.871-1.871c1.033,0,1.871,0.838,1.871,1.871S67.74,44.393,66.707,44.393z"/>
</svg>
