<?xml version="1.0" encoding="utf-8"?>
<!-- Generator: Adobe Illustrator 16.0.0, SVG Export Plug-In . SVG Version: 6.00 Build 0)  -->
<!DOCTYPE svg PUBLIC "-//W3C//DTD SVG 1.1//EN" "http://www.w3.org/Graphics/SVG/1.1/DTD/svg11.dtd">
<svg version="1.1" id="Layer_1" xmlns="http://www.w3.org/2000/svg" xmlns:xlink="http://www.w3.org/1999/xlink" x="0px" y="0px"
	 width="96px" height="96px" viewBox="0 0 96 96" enable-background="new 0 0 96 96" xml:space="preserve">
<path d="M79.735,24.464v6.557H64.533c-1.128-7.139-6.763-12.767-13.904-13.882V7.279h-5.358v9.884
	c-7.057,1.179-12.608,6.777-13.727,13.857h-15.28v-6.557H0.792v64.257H12.79h3.475h23.481v-8.443c0-4.51,3.655-8.166,8.166-8.166
	c4.51,0,8.166,3.656,8.166,8.166v8.443h23.657h3.475h11.999V24.464H79.735z M30.874,81.934H7.656V67.288h23.218V81.934z
	 M30.874,61.217H7.656V46.571h23.218V61.217z M59.235,61.217H36.017V46.571h23.218V61.217z M88.168,81.934H64.95V67.288h23.218
	V81.934z M88.168,61.217H64.95V46.571h23.218V61.217z"/>
</svg>
