<?xml version="1.0" encoding="utf-8"?>
<!-- Generator: Adobe Illustrator 16.0.0, SVG Export Plug-In . SVG Version: 6.00 Build 0)  -->
<!DOCTYPE svg PUBLIC "-//W3C//DTD SVG 1.1//EN" "http://www.w3.org/Graphics/SVG/1.1/DTD/svg11.dtd">
<svg version="1.1" id="Layer_1" xmlns="http://www.w3.org/2000/svg" xmlns:xlink="http://www.w3.org/1999/xlink" x="0px" y="0px"
	 width="96px" height="96px" viewBox="0 0 96 96" enable-background="new 0 0 96 96" xml:space="preserve">
<path d="M90.804,41.124c-0.619,0-1.207,0.127-1.749,0.341c-2.865-10.451-12.428-18.133-23.788-18.133c-0.927,0-64.866,0-64.866,0
	S7.861,42.52,23.697,42.52c5.405,0,11.646,0,17.521,0c-0.399,1.764-0.619,3.596-0.619,5.48c0,13.624,11.045,24.668,24.668,24.668
	c12.745,0,23.229-9.662,24.53-22.062c0.324,0.07,0.661,0.11,1.007,0.11c2.645,0,4.796-2.151,4.796-4.796
	C95.6,43.275,93.448,41.124,90.804,41.124z M90.804,47.976c-0.313,0-0.607-0.075-0.874-0.202c-0.012-1.206-0.104-2.393-0.283-3.551
	c0.331-0.225,0.729-0.357,1.157-0.357c1.133,0,2.056,0.922,2.056,2.056C92.859,47.053,91.937,47.976,90.804,47.976z"/>
</svg>
